<svg xmlns="http://www.w3.org/2000/svg" width="380" height="325" fill="none" viewBox="0 0 380 325"><path fill="#EBEBEB" d="M379.625 281.236H0V281.426H379.625V281.236Z"/><path fill="#EBEBEB" d="M330.783 293.453H316.44V293.642H330.783V293.453Z"/><path fill="#EBEBEB" d="M244.873 292.132H222.498V292.321H244.873V292.132Z"/><path fill="#EBEBEB" d="M315.681 286.407H279.913V286.597H315.681V286.407Z"/><path fill="#EBEBEB" d="M48.1593 287.682H39.8303V287.872H48.1593V287.682Z"/><path fill="#EBEBEB" d="M84.1933 287.682H54.9166V287.872H84.1933V287.682Z"/><path fill="#EBEBEB" d="M170.945 290.886H129.832V291.076H170.945V290.886Z"/><path fill="#EBEBEB" d="M179.942 247.374H33.3387C32.1902 247.372 31.0894 246.914 30.2781 246.101C29.4667 245.288 29.011 244.187 29.011 243.038V36.955C29.021 35.8131 29.4811 34.7213 30.2914 33.9167C31.1017 33.112 32.1967 32.6596 33.3387 32.6577H179.942C181.092 32.6577 182.195 33.1144 183.008 33.9275C183.821 34.7405 184.278 35.8432 184.278 36.993V243.038C184.278 244.188 183.821 245.291 183.008 246.104C182.195 246.917 181.092 247.374 179.942 247.374ZM33.3387 32.8095C32.2405 32.8115 31.1881 33.2492 30.4123 34.0264C29.6365 34.8036 29.2008 35.8569 29.2008 36.955V243.038C29.2008 244.137 29.6365 245.19 30.4123 245.967C31.1881 246.744 32.2405 247.182 33.3387 247.184H179.942C181.041 247.182 182.094 246.745 182.871 245.968C183.648 245.191 184.086 244.137 184.088 243.038V36.955C184.086 35.8562 183.648 34.8029 182.871 34.0259C182.094 33.2489 181.041 32.8115 179.942 32.8095H33.3387Z"/><path fill="#EBEBEB" d="M344.176 247.374H197.565C196.415 247.372 195.314 246.914 194.501 246.102C193.689 245.289 193.231 244.188 193.229 243.038V36.955C193.241 35.8124 193.703 34.7206 194.515 33.9162C195.326 33.1118 196.422 32.6596 197.565 32.6577H344.176C345.317 32.6616 346.41 33.1149 347.218 33.9193C348.027 34.7237 348.486 35.8144 348.496 36.955V243.038C348.496 244.186 348.041 245.286 347.232 246.099C346.422 246.911 345.323 247.37 344.176 247.374ZM197.565 32.8095C196.466 32.8115 195.412 33.2489 194.635 34.0259C193.858 34.8029 193.421 35.8562 193.419 36.955V243.038C193.421 244.137 193.858 245.191 194.635 245.968C195.412 246.745 196.466 247.182 197.565 247.184H344.176C345.275 247.182 346.328 246.745 347.105 245.968C347.882 245.191 348.319 244.137 348.321 243.038V36.955C348.319 35.8562 347.882 34.8029 347.105 34.0259C346.328 33.2489 345.275 32.8115 344.176 32.8095H197.565Z"/><path fill="#F5F5F5" d="M225.315 48.1008L224.67 49.3991C224.633 49.4737 224.578 49.5382 224.511 49.5872C224.443 49.6361 224.365 49.6679 224.283 49.6801L222.848 49.8926C222.752 49.9061 222.662 49.9461 222.588 50.0081C222.514 50.07 222.459 50.1515 222.429 50.2432C222.399 50.3349 222.395 50.4331 222.418 50.5269C222.441 50.6206 222.49 50.706 222.559 50.7734L223.599 51.7908C223.659 51.8495 223.703 51.9213 223.73 52.0004C223.756 52.0796 223.763 52.1638 223.751 52.2463L223.501 53.6737C223.482 53.7702 223.492 53.87 223.528 53.9612C223.565 54.0524 223.626 54.1313 223.706 54.1887C223.786 54.2461 223.88 54.2796 223.978 54.2852C224.076 54.2908 224.174 54.2683 224.26 54.2204L225.543 53.5446C225.618 53.5072 225.702 53.4877 225.786 53.4877C225.87 53.4877 225.953 53.5072 226.029 53.5446L227.312 54.2204C227.398 54.2683 227.495 54.2908 227.593 54.2852C227.692 54.2796 227.786 54.2461 227.866 54.1887C227.945 54.1313 228.007 54.0524 228.043 53.9612C228.08 53.87 228.09 53.7702 228.071 53.6737L227.828 52.2463C227.812 52.1637 227.817 52.0783 227.844 51.9985C227.871 51.9186 227.918 51.8471 227.98 51.7908L229.013 50.7734C229.082 50.706 229.131 50.6206 229.154 50.5269C229.177 50.4331 229.173 50.3349 229.143 50.2432C229.113 50.1515 229.058 50.07 228.984 50.0081C228.91 49.9461 228.82 49.9061 228.724 49.8926L227.289 49.6801C227.207 49.6679 227.129 49.6361 227.061 49.5872C226.994 49.5382 226.939 49.4737 226.902 49.3991L226.257 48.1008C226.216 48.0102 226.15 47.9332 226.066 47.8793C225.983 47.8253 225.885 47.7966 225.786 47.7966C225.687 47.7966 225.589 47.8253 225.506 47.8793C225.422 47.9332 225.356 48.0102 225.315 48.1008Z"/><path fill="#F0F0F0" d="M325.84 223.548L324.868 224.262C324.812 224.303 324.747 224.33 324.678 224.341C324.609 224.351 324.539 224.345 324.473 224.323L323.327 223.936C323.251 223.908 323.17 223.903 323.091 223.92C323.013 223.937 322.941 223.976 322.883 224.033C322.826 224.089 322.786 224.161 322.768 224.239C322.75 224.317 322.754 224.399 322.78 224.475L323.16 225.621C323.183 225.687 323.189 225.757 323.179 225.826C323.168 225.895 323.141 225.96 323.099 226.016L322.34 226.98C322.293 227.045 322.264 227.122 322.258 227.203C322.251 227.283 322.267 227.363 322.303 227.435C322.339 227.507 322.394 227.568 322.462 227.611C322.53 227.654 322.609 227.677 322.689 227.679H323.896C323.967 227.678 324.036 227.695 324.099 227.729C324.161 227.762 324.214 227.81 324.253 227.869L324.944 228.856C324.991 228.92 325.055 228.969 325.128 228.999C325.202 229.029 325.282 229.039 325.361 229.026C325.439 229.013 325.513 228.98 325.573 228.928C325.633 228.877 325.678 228.81 325.703 228.734L326.068 227.588C326.088 227.521 326.124 227.46 326.173 227.409C326.222 227.359 326.282 227.321 326.349 227.299L327.503 226.95C327.579 226.926 327.647 226.882 327.699 226.822C327.751 226.761 327.786 226.688 327.799 226.61C327.813 226.531 327.804 226.451 327.774 226.377C327.745 226.303 327.696 226.238 327.632 226.191L326.652 225.492C326.594 225.453 326.547 225.4 326.515 225.337C326.483 225.275 326.467 225.205 326.47 225.135V223.928C326.471 223.854 326.453 223.78 326.417 223.715C326.381 223.65 326.328 223.595 326.264 223.557C326.201 223.518 326.128 223.497 326.053 223.496C325.979 223.494 325.905 223.513 325.84 223.548Z"/><path fill="#F5F5F5" d="M319.166 58.2444L318.885 59.6642C318.868 59.7461 318.83 59.8224 318.776 59.8861C318.722 59.9497 318.652 59.9987 318.574 60.0287L317.23 60.5677C317.14 60.6027 317.061 60.6625 317.003 60.7402C316.945 60.8179 316.91 60.9104 316.902 61.0071C316.894 61.1037 316.913 61.2007 316.958 61.2868C317.003 61.3729 317.071 61.4447 317.154 61.494L318.399 62.2533C318.473 62.2953 318.534 62.3546 318.579 62.4261C318.624 62.4976 318.651 62.579 318.657 62.6632L318.749 64.1134C318.757 64.2096 318.792 64.3016 318.85 64.3792C318.907 64.4568 318.985 64.517 319.074 64.5531C319.164 64.5893 319.262 64.5999 319.357 64.584C319.452 64.568 319.541 64.526 319.614 64.4627L320.7 63.506C320.764 63.4511 320.84 63.4121 320.921 63.3923C321.003 63.3725 321.089 63.3725 321.171 63.3921L322.575 63.749C322.669 63.7744 322.769 63.7727 322.862 63.7441C322.955 63.7155 323.038 63.6611 323.101 63.5873C323.165 63.5134 323.206 63.4231 323.221 63.3268C323.235 63.2305 323.222 63.132 323.183 63.0429L322.606 61.7066C322.566 61.633 322.546 61.5508 322.546 61.4674C322.546 61.384 322.566 61.3019 322.606 61.2283L323.365 59.9983C323.409 59.9167 323.43 59.8249 323.426 59.7324C323.422 59.6399 323.393 59.5501 323.343 59.4725C323.292 59.3949 323.222 59.3322 323.139 59.2912C323.056 59.2501 322.964 59.2321 322.871 59.239L321.429 59.3757C321.344 59.3826 321.259 59.369 321.181 59.3359C321.103 59.3029 321.035 59.2514 320.981 59.1859L320.054 58.0774C319.996 58.0062 319.919 57.9521 319.832 57.9207C319.745 57.8893 319.652 57.8817 319.561 57.8988C319.47 57.9159 319.386 57.9569 319.316 58.0177C319.247 58.0785 319.195 58.1568 319.166 58.2444Z"/><path fill="#F5F5F5" d="M69.9725 108.438L69.3651 109.053C69.3312 109.091 69.288 109.118 69.2399 109.133C69.1918 109.147 69.1407 109.149 69.0918 109.137L68.2414 108.993C68.1842 108.982 68.1252 108.988 68.071 109.009C68.0168 109.03 67.9697 109.066 67.9349 109.113C67.9001 109.159 67.8791 109.215 67.8742 109.273C67.8694 109.331 67.8808 109.389 67.9074 109.441L68.3098 110.2C68.3325 110.245 68.3443 110.294 68.3443 110.344C68.3443 110.394 68.3325 110.444 68.3098 110.488L67.8998 111.248C67.8707 111.299 67.8569 111.357 67.8601 111.415C67.8634 111.474 67.8834 111.53 67.9179 111.577C67.9525 111.625 67.9999 111.661 68.0546 111.682C68.1093 111.703 68.1689 111.708 68.2263 111.696L69.0766 111.551C69.1261 111.545 69.1765 111.549 69.2239 111.565C69.2713 111.581 69.3144 111.607 69.3499 111.642L69.9574 112.273C69.9971 112.315 70.0481 112.345 70.1045 112.36C70.1609 112.374 70.2202 112.372 70.2753 112.353C70.3305 112.335 70.3792 112.301 70.4157 112.256C70.4522 112.211 70.475 112.156 70.4812 112.098L70.6103 111.248C70.6179 111.197 70.6377 111.149 70.6682 111.108C70.6986 111.067 70.7387 111.034 70.7849 111.012L71.5442 110.633C71.5952 110.607 71.638 110.567 71.668 110.518C71.6979 110.469 71.7137 110.413 71.7137 110.356C71.7137 110.298 71.6979 110.242 71.668 110.193C71.638 110.144 71.5952 110.105 71.5442 110.078L70.7849 109.691C70.7405 109.668 70.7023 109.634 70.6733 109.594C70.6442 109.553 70.6253 109.505 70.6179 109.456L70.504 108.583C70.4916 108.527 70.4644 108.477 70.4252 108.436C70.3861 108.395 70.3365 108.365 70.2818 108.35C70.2271 108.335 70.1694 108.336 70.1149 108.351C70.0604 108.367 70.0112 108.397 69.9725 108.438Z"/><path fill="#F5F5F5" d="M297.512 215.409L297.125 216.169C297.103 216.215 297.07 216.255 297.029 216.285C296.988 216.316 296.94 216.336 296.89 216.343L296.032 216.465C295.975 216.474 295.921 216.499 295.877 216.536C295.834 216.574 295.801 216.624 295.784 216.679C295.767 216.734 295.765 216.793 295.779 216.849C295.793 216.905 295.823 216.956 295.865 216.996L296.48 217.596C296.516 217.632 296.544 217.676 296.56 217.725C296.576 217.774 296.579 217.826 296.571 217.877L296.427 218.727C296.418 218.784 296.424 218.842 296.446 218.895C296.468 218.948 296.504 218.994 296.551 219.027C296.597 219.061 296.652 219.082 296.709 219.086C296.766 219.091 296.823 219.08 296.875 219.054L297.634 218.651C297.679 218.629 297.728 218.617 297.778 218.617C297.828 218.617 297.878 218.629 297.922 218.651L298.682 219.054C298.733 219.08 298.79 219.091 298.847 219.086C298.904 219.082 298.959 219.061 299.005 219.027C299.052 218.994 299.088 218.948 299.11 218.895C299.132 218.842 299.139 218.784 299.13 218.727L298.985 217.877C298.977 217.826 298.981 217.774 298.996 217.725C299.012 217.676 299.04 217.632 299.076 217.596L299.699 216.996C299.741 216.955 299.77 216.904 299.784 216.847C299.798 216.791 299.796 216.731 299.778 216.676C299.759 216.62 299.726 216.571 299.681 216.534C299.636 216.497 299.582 216.473 299.524 216.465L298.666 216.343C298.616 216.334 298.569 216.314 298.528 216.284C298.487 216.253 298.454 216.214 298.431 216.169L298.051 215.409C298.024 215.362 297.985 215.323 297.937 215.295C297.89 215.268 297.836 215.254 297.782 215.254C297.727 215.254 297.674 215.268 297.626 215.295C297.579 215.323 297.54 215.362 297.512 215.409Z"/><path fill="#EBEBEB" d="M104.283 48.1843L104.184 49.0423C104.182 49.0933 104.165 49.1426 104.137 49.1853C104.109 49.228 104.071 49.2625 104.025 49.2852L103.266 49.6952C103.215 49.7214 103.172 49.761 103.142 49.8099C103.112 49.8588 103.096 49.915 103.096 49.9724C103.096 50.0297 103.112 50.0859 103.142 50.1348C103.172 50.1837 103.215 50.2234 103.266 50.2495L104.025 50.6063C104.071 50.6276 104.111 50.6592 104.143 50.6987C104.175 50.7383 104.197 50.7846 104.207 50.8341L104.359 51.6845C104.369 51.742 104.396 51.7954 104.435 51.8387C104.474 51.882 104.525 51.9133 104.581 51.9292C104.637 51.945 104.697 51.9447 104.753 51.9283C104.809 51.9119 104.859 51.88 104.898 51.8363L105.475 51.1986C105.51 51.1616 105.552 51.1334 105.6 51.1163C105.647 51.0991 105.698 51.0935 105.748 51.0999L106.606 51.2137C106.664 51.2214 106.722 51.2128 106.775 51.189C106.828 51.1651 106.873 51.127 106.906 51.0788C106.938 51.0307 106.956 50.9744 106.959 50.9164C106.961 50.8584 106.946 50.801 106.918 50.7506L106.485 49.9914C106.462 49.9466 106.45 49.8972 106.45 49.8471C106.45 49.797 106.462 49.7475 106.485 49.7028L106.865 48.9436C106.888 48.8911 106.897 48.8329 106.89 48.7757C106.882 48.7185 106.859 48.6645 106.823 48.6196C106.787 48.5747 106.739 48.5408 106.685 48.5216C106.63 48.5024 106.572 48.4986 106.515 48.5108L105.672 48.6854C105.623 48.696 105.572 48.6946 105.523 48.6814C105.474 48.6682 105.429 48.6436 105.392 48.6095L104.777 47.9945C104.734 47.9626 104.685 47.942 104.632 47.9346C104.58 47.9272 104.526 47.9333 104.477 47.9523C104.428 47.9713 104.384 48.0025 104.35 48.0432C104.316 48.0838 104.293 48.1323 104.283 48.1843Z"/><path fill="#EBEBEB" d="M80.6932 225.644L80.8754 227.162C80.8844 227.249 80.8726 227.336 80.8409 227.416C80.8092 227.497 80.7585 227.569 80.6932 227.626L79.5695 228.62C79.496 228.687 79.4424 228.773 79.4146 228.868C79.3867 228.963 79.3857 229.064 79.4116 229.16C79.4375 229.256 79.4894 229.343 79.5614 229.411C79.6335 229.479 79.723 229.526 79.82 229.547L81.293 229.835C81.3788 229.852 81.459 229.89 81.5266 229.946C81.5941 230.002 81.6469 230.073 81.6802 230.154L82.28 231.528C82.3191 231.62 82.3833 231.699 82.4654 231.757C82.5475 231.814 82.6441 231.847 82.744 231.852C82.8439 231.856 82.9432 231.833 83.0303 231.784C83.1175 231.734 83.189 231.662 83.2366 231.574L83.9959 230.268C84.0385 230.191 84.0997 230.125 84.1739 230.077C84.2481 230.03 84.3331 230.001 84.4211 229.994L85.9396 229.85C86.0395 229.842 86.1351 229.806 86.2153 229.745C86.2954 229.685 86.3569 229.604 86.3927 229.51C86.4284 229.416 86.4369 229.314 86.4172 229.216C86.3975 229.118 86.3503 229.027 86.2812 228.954L85.2638 227.853C85.2045 227.789 85.1617 227.711 85.1392 227.626C85.1167 227.542 85.1152 227.453 85.1348 227.367L85.4612 225.91C85.4842 225.811 85.4787 225.707 85.4454 225.611C85.4121 225.515 85.3523 225.43 85.2729 225.367C85.1935 225.303 85.0978 225.264 84.9968 225.252C84.8957 225.241 84.7936 225.258 84.702 225.302L83.3429 225.932C83.2658 225.974 83.1798 225.995 83.0924 225.995C83.005 225.995 82.9189 225.974 82.8418 225.932L81.5511 225.173C81.4683 225.112 81.3697 225.076 81.2671 225.069C81.1644 225.062 81.0619 225.085 80.9716 225.134C80.8814 225.184 80.8072 225.258 80.7579 225.348C80.7085 225.439 80.6861 225.541 80.6932 225.644Z"/><path fill="#F0F0F0" d="M146.945 66.7404C146.945 66.9405 147.005 67.136 147.116 67.3022C147.227 67.4684 147.386 67.5979 147.571 67.6741C147.755 67.7503 147.959 67.7698 148.155 67.7302C148.351 67.6906 148.531 67.5937 148.672 67.4517C148.813 67.3098 148.908 67.1291 148.946 66.9327C148.985 66.7364 148.964 66.5331 148.886 66.3487C148.808 66.1643 148.678 66.0071 148.511 65.8971C148.344 65.7871 148.148 65.7291 147.948 65.7306C147.815 65.7306 147.684 65.7568 147.562 65.8076C147.44 65.8585 147.329 65.933 147.236 66.0268C147.143 66.1207 147.069 66.2321 147.019 66.3546C146.97 66.477 146.944 66.6082 146.945 66.7404Z"/><path fill="#F5F5F5" d="M114.875 262.46C114.875 262.66 114.934 262.855 115.045 263.021C115.156 263.187 115.313 263.317 115.498 263.393C115.683 263.469 115.886 263.489 116.081 263.45C116.277 263.411 116.457 263.315 116.598 263.174C116.74 263.033 116.836 262.853 116.875 262.657C116.914 262.461 116.894 262.258 116.817 262.074C116.741 261.889 116.611 261.731 116.445 261.62C116.279 261.509 116.084 261.45 115.884 261.45C115.617 261.45 115.36 261.557 115.17 261.746C114.981 261.935 114.875 262.192 114.875 262.46Z"/><path fill="#F0F0F0" d="M134.896 48.5412C134.896 49.271 135.112 49.9844 135.518 50.5912C135.923 51.198 136.5 51.671 137.174 51.9503C137.848 52.2296 138.59 52.3026 139.306 52.1602C140.022 52.0179 140.679 51.6664 141.195 51.1504C141.711 50.6343 142.063 49.9769 142.205 49.2611C142.347 48.5453 142.274 47.8034 141.995 47.1291C141.716 46.4549 141.243 45.8786 140.636 45.4731C140.029 45.0676 139.316 44.8512 138.586 44.8512C138.101 44.8502 137.621 44.945 137.173 45.1301C136.725 45.3152 136.317 45.5869 135.975 45.9298C135.632 46.2726 135.36 46.6798 135.175 47.1279C134.99 47.5761 134.895 48.0563 134.896 48.5412Z"/><path fill="#F0F0F0" d="M327.093 104.217C327.093 104.621 327.213 105.016 327.437 105.352C327.661 105.688 327.98 105.949 328.354 106.104C328.727 106.259 329.137 106.299 329.534 106.22C329.93 106.141 330.294 105.947 330.579 105.661C330.865 105.376 331.059 105.012 331.138 104.615C331.217 104.219 331.177 103.809 331.022 103.435C330.867 103.062 330.606 102.743 330.27 102.519C329.934 102.294 329.539 102.175 329.135 102.175C328.594 102.177 328.076 102.392 327.693 102.775C327.311 103.158 327.095 103.676 327.093 104.217Z"/><path fill="#F0F0F0" d="M42.5788 229.463C43.1449 229.463 43.6038 229.004 43.6038 228.438C43.6038 227.872 43.1449 227.413 42.5788 227.413C42.0127 227.413 41.5538 227.872 41.5538 228.438C41.5538 229.004 42.0127 229.463 42.5788 229.463Z"/><path fill="#F0F0F0" d="M292.084 267.023C292.084 267.388 292.192 267.745 292.395 268.049C292.598 268.352 292.887 268.589 293.224 268.728C293.562 268.868 293.933 268.904 294.291 268.832C294.649 268.76 294.978 268.584 295.236 268.325C295.494 268.066 295.669 267.737 295.739 267.378C295.809 267.02 295.772 266.649 295.631 266.312C295.49 265.975 295.253 265.687 294.948 265.485C294.644 265.284 294.286 265.177 293.921 265.178C293.679 265.178 293.44 265.226 293.216 265.319C292.993 265.412 292.79 265.548 292.619 265.719C292.448 265.89 292.313 266.094 292.221 266.318C292.129 266.541 292.083 266.781 292.084 267.023Z"/><path fill="#F5F5F5" d="M48.873 85.5395C51.4722 87.0683 54.3472 88.0701 57.3337 88.4877C60.3201 88.9053 63.3596 88.7305 66.2785 87.9733C69.1974 87.216 71.9386 85.8912 74.3454 84.0745C76.7523 82.2578 78.7777 79.9847 80.3059 77.3851C80.5717 76.9372 80.8222 76.4816 81.0652 76.0261C76.8499 76.974 72.4738 76.9463 68.2708 75.945C64.0679 74.9436 60.1494 72.9952 56.8144 70.2484C53.4794 67.5015 50.8161 64.029 49.0279 60.0959C47.2397 56.1627 46.3739 51.873 46.4965 47.5542C43.5288 49.8512 41.169 52.8403 39.6233 56.2601C38.0777 59.6799 37.3933 63.4262 37.63 67.1716C37.8667 70.917 39.0173 74.5473 40.9812 77.7453C42.9451 80.9433 45.6624 83.6115 48.8957 85.5167L48.873 85.5395Z"/><path fill="#F0F0F0" d="M44.5376 64.9106C45.1557 65.3665 45.867 65.6799 46.6205 65.8283C47.374 65.9766 48.151 65.9562 48.8957 65.7686C46.302 64.8674 44.0399 63.2059 42.4041 61.0005C42.448 61.7696 42.6621 62.5193 43.0311 63.1955C43.4001 63.8717 43.9146 64.4576 44.5376 64.9106Z"/><path fill="#F0F0F0" d="M67.0494 83.1326C67.7854 82.9114 68.4636 82.5306 69.0357 82.0175C69.6078 81.5044 70.0599 80.8716 70.3598 80.164C69.228 80.9276 67.9862 81.514 66.6774 81.9027C65.3701 82.2965 64.011 82.4911 62.6458 82.4797C63.287 82.9047 64.0139 83.1836 64.7749 83.2964C65.5359 83.4092 66.3124 83.3533 67.0494 83.1326Z"/><path fill="#F0F0F0" d="M48.9868 74.3177C49.7543 74.2829 50.5044 74.0782 51.1832 73.7185C51.862 73.3587 52.4525 72.8529 52.9122 72.2374C51.6335 72.7104 50.2884 72.9794 48.9261 73.0346C47.5612 73.1051 46.1936 72.9643 44.8717 72.617C45.3896 73.1866 46.0272 73.6345 46.7387 73.9286C47.4502 74.2226 48.2179 74.3555 48.9868 74.3177Z"/><path fill="#F0F0F0" d="M55.2658 82.92C55.7555 83.5126 56.3703 83.9894 57.066 84.3163C57.7617 84.6431 58.5212 84.8119 59.2899 84.8106C58.1427 84.0736 57.118 83.1616 56.2529 82.1076C55.3785 81.0571 54.6693 79.8794 54.1497 78.6151C54.0059 79.3705 54.0315 80.1485 54.2244 80.8929C54.4174 81.6373 54.7731 82.3296 55.2658 82.92Z"/><path fill="#F5F5F5" d="M189.813 315.524C271.115 315.524 337.024 311.676 337.024 306.929C337.024 302.183 271.115 298.335 189.813 298.335C108.51 298.335 42.6015 302.183 42.6015 306.929C42.6015 311.676 108.51 315.524 189.813 315.524Z"/><path fill="#49AAAA" d="M288.61 243.364C333.412 198.562 333.412 125.923 288.61 81.1212C243.808 36.3192 171.169 36.3192 126.367 81.1212C81.5654 125.923 81.5654 198.562 126.367 243.364C171.169 288.166 243.808 288.166 288.61 243.364Z"/><path fill="#fff" d="M288.61 243.364C333.412 198.562 333.412 125.923 288.61 81.1212C243.808 36.3192 171.169 36.3192 126.367 81.1212C81.5654 125.923 81.5654 198.562 126.367 243.364C171.169 288.166 243.808 288.166 288.61 243.364Z" opacity=".7"/><g opacity=".2"><path fill="#49AAAA" d="M319.553 186.899L317.769 182.951L311.224 182.238L305.978 178.958L300.496 176.004L295.941 169.573L289.631 164.19L286.488 173.203L289.814 178.403L295.409 181.509L298.234 187.355L302.911 190.954L307.922 193.102L306.213 199.131L304.459 205.645L303.192 212.858L296.214 212.418L291.036 216.465L285.311 218.53L279.503 216.746L274.492 212.266L268.342 208.045L261.577 204.461L257.781 198.068L255.313 192.708L252.193 187.082L252.079 180.704L251.919 174.334L249.125 168.822L246.969 178.047L244.775 183.642L244.904 189.807L242.558 195.562L239.673 202.396L238.154 209.229L242.163 211.697L248.571 212.182L243.575 218.302L239.02 223.966L234.183 229.44L228.109 234.102L221.155 237.025L214.443 240.411L206.683 241.793L201.118 247.457L193.351 248.756L186.373 252.309L179.183 255.118L171.462 255.194L166.071 252.483L158.402 252.385L161.736 246.447L163.558 241.193L165.836 233.707L167.035 225.735L168.554 218.059L170.664 211.666L173.132 205.137L170.854 198.045L174.134 191.258L170.414 185.464L166.276 180.469L160.961 176.369L157.636 170.781L155.107 165.094L153.255 159.065L152.313 152.536L150.089 145.604L156.094 139.932L159.678 133.031L165.972 129.082L172.001 129.667L178.834 130.472L185.576 131.808L192.948 130.609L198.673 136.599L206.061 138.953L212.643 142.795L219.18 146.735L225.794 150.66L230.471 157.235L237.607 160.462L244.274 159.703L250.75 160.303L257.128 161.685L264.781 164.122L262.367 154.753L259.967 146.902L255.108 144.472L251.13 139.059L245.405 136.91L240.09 134.496L239.414 128.733L237.645 123.008L236.264 116.934L228.944 113.472L221.139 111.779L214.154 110.443L209.052 114.239L202.355 114.71L194.983 115.834L186.631 108.59L191.688 103.716L191.513 97.0573L194.922 92.0083L202.948 88.4018L208.49 82.2064L214.974 83.5806L221.101 87.4528H228.527L235.565 84.6739L242.915 85.7141L248.715 82.4569L252.762 77.5521L257.204 73.1637L263.969 72.1994L270.346 75.3427H277.043L283.276 76.6031L285.121 77.742C299.904 91.3373 310.863 108.572 316.905 127.726C322.947 146.879 323.86 167.283 319.553 186.899Z"/><path fill="#49AAAA" d="M216.075 247.586L212.719 252.385L205.37 253.979L199.607 256.06L207.845 258.778H214.959L220.874 254.306L221.671 250.783L216.075 247.586Z"/><path fill="#49AAAA" d="M130.128 246.766L129.991 246.835C115.777 233.8 105.071 217.398 98.862 199.139L98.2926 196.155L97.3435 194.302C91.6076 174.73 91.2248 153.978 96.235 134.207L97.6244 139.249L99.2948 146.325L103.524 152.946L103.258 160.682L106.865 167.447L107.624 174.827L108.095 180.901L107.221 186.915L103.721 192.525L105.923 199.807L109.499 206.086L111.701 211.522L112.62 219.008L116.416 224.232L117.934 230.64L122.217 235.628L125.178 241.3L130.128 246.766Z"/><path fill="#49AAAA" d="M224.108 52.8158L219.613 54.6759L213.873 57.9711L208.035 61.0688L202.09 63.8401L195.499 64.9258L189.312 66.9226L183.101 64.8575L176.662 63.5136L170.475 61.1599L164.142 61.8205L157.605 64.698L152.29 69.7319L148.175 76.1172L140.78 78.8125L136.885 85.3117L132.664 90.6644L131.601 97.7406L126.575 102.843L124.441 109.342L120.015 114.74L118.253 120.814L112.536 119.979L106.25 118.787L101.937 117.329C111.754 94.2567 128.857 75.0342 150.632 62.6009C172.406 50.1677 197.654 45.2081 222.514 48.4804L224.108 52.8158Z"/></g><path fill="#fff" d="M323.547 124.33C306.13 139.173 267.074 133.387 257.568 130.259C248.062 127.131 263.247 128.824 270.885 127.222C278.524 125.62 281.371 118.977 292.858 124.185C304.346 129.394 304.308 130.912 309.19 125.188C314.072 119.463 333.417 115.925 323.547 124.33Z"/><path fill="#fff" d="M94.3673 198.402C105.354 227.664 155.867 246.607 169.26 249.158C182.653 251.709 163.429 243.691 155.343 236.752C147.257 229.812 148.282 219.95 131.115 218.53C113.948 217.11 112.984 218.985 110.942 208.918C108.899 198.85 88.1414 181.828 94.3673 198.402Z"/><path fill="#fff" d="M174.339 123.251C143.65 117.003 114.404 98.4999 111.693 88.4322C110.091 82.4949 114.51 88.5157 119.498 90.3759C124.487 92.2361 135.185 85.6382 138.222 93.5572C141.259 101.476 138.662 105.796 147.12 108.651C155.578 111.506 161.037 107.656 165.873 114.414C170.71 121.171 182.721 124.96 174.339 123.251Z"/><path fill="#fff" d="M250.682 225.264C208.877 222.721 166.693 203.686 161.219 190.863C157.992 183.27 164.97 190.453 171.925 191.979C178.879 193.505 191.809 182.777 197.314 192.692C202.819 202.608 200.176 208.819 211.907 211.021C223.637 213.223 230.129 207.095 237.828 215.144C245.526 223.192 262.101 225.955 250.682 225.264Z"/><path fill="#fff" d="M276.823 257.98C258.601 270.576 223.197 269.688 216.447 263.994C212.469 260.638 221.618 260.615 226.097 260.129C230.577 259.643 236.172 250.601 241.48 255.437C246.787 260.273 243.583 263.029 250.841 260.964C258.1 258.899 260.043 253.554 266.672 255.923C273.3 258.292 282.775 253.865 276.823 257.98Z"/><path fill="#fff" d="M253.924 91.7957C275.942 97.6115 299.676 92.4335 303.731 84.8106C306.122 80.3158 301.825 83.8539 298.059 83.6337C294.293 83.4136 288.576 73.8774 284.772 79.5414C280.968 85.2054 281.735 89.852 275.449 89.2142C269.162 88.5765 266.338 83.2997 261.569 87.3237C256.801 91.3477 247.911 90.2089 253.924 91.7957Z"/><path fill="#7F3E3B" d="M146.551 179.011L142.891 175.883L149.808 167.098L153.475 170.226L146.551 179.011Z"/><path fill="#263238" d="M144.258 174.402L148.32 177.75C148.393 177.809 148.442 177.892 148.459 177.984C148.476 178.076 148.459 178.171 148.411 178.252L146.254 182.048C146.198 182.139 146.123 182.217 146.035 182.277C145.946 182.337 145.846 182.378 145.741 182.397C145.635 182.415 145.527 182.411 145.423 182.385C145.319 182.359 145.222 182.311 145.138 182.245C143.703 181.008 141.661 179.208 139.824 177.69C137.675 175.913 137.819 176.171 135.268 174.098C133.75 172.838 134.668 171.008 135.428 171.403C138.89 173.187 139.224 173.4 143.081 173.985C143.504 174.011 143.912 174.156 144.258 174.402Z"/><path fill="#000" d="M149.808 167.106L146.247 171.631L149.906 174.759L153.475 170.226L149.808 167.106Z" opacity=".2"/><path fill="#000" d="M174.278 153.728C199.493 155.558 206 160.5 217.685 156.347L218.786 145.452L203.73 139.75C203.73 139.75 185.568 137.244 171.56 140.98C156.998 144.86 147.09 168.169 147.09 168.169L153.376 172.724C153.376 172.724 158.205 159.293 174.278 153.728Z"/><path fill="#263238" d="M147.424 165.868L145.822 168.852L152.344 174.357L154.591 172.14L147.424 165.868Z"/><path fill="#49AAAA" d="M149.975 229.395L127.501 225.986C125.566 225.69 123.716 224.981 122.079 223.909C120.441 222.836 119.053 221.424 118.008 219.768C116.963 218.112 116.287 216.251 116.024 214.311C115.761 212.371 115.918 210.397 116.484 208.523C117.059 206.649 118.03 204.921 119.331 203.456C120.632 201.991 122.233 200.823 124.025 200.031C125.818 199.238 127.76 198.841 129.719 198.865C131.678 198.89 133.61 199.335 135.382 200.171L155.935 209.882C157.163 210.463 158.14 211.466 158.69 212.708C159.239 213.95 159.323 215.348 158.926 216.647L156.231 225.485C155.829 226.777 154.976 227.882 153.828 228.6C152.68 229.317 151.313 229.599 149.975 229.395Z"/><path fill="#000" d="M149.975 229.395L127.501 225.986C125.566 225.69 123.716 224.981 122.079 223.909C120.441 222.836 119.053 221.424 118.008 219.768C116.963 218.112 116.287 216.251 116.024 214.311C115.761 212.371 115.918 210.397 116.484 208.523C117.059 206.649 118.03 204.921 119.331 203.456C120.632 201.991 122.233 200.823 124.025 200.031C125.818 199.238 127.76 198.841 129.719 198.865C131.678 198.89 133.61 199.335 135.382 200.171L155.935 209.882C157.163 210.463 158.14 211.466 158.69 212.708C159.239 213.95 159.323 215.348 158.926 216.647L156.231 225.485C155.829 226.777 154.976 227.882 153.828 228.6C152.68 229.317 151.313 229.599 149.975 229.395Z" opacity=".4"/><path fill="#49AAAA" d="M142.929 168.996C147.09 169.9 153.164 170.515 154.318 168.434C161.067 156.157 171.021 136.546 173.193 132.157C173.527 131.504 173.117 130.912 172.039 130.449L157.302 124.094C154.219 122.963 150.468 123.958 147.644 125.043C130.31 131.755 98.247 145.543 90.8671 151.086C98.7026 158.253 128.776 165.914 142.929 168.996Z"/><path fill="#000" d="M142.929 168.996C147.09 169.9 153.164 170.515 154.318 168.434C161.067 156.157 171.021 136.546 173.193 132.157C173.527 131.504 173.117 130.912 172.039 130.449L157.302 124.094C154.219 122.963 150.468 123.958 147.644 125.043C130.31 131.755 98.247 145.543 90.8671 151.086C98.7026 158.253 128.776 165.914 142.929 168.996Z" opacity=".2"/><path fill="#49AAAA" d="M269.678 188.152C271.303 188.19 273.072 187.773 271.629 186.254C262.982 177.189 248.981 162.808 245.868 159.62C245.419 159.148 244.849 158.809 244.221 158.64L235.869 156.408C234.282 156.066 234.305 157.235 234.601 158.336C236.431 165.124 240.948 178.593 243.94 183.278C251.502 186.975 264.166 188.015 269.678 188.152Z"/><path fill="#000" d="M269.678 188.152C271.303 188.19 273.072 187.773 271.629 186.254C262.982 177.189 248.981 162.808 245.868 159.62C245.419 159.148 244.849 158.809 244.221 158.64L235.869 156.408C234.282 156.066 234.305 157.235 234.601 158.336C236.431 165.124 240.948 178.593 243.94 183.278C251.502 186.975 264.166 188.015 269.678 188.152Z" opacity=".2"/><path fill="#49AAAA" d="M130.971 128.597C128.625 128.08 126.301 127.602 124.077 127.177L124.221 126.418C126.453 126.843 128.776 127.321 131.13 127.837L130.971 128.597Z"/><path fill="#49AAAA" d="M118.542 126.175C110.365 124.705 102.082 123.913 93.775 123.806C90.436 123.792 87.0992 123.982 83.7833 124.375L83.6922 123.616C87.0389 123.227 90.4058 123.037 93.775 123.046C102.125 123.156 110.451 123.951 118.671 125.423L118.542 126.175Z"/><path fill="#49AAAA" d="M66.7305 131.77C102.598 109.752 199.599 154.054 251.821 165.618C276.071 170.993 261.228 190.718 249.604 193.3C237.979 195.881 95.582 205.448 48.7591 184.189C1.93608 162.93 49.9359 142.096 66.7305 131.77Z"/><path fill="#49AAAA" d="M246.612 193.771C252.771 193.316 258.662 191.073 263.564 187.316C268.465 183.56 272.163 178.454 274.203 172.626C278.167 161.563 280.976 153.644 280.976 153.644C277.875 151.866 274.386 150.873 270.813 150.751C267.24 150.629 263.691 151.383 260.476 152.946L233.606 166.02L246.612 193.771Z"/><path fill="#000" d="M245.314 178.244C247.113 182.731 252.307 188.061 256.141 191.576C260.212 189.937 263.889 187.452 266.93 184.288L245.314 178.244Z" opacity=".2"/><path fill="#fff" d="M260.704 181.79C255.886 182.24 251.047 182.41 246.21 182.298C241.366 182.215 236.522 181.82 231.693 181.327C226.864 180.833 222.058 180.066 217.267 179.246C198.096 175.807 179.35 170.249 160.862 163.902C156.239 162.322 151.622 160.69 146.968 159.043C144.622 158.238 142.329 157.41 139.839 156.651C138.54 156.317 137.257 155.892 135.929 155.649L133.932 155.284C133.27 155.15 132.6 155.054 131.927 154.996C126.498 154.38 121.002 154.793 115.725 156.211C113.122 156.947 110.582 157.894 108.132 159.043C105.696 160.192 103.353 161.53 101.125 163.044L99.4618 164.213L97.8598 165.443L96.3413 166.696C95.9009 167.068 95.453 167.455 94.9898 167.804C93.1828 169.262 91.2847 170.667 89.3562 172.026C85.4778 174.732 81.4555 177.226 77.3069 179.497C73.2508 181.754 69.021 183.683 64.6578 185.267C62.6283 186.008 60.5408 186.58 58.4167 186.975C57.8245 187.082 57.2399 187.165 56.678 187.211C63.0279 189.198 69.5036 190.758 76.0617 191.88C78.2104 190.787 80.2983 189.602 82.3559 188.403C86.743 185.805 90.9812 182.963 95.0506 179.892C97.093 178.373 99.0898 176.756 101.049 175.07C101.535 174.653 102.02 174.212 102.499 173.787L103.79 172.641L105.065 171.585L106.394 170.576C108.186 169.269 110.075 168.099 112.043 167.075C113.995 166.073 116.027 165.232 118.117 164.562C122.314 163.275 126.715 162.788 131.092 163.127C131.642 163.151 132.19 163.212 132.732 163.31L134.372 163.537C135.465 163.72 136.544 164.031 137.629 164.297C139.862 164.889 142.185 165.633 144.539 166.347C149.216 167.812 153.923 169.3 158.645 170.735C177.536 176.475 196.783 181.456 216.447 184.265C221.367 184.933 226.317 185.51 231.253 185.882C236.188 186.254 241.184 186.436 246.172 186.345C251.167 186.283 256.154 185.923 261.106 185.267C263.06 184.999 265.001 184.677 266.93 184.303C268.119 183.094 269.206 181.789 270.179 180.4C267.051 181.008 263.885 181.471 260.704 181.79Z" opacity=".2"/><path fill="#000" d="M175.645 193.771C175.645 193.771 140.036 193.581 106.196 190.354C105.437 190.278 103.258 186.429 100.942 185.472C100.692 188.145 101.163 189.845 99.8187 189.701C80.2452 187.583 56.5414 182.731 47.2937 177.826C42.5864 160.986 32.2074 155.922 32.2074 155.922C25.7234 164.585 27.0597 174.349 48.7591 184.181C95.5821 205.44 237.98 195.874 249.604 193.292L175.645 193.771Z" opacity=".2"/><path fill="#49AAAA" d="M106.204 179.451C105.116 179.456 104.055 179.795 103.166 180.422C102.276 181.05 101.601 181.935 101.23 182.958C100.86 183.982 100.813 185.094 101.096 186.145C101.378 187.196 101.977 188.135 102.81 188.836C126.218 207.68 169.951 237.716 180.785 245.119C182.433 246.237 184.29 247.012 186.244 247.396L212.818 252.552C215.999 253.167 217.26 251.383 215.923 248.831C207.663 233.077 188.636 201.082 177.589 190.225C152.913 181.645 123.317 179.755 106.204 179.451Z"/><path fill="#000" d="M177.437 238.794L105.893 183.194C103.554 181.38 100.145 183.665 101.109 186.459C101.439 187.396 102.029 188.221 102.81 188.836C126.218 207.68 169.951 237.716 180.785 245.119C182.433 246.237 184.29 247.012 186.244 247.397L212.818 252.552C214.412 252.863 215.521 252.552 216.068 251.876L192.189 245.977C186.825 244.637 181.8 242.191 177.437 238.794Z" opacity=".2"/><path fill="#49AAAA" d="M243.211 174.22C242.831 174.271 242.477 174.44 242.197 174.702C241.917 174.964 241.726 175.307 241.65 175.683C241.574 176.058 241.617 176.448 241.773 176.798C241.929 177.149 242.19 177.442 242.52 177.637C251.585 182.951 268.251 191.106 272.381 193.11C273.008 193.411 273.69 193.582 274.386 193.611L283.846 194.029C284.977 194.082 285.326 193.399 284.727 192.586C281.067 187.56 272.844 177.47 268.471 174.281C259.482 172.58 249.148 173.446 243.211 174.22Z"/><path fill="#000" d="M270.901 191.09L243.294 175.526C243.098 175.417 242.873 175.374 242.651 175.401C242.428 175.428 242.22 175.524 242.056 175.677C241.892 175.829 241.78 176.029 241.737 176.249C241.693 176.469 241.72 176.697 241.814 176.9C241.968 177.218 242.214 177.482 242.52 177.659C251.585 182.974 268.251 191.128 272.381 193.133C273.008 193.434 273.69 193.605 274.386 193.634L283.846 194.052C284.047 194.092 284.255 194.076 284.448 194.007C284.64 193.937 284.81 193.816 284.939 193.657L276.367 192.814C274.444 192.628 272.582 192.041 270.901 191.09Z" opacity=".2"/><path fill="#fff" d="M68.5527 130.745C67.9301 131.064 67.3227 131.406 66.7305 131.77C64.4528 133.152 61.6891 134.716 58.6369 136.447C60.0567 140.532 64.5363 145.3 70.2231 149.582L80.7387 141.519C75.4695 138.193 70.9899 134.344 68.5527 130.745Z"/><path fill="#fff" d="M84.4894 143.706L75.1127 152.9C77.5019 154.403 79.979 155.762 82.5305 156.97C83.3162 157.335 84.1685 157.535 85.0347 157.558C85.9008 157.581 86.7625 157.427 87.5665 157.104C88.3705 156.781 89.0997 156.296 89.7092 155.68C90.3187 155.064 90.7955 154.33 91.1101 153.523C91.6881 152.034 91.6831 150.382 91.0961 148.898C90.5092 147.413 89.3835 146.204 87.944 145.513C86.7975 144.943 85.6359 144.336 84.4894 143.706Z"/><path fill="#49AAAA" d="M288.971 171.601C306.836 175.397 352.907 182.989 329.348 154.73C356.605 182.526 327.639 186.725 302.774 188.137C300.459 188.271 298.144 187.88 296.002 186.992C293.86 186.105 291.947 184.744 290.406 183.012C288.588 180.972 286.945 178.783 285.493 176.467C285.165 175.923 285.003 175.294 285.027 174.658C285.052 174.023 285.262 173.408 285.632 172.89C286.002 172.373 286.515 171.975 287.108 171.746C287.702 171.516 288.349 171.466 288.971 171.601Z"/><path fill="#fff" d="M288.971 171.601C306.836 175.397 352.907 182.989 329.348 154.73C356.605 182.526 327.639 186.725 302.774 188.137C300.459 188.271 298.144 187.88 296.002 186.992C293.86 186.105 291.947 184.744 290.406 183.012C288.588 180.972 286.945 178.783 285.493 176.467C285.165 175.923 285.003 175.294 285.027 174.658C285.052 174.023 285.262 173.408 285.632 172.89C286.002 172.373 286.515 171.975 287.108 171.746C287.702 171.516 288.349 171.466 288.971 171.601Z" opacity=".2"/><path fill="#7F3E3B" d="M221.177 85.2661C221.338 86.4536 221.024 87.6566 220.304 88.6144C219.332 89.8748 217.882 89.237 217.351 87.8552C216.872 86.5872 216.796 84.4082 218.163 83.6489C218.462 83.4901 218.795 83.4073 219.133 83.4079C219.471 83.4085 219.804 83.4925 220.102 83.6524C220.4 83.8123 220.654 84.0432 220.842 84.3246C221.029 84.6061 221.145 84.9295 221.177 85.2661Z"/><path fill="#000" d="M221.177 85.2661C221.338 86.4536 221.024 87.6566 220.304 88.6144C219.332 89.8748 217.882 89.237 217.351 87.8552C216.872 86.5872 216.796 84.4082 218.163 83.6489C218.462 83.4901 218.795 83.4073 219.133 83.4079C219.471 83.4085 219.804 83.4925 220.102 83.6524C220.4 83.8123 220.654 84.0432 220.842 84.3246C221.029 84.6061 221.145 84.9295 221.177 85.2661Z" opacity=".2"/><path fill="#263238" d="M218.664 85.7141C215.528 84.4917 218.33 77.8255 221.701 78.0153C222.157 75.3579 226.925 75.2213 230.053 76.9448C232.541 78.3419 234.575 80.4237 235.914 82.9428C238.154 86.6859 241.928 87.0352 241.7 88.3791C241.396 90.1329 237.835 87.673 236.727 88.2424C235.618 88.8118 241.662 90.0266 241.601 91.8564C241.54 93.6862 237.615 91.3629 236.385 90.8618C235.155 90.3607 234.206 91.4009 237.038 93.0636C240.766 95.2427 238.594 96.3512 237.114 95.2427C234.214 93.056 231.131 93.9064 233.378 95.8653C235.626 97.8241 232.999 98.4923 231.26 96.374C229.521 94.2557 228.223 97.8925 224.617 95.0149C221.01 92.1374 219.818 91.12 218.664 85.7141Z"/><path fill="#7F3E3B" d="M161.956 189.367L154.287 197.514L150.575 193.664L158.243 185.525L161.956 189.367Z"/><path fill="#263238" d="M151.888 192.723L156.368 195.464C156.448 195.509 156.508 195.582 156.536 195.669C156.564 195.757 156.558 195.851 156.52 195.934L154.728 199.875C154.683 199.975 154.617 200.065 154.534 200.137C154.452 200.209 154.354 200.263 154.249 200.294C154.143 200.325 154.033 200.333 153.924 200.317C153.815 200.301 153.711 200.262 153.619 200.201C152.017 199.184 151.584 198.751 149.55 197.506C147.173 196.056 145.503 195.813 142.671 194.188C140.955 193.209 141.646 191.303 142.466 191.561C145.085 192.32 149.048 192.784 150.666 192.419C151.097 192.359 151.535 192.467 151.888 192.723Z"/><path fill="#000" d="M161.956 189.375L158 193.573L154.287 189.724L158.235 185.525L161.956 189.375Z" opacity=".2"/><path fill="#263238" d="M188.18 169.93C203.259 161.449 229.749 164.41 229.749 149.066L213.046 143.258C213.046 143.258 191.027 149.013 180.003 158.883C168.531 169.148 155.707 186.216 155.707 186.216L161.098 191.804C161.098 191.804 175.387 181.152 188.18 169.93Z"/><path fill="#fff" d="M155.631 184.386L153.938 187.294L160.619 192.882L162.981 190.741L155.631 184.386Z"/><path fill="#7F3E3B" d="M216.235 107.163C214.572 107.793 212.977 108.279 211.33 108.78C209.682 109.281 208.035 109.699 206.342 110.071C204.63 110.469 202.899 110.778 201.156 110.997C199.253 111.271 197.324 111.325 195.408 111.157H195.219C194.732 111.105 194.267 110.93 193.867 110.648C193.108 110.119 192.484 109.419 192.045 108.605C191.676 107.96 191.419 107.256 191.286 106.525C191.1 105.418 191.08 104.29 191.225 103.177C191.462 101.344 191.905 99.5429 192.546 97.8089C193.125 96.1801 193.797 94.5856 194.558 93.0333C195.317 91.5148 196.076 89.9963 197.018 88.5385C197.25 88.1556 197.615 87.8717 198.044 87.7409C198.472 87.6102 198.933 87.6417 199.34 87.8294C199.746 88.0172 200.07 88.3481 200.248 88.759C200.426 89.1699 200.446 89.6319 200.305 90.057V90.1101C199.842 91.6286 199.356 93.1472 198.954 94.7188C198.552 96.2905 198.149 97.7558 197.853 99.2743C197.547 100.69 197.374 102.131 197.337 103.579C197.32 104.107 197.384 104.635 197.527 105.143C197.565 105.204 197.58 105.31 197.61 105.318C197.641 105.326 197.61 105.394 197.656 105.318C197.623 105.224 197.558 105.143 197.473 105.09L195.955 104.559C197.349 104.532 198.736 104.375 200.1 104.088C201.619 103.799 203.137 103.435 204.656 103.025C206.174 102.615 207.693 102.175 209.249 101.704C210.806 101.233 212.332 100.732 213.805 100.269H213.858C214.766 99.9753 215.752 100.049 216.607 100.473C217.461 100.897 218.116 101.639 218.43 102.54C218.744 103.441 218.694 104.429 218.289 105.293C217.885 106.156 217.158 106.828 216.265 107.163H216.235Z"/><path fill="#7F3E3B" d="M199.113 92.5018L203.806 90.5126L199.903 86.1469C199.903 86.1469 195.515 88.3183 196.608 90.9074L199.113 92.5018Z"/><path fill="#7F3E3B" d="M205.666 87.2326L203.973 85.2206C203.766 84.9708 203.478 84.8008 203.16 84.7399C202.841 84.6789 202.511 84.7308 202.226 84.8865L199.903 86.1469L203.806 90.5125L205.446 89.2446C205.595 89.1291 205.72 88.9847 205.812 88.8199C205.905 88.6551 205.963 88.4733 205.984 88.2854C206.004 88.0976 205.987 87.9075 205.932 87.7266C205.877 87.5457 205.787 87.3777 205.666 87.2326Z"/><path fill="#F0F0F0" d="M216.888 98.7125C212.165 98.0899 204.565 102.615 204.565 102.615C204.629 106.167 205.26 109.686 206.433 113.04C209.315 112.604 212.097 111.658 214.648 110.245C216.06 109.501 222.46 99.4717 216.888 98.7125Z"/><path fill="#fff" d="M216.386 98.6593C222.692 99.2669 228.899 100.649 234.867 102.774C236.236 103.294 237.405 104.237 238.204 105.465C239.002 106.694 239.389 108.145 239.308 109.608C238.716 123.189 236.137 136.611 231.655 149.446C228.982 149.544 217.503 148.428 211.914 146.409C211.299 146.188 211.049 143.478 211.049 143.478C210.059 143.43 209.07 143.583 208.141 143.926C206.245 142.992 204.616 141.595 203.403 139.864C206.144 135.529 207.435 125.575 208.24 117.155C208.331 113.837 208.475 107.808 210.047 104.43C211.474 101.248 212.833 98.386 216.386 98.6593Z"/><path fill="#49AAAA" d="M220.942 108.089C220.843 108.385 220.608 108.575 220.433 108.507C220.259 108.438 220.183 108.158 220.281 107.869C220.38 107.581 220.615 107.383 220.798 107.451C220.98 107.52 221.018 107.823 220.942 108.089Z"/><path fill="#7F3E3B" d="M228.998 91.9248C228.436 95.4932 227.957 99.6843 229.802 102.357C228.193 104.46 224.655 105.971 221.192 106.624C219.173 103.891 219.598 101.431 220.669 100.056C222.749 98.7656 222.574 96.5941 222.597 95.0908L228.998 91.9248Z"/><path fill="#E0E0E0" d="M221.192 106.624C220.786 106.001 220.543 105.285 220.486 104.543C220.486 103.458 218.527 104.058 218.527 104.058C219.183 105.126 220.1 106.009 221.192 106.624Z"/><path fill="#E0E0E0" d="M221.192 106.624C221.322 106.243 221.566 105.91 221.89 105.671C222.215 105.432 222.604 105.299 223.007 105.288C223.957 105.223 224.91 105.374 225.794 105.728C225.794 105.728 223.045 106.791 221.192 106.624Z"/><path fill="#000" d="M227.479 93.299C227.525 93.0712 227.555 92.8435 227.578 92.6233L222.597 95.0984C222.665 96.1385 222.547 97.1825 222.248 98.181C224.571 97.4597 227.099 95.4553 227.479 93.299Z" opacity=".2"/><path fill="#7F3E3B" d="M231.761 87.3237C229.84 91.697 228.929 94.3544 225.831 95.7969C221.162 97.9684 216.402 93.8229 216.986 88.9637C217.51 84.5752 220.57 78.1671 225.596 78.0381C226.709 78.0103 227.811 78.2655 228.799 78.7796C229.787 79.2937 230.628 80.05 231.244 80.9777C231.86 81.9053 232.23 82.9741 232.321 84.084C232.411 85.1939 232.219 86.3085 231.761 87.3237Z"/><path fill="#263238" d="M222.248 78.4633C221.549 81.3332 229.802 82.7682 229.802 82.7682C229.802 82.7682 225.3 90.3607 230.562 90.0342C235.823 89.7078 236.097 83.3832 232.012 79.511C229.142 76.7929 224.298 75.859 222.248 78.4633Z"/><path fill="#263238" d="M219.256 89.48C221.081 89.5585 222.894 89.8128 224.67 90.2392C224.271 90.8797 223.67 91.3695 222.962 91.632C222.255 91.8944 221.48 91.9146 220.76 91.6894C220.509 91.6586 220.267 91.5745 220.051 91.4427C219.835 91.311 219.65 91.1346 219.507 90.9254C219.365 90.7162 219.269 90.4791 219.226 90.2298C219.182 89.9805 219.193 89.7249 219.256 89.48Z"/><path fill="#FF5652" d="M221.944 90.9833C221.169 90.7747 220.348 90.8172 219.598 91.1048C219.906 91.4345 220.315 91.6534 220.76 91.7274C221.532 91.9367 222.35 91.8969 223.098 91.6135C222.794 91.2815 222.388 91.0598 221.944 90.9833Z"/><path fill="#fff" d="M219.423 89.4876C219.41 89.6459 219.447 89.8043 219.529 89.9405C219.611 90.0767 219.733 90.1838 219.879 90.2468C221.052 90.4906 222.243 90.6353 223.44 90.6796C223.633 90.7014 223.829 90.677 224.011 90.6083C224.193 90.5397 224.357 90.4288 224.488 90.2848C222.824 89.8845 221.13 89.618 219.423 89.4876Z"/><path fill="#7F3E3B" d="M232.012 91.2111C231.582 91.6204 231.076 91.9406 230.522 92.153C229.968 92.3654 229.378 92.4659 228.785 92.4486C227.191 92.3879 226.864 90.839 227.699 89.5939C228.534 88.3487 230.19 87.1339 231.594 87.8096C231.899 87.9602 232.161 88.1842 232.358 88.4614C232.555 88.7386 232.679 89.0603 232.721 89.3977C232.762 89.735 232.719 90.0774 232.595 90.3939C232.472 90.7105 232.271 90.9913 232.012 91.2111Z"/><path fill="#263238" d="M225.778 86.1165C225.649 86.4809 225.346 86.7011 225.103 86.6176C224.86 86.5341 224.784 86.1545 224.92 85.79C225.057 85.4256 225.353 85.2054 225.596 85.2965C225.839 85.3876 225.915 85.7521 225.778 86.1165Z"/><path fill="#263238" d="M221.246 84.4082C221.109 84.7726 220.805 84.9928 220.57 84.9017C220.335 84.8106 220.251 84.4461 220.38 84.0817C220.509 83.7173 220.82 83.4895 221.056 83.5806C221.291 83.6717 221.375 84.0437 221.246 84.4082Z"/><path fill="#630F0F" d="M222.741 84.9928C221.861 85.9072 220.86 86.6965 219.765 87.3389C219.938 87.6152 220.169 87.8511 220.442 88.0306C220.714 88.2101 221.022 88.3289 221.344 88.3791L222.741 84.9928Z"/><path fill="#263238" d="M227.472 84.56C227.509 84.5712 227.548 84.5712 227.585 84.56C227.617 84.5567 227.647 84.5466 227.674 84.5305C227.701 84.5144 227.725 84.4926 227.743 84.4667C227.761 84.4408 227.773 84.4113 227.779 84.3802C227.784 84.3492 227.783 84.3173 227.775 84.2867C227.713 83.9271 227.566 83.5876 227.345 83.2969C227.124 83.0062 226.837 82.7728 226.507 82.6163C226.452 82.5963 226.391 82.5986 226.337 82.6227C226.283 82.6468 226.241 82.6908 226.219 82.7454C226.206 82.7727 226.2 82.8023 226.199 82.8322C226.199 82.8622 226.204 82.8919 226.216 82.9196C226.227 82.9474 226.244 82.9725 226.265 82.9934C226.287 83.0144 226.312 83.0307 226.34 83.0415C226.598 83.1709 226.821 83.3582 226.994 83.5888C227.167 83.8194 227.283 84.0869 227.335 84.3702C227.338 84.4113 227.353 84.4506 227.377 84.484C227.401 84.5174 227.434 84.5437 227.472 84.56Z"/><path fill="#263238" d="M220.236 82.009C220.269 82.0251 220.305 82.0334 220.342 82.0334C220.379 82.0334 220.415 82.0251 220.448 82.009C220.671 81.8302 220.934 81.7072 221.214 81.6504C221.494 81.5936 221.783 81.6046 222.058 81.6825C222.086 81.6932 222.116 81.6982 222.145 81.6971C222.175 81.696 222.205 81.6889 222.232 81.6761C222.259 81.6633 222.283 81.6451 222.302 81.6228C222.322 81.6004 222.337 81.5742 222.347 81.5458C222.357 81.518 222.362 81.4882 222.361 81.4584C222.36 81.4285 222.353 81.3992 222.34 81.3722C222.327 81.3452 222.309 81.3211 222.287 81.3014C222.264 81.2816 222.238 81.2666 222.21 81.2573C221.865 81.1516 221.5 81.1309 221.146 81.197C220.791 81.2631 220.458 81.4141 220.175 81.6369C220.15 81.6542 220.129 81.6764 220.113 81.7021C220.098 81.7278 220.087 81.7565 220.083 81.7865C220.079 81.8164 220.081 81.8468 220.089 81.876C220.097 81.9051 220.111 81.9323 220.13 81.9558C220.159 81.984 220.196 82.0026 220.236 82.009Z"/><path fill="#7F3E3B" d="M239.695 108.4C240.121 110.678 240.409 112.804 240.705 115.014C241.001 117.223 241.184 119.432 241.351 121.665C241.518 123.897 241.609 126.152 241.586 128.445C241.592 130.85 241.363 133.251 240.903 135.612L240.865 135.787C240.772 136.233 240.571 136.65 240.28 137.001C239.137 138.346 237.907 139.614 236.598 140.798C235.345 141.952 234.024 143 232.71 144.04C231.397 145.08 230.03 146.021 228.656 146.955C227.282 147.889 225.892 148.762 224.412 149.597C224.026 149.819 223.573 149.892 223.137 149.802C222.702 149.713 222.314 149.467 222.047 149.111C221.78 148.756 221.652 148.315 221.688 147.871C221.723 147.428 221.92 147.013 222.24 146.705L225.664 143.341C226.796 142.218 227.942 141.063 229.028 139.955C231.194 137.794 233.198 135.477 235.026 133.023L234.396 134.412C234.623 132.475 234.687 130.522 234.586 128.574C234.495 126.516 234.335 124.421 234.13 122.325C233.925 120.23 233.652 118.111 233.371 116.001C233.09 113.89 232.771 111.756 232.467 109.706V109.661C232.343 108.723 232.587 107.773 233.149 107.011C233.711 106.25 234.547 105.736 235.48 105.579C236.413 105.421 237.371 105.632 238.152 106.167C238.932 106.702 239.475 107.519 239.665 108.446L239.695 108.4Z"/><path fill="#fff" d="M235.117 102.896C242.254 105.842 241.449 115.947 241.449 115.947C238.845 119.243 235.952 121.816 232.179 122.135C230.151 119.909 229.062 116.984 229.142 113.973C229.172 109.942 229.901 100.747 235.117 102.896Z"/><path fill="#7F3E3B" d="M224.943 145.072L220.084 145.368L222.058 150.873C222.058 150.873 226.431 150.068 226.378 147.677L224.943 145.072Z"/><path fill="#7F3E3B" d="M216.698 149.142L217.715 150.949C217.911 151.298 218.225 151.567 218.6 151.706C218.976 151.845 219.389 151.846 219.765 151.708L222.043 150.873L220.069 145.368L217.358 146.819C217.161 146.926 216.987 147.072 216.847 147.248C216.706 147.424 216.602 147.625 216.541 147.842C216.479 148.058 216.462 148.284 216.488 148.508C216.515 148.731 216.587 148.946 216.698 149.142Z"/><path fill="#49AAAA" d="M229.02 100.269C228.815 101.362 227.897 104.999 223.007 105.288C224.708 105.811 224.791 110.2 224.791 110.2C224.791 110.2 230.106 105.751 230.554 101.78C230.402 100.74 229.02 100.269 229.02 100.269Z"/><path fill="#49AAAA" d="M222.005 98.5075C221.807 99.5704 220.19 101.37 220.486 104.581C218.778 104.088 216.25 106.677 216.25 106.677C216.845 103.861 218.119 101.234 219.962 99.0238C220.597 98.703 221.294 98.5266 222.005 98.5075Z"/></svg>