<svg xmlns="http://www.w3.org/2000/svg" width="577" height="354" fill="none" viewBox="0 0 577 354"><path fill="#F5F5F5" d="M350.046 39.3031L348.692 41.4948C337.31 59.9602 336.611 83.1713 347.613 101.654C349.024 104.035 350.61 106.308 352.359 108.453C364.957 123.916 385.821 132.303 405.857 129.965C417.635 128.584 429.542 123.786 440.975 126.755C455.851 130.629 464.074 145.91 470.597 159.699C477.121 173.488 485.396 188.769 500.28 192.574C509.608 194.956 519.669 192.082 528.038 187.216C550.197 174.35 562.441 148.059 562.234 122.691C562.027 97.3223 550.766 73.093 534.967 53.2816C512.895 25.5231 480.702 4.85747 445.229 0.715706C409.757 -3.42606 371.359 10.5351 350.046 39.3031Z"/><path fill="#F5F5F5" d="M56.6283 129.067C87.7279 129.067 112.939 103.856 112.939 72.7565C112.939 41.657 87.7279 16.4458 56.6283 16.4458C25.5288 16.4458 0.317596 41.657 0.317596 72.7565C0.317596 103.856 25.5288 129.067 56.6283 129.067Z"/><path fill="#455A64" d="M576.549 209.512C576.549 209.633 449.587 209.737 293.002 209.737C136.418 209.737 9.42947 209.633 9.42947 209.512C9.42947 209.392 136.366 209.288 293.002 209.288C449.638 209.288 576.549 209.392 576.549 209.512Z"/><path fill="#263238" d="M207.276 219.461C207.276 219.591 172.158 219.686 128.85 219.686C85.543 219.686 50.4243 219.591 50.4243 219.461C50.4243 219.332 85.5344 219.237 128.85 219.237C172.166 219.237 207.276 219.34 207.276 219.461Z"/><path fill="#263238" d="M177.878 227.098C177.878 227.218 161.001 227.322 140.18 227.322C119.359 227.322 102.481 227.218 102.481 227.098C102.481 226.977 119.359 226.865 140.18 226.865C161.001 226.865 177.878 226.968 177.878 227.098Z"/><path fill="#49AAAA" d="M166.031 163.746C173.236 174.799 187.87 180.391 200.615 176.974C213.36 173.557 223.213 161.373 223.912 148.206C224.611 135.038 216.095 121.88 203.79 117.142C191.486 112.405 176.334 116.4 167.999 126.634C159.663 136.868 158.783 152.52 165.91 163.599"/><path fill="#455A64" d="M118.505 209.581L155.987 163.746L178.051 184.774L231.135 123.907L256.253 113.561L306.083 173.073L323.824 166.179L352.98 191.591L364.258 183.16L397.116 208.934L118.505 209.581Z"/><path fill="#49AAAA" d="M25.3408 315.757C27.1528 318.216 30.518 317.302 32.0711 315.757C33.6243 314.213 34.2197 311.961 34.7805 309.838C36.0489 304.989 37.3173 299.898 36.1697 295.022C35.8851 293.54 35.1986 292.164 34.1851 291.045C33.6702 290.497 33.0211 290.094 32.3022 289.874C31.5832 289.655 30.8195 289.627 30.0865 289.793C28.3608 290.285 27.3599 291.994 26.6351 293.616C24.4806 298.387 23.4137 303.577 23.5115 308.811C23.5632 311.244 23.917 313.79 25.3408 315.766"/><g opacity=".2"><path fill="#000" d="M25.3408 315.757C27.1528 318.216 30.518 317.302 32.0711 315.757C33.6243 314.213 34.2197 311.961 34.7805 309.838C36.0489 304.989 37.3173 299.898 36.1697 295.022C35.8851 293.54 35.1986 292.164 34.1851 291.045C33.6702 290.497 33.0211 290.094 32.3022 289.874C31.5832 289.655 30.8195 289.627 30.0865 289.793C28.3608 290.285 27.3599 291.994 26.6351 293.616C24.4806 298.387 23.4137 303.577 23.5115 308.811C23.5632 311.244 23.917 313.79 25.3408 315.766"/></g><path fill="#49AAAA" d="M32.2092 328.252C35.1086 326.803 38.3958 326.323 41.5885 326.88C43.3318 326.991 44.9875 327.684 46.2912 328.847C47.4819 330.098 47.758 332.35 46.4465 333.48C45.6071 334.098 44.5788 334.403 43.5386 334.343C41.0449 334.343 38.2751 333.998 36.325 335.551C35.2119 336.414 34.4958 337.864 33.1497 338.321C32.4751 338.495 31.7621 338.445 31.119 338.177C30.4758 337.909 29.9376 337.439 29.586 336.837C28.9093 335.608 28.7302 334.165 29.0856 332.807C29.2183 331.858 29.5695 330.953 30.1115 330.162C30.6535 329.372 31.3716 328.718 32.2092 328.252Z"/><path fill="#49AAAA" d="M20.6209 319.459C21.4907 318.262 22.0553 316.871 22.2658 315.406C22.4763 313.942 22.3264 312.448 21.8289 311.055C20.7895 308.266 18.9974 305.82 16.6517 303.988C14.0057 301.746 10.949 300.041 7.65197 298.966C6.37136 298.488 5.00305 298.291 3.63964 298.388C2.96011 298.443 2.30443 298.664 1.72986 299.031C1.1553 299.398 0.679315 299.9 0.343486 300.493C-0.519381 302.305 0.39526 304.436 1.41344 306.179C3.19434 309.244 5.21395 312.164 7.45351 314.912C9.25691 317.129 11.3192 319.295 14.0027 320.253C16.6862 321.211 19.456 321.021 20.8193 319.14"/><path fill="#263238" d="M26.1432 353.464C26.2284 353.091 26.2718 352.709 26.2727 352.325C26.3331 351.463 26.4107 350.462 26.497 349.219C26.6148 347.689 26.8106 346.165 27.0837 344.655C27.4466 342.816 27.9574 341.01 28.611 339.253C29.2348 337.496 30.1064 335.837 31.1996 334.326C32.0993 333.097 33.2605 332.084 34.5993 331.358C35.5137 330.88 36.4982 330.551 37.5158 330.383C37.8974 330.353 38.2757 330.289 38.6462 330.193C38.2619 330.151 37.8742 330.151 37.4899 330.193C36.4398 330.298 35.417 330.59 34.4699 331.056C33.0626 331.766 31.8374 332.791 30.889 334.05C29.738 335.579 28.8219 337.272 28.171 339.072C27.507 340.856 27.0017 342.695 26.6609 344.568C26.4033 346.096 26.2391 347.637 26.1691 349.185C26.1001 350.505 26.0915 351.575 26.0915 352.308C26.0638 352.694 26.0811 353.082 26.1432 353.464Z"/><path fill="#263238" d="M26.2985 351.092C26.323 350.917 26.323 350.74 26.2985 350.565C26.2985 350.168 26.2985 349.702 26.2554 349.055C26.2554 347.752 26.1777 345.854 26.1864 343.516C26.1864 338.839 26.4366 332.376 27.0492 325.266C27.6619 318.156 28.542 311.745 29.3703 307.146C29.5688 305.99 29.7673 304.954 29.9571 304.039C30.1469 303.125 30.2936 302.314 30.4403 301.71C30.587 301.106 30.6733 300.622 30.7596 300.234C30.8085 300.066 30.8346 299.892 30.8372 299.716C30.7604 299.876 30.7024 300.044 30.6646 300.217C30.5611 300.597 30.4317 301.08 30.2677 301.667C30.1038 302.253 29.9053 303.082 29.6982 303.988C29.4911 304.894 29.2668 305.929 29.0511 307.085C27.9006 313.076 27.0768 319.125 26.5833 325.206C25.9793 332.324 25.7808 338.804 25.8671 343.498C25.8671 345.837 25.9965 347.735 26.0828 349.038L26.2122 350.548C26.2163 350.732 26.2453 350.915 26.2985 351.092Z"/><path fill="#263238" d="M26.0224 338.597C26.0663 338.072 26.0663 337.544 26.0224 337.018C25.9361 336.009 25.7636 334.55 25.4357 332.764C25.0365 330.678 24.5208 328.615 23.8911 326.586C23.1377 324.093 22.2092 321.657 21.1127 319.295C19.206 314.948 16.5216 310.986 13.1916 307.603C12.6137 307.022 11.9999 306.477 11.3537 305.972C11.0776 305.748 10.8273 305.524 10.5685 305.342L9.86092 304.885C9.43536 304.576 8.98516 304.301 8.51485 304.065C10.0634 305.23 11.5388 306.49 12.9327 307.836C16.1684 311.25 18.795 315.192 20.6985 319.493C21.7858 321.837 22.7168 324.249 23.4856 326.716C24.1311 328.726 24.6754 330.768 25.1164 332.833C25.4874 334.559 25.7032 336.043 25.8412 337.035C25.8663 337.56 25.9268 338.081 26.0224 338.597Z"/><path fill="#49AAAA" d="M221.212 308.414L202.229 326.025C202.229 326.025 177.947 312.625 174.116 315.533L206.905 353.603L237.632 327.38L221.212 308.414Z"/><path fill="#E0E0E0" d="M213.981 336.371C214.179 336.833 214.2 337.352 214.041 337.829C213.882 338.307 213.554 338.709 213.118 338.96C212.664 339.182 212.142 339.221 211.66 339.068C211.178 338.915 210.773 338.583 210.529 338.14C210.314 337.649 210.289 337.096 210.458 336.588C210.627 336.08 210.978 335.652 211.444 335.387C211.94 335.21 212.486 335.23 212.968 335.444C213.45 335.657 213.831 336.048 214.033 336.535"/><path fill="#263238" d="M206.923 353.603L209.891 351.074L177.326 315.377C177.326 315.377 175.134 314.316 174.099 315.533L206.923 353.603Z"/><path fill="#263238" d="M201.901 325.206C201.719 325.37 202.436 326.37 202.625 327.794C202.815 329.218 202.453 330.383 202.677 330.495C202.902 330.607 203.73 329.399 203.471 327.673C203.212 325.948 202.004 325.05 201.901 325.206Z"/><path fill="#263238" d="M196.775 322.669C196.559 322.781 196.939 323.859 196.698 325.171C196.456 326.483 195.783 327.38 195.947 327.553C196.111 327.725 197.267 326.949 197.543 325.309C197.819 323.67 196.956 322.522 196.775 322.669Z"/><path fill="#263238" d="M190.045 324.524C190.148 324.722 191.305 324.187 191.909 322.798C192.513 321.409 192.167 320.21 191.952 320.279C191.736 320.348 191.65 321.34 191.089 322.444C190.528 323.549 189.907 324.343 190.045 324.524Z"/><path fill="#263238" d="M206.646 321.754C206.543 321.978 207.509 322.617 208.372 323.721C209.235 324.826 209.58 325.939 209.822 325.896C210.063 325.853 210.055 324.498 209.045 323.195C208.036 321.892 206.715 321.487 206.646 321.754Z"/><path fill="#263238" d="M426.41 100.308C425.648 99.8726 424.996 99.2683 424.504 98.5415C424.012 97.8147 423.694 96.9847 423.573 96.1155C423.452 95.2462 423.532 94.3608 423.807 93.5274C424.082 92.694 424.544 91.9348 425.159 91.3081C426.108 90.3331 427.394 89.7118 428.282 88.7195C428.947 87.8001 429.525 86.8208 430.008 85.7944C430.966 84.2446 432.275 82.9419 433.83 81.9916C435.384 81.0413 437.14 80.47 438.956 80.3238C442.619 80.0851 446.242 81.1997 449.138 83.456C450.294 84.3189 451.381 85.363 452.779 85.7426C454.177 86.1223 455.549 85.803 456.947 85.803C458.617 85.7949 460.26 86.2275 461.709 87.0572C463.158 87.8869 464.363 89.0844 465.202 90.5287C466.04 91.9729 466.483 93.6129 466.485 95.283C466.487 96.953 466.048 98.5941 465.213 100.04C467.023 100.698 468.542 101.972 469.504 103.64C470.467 105.307 470.81 107.261 470.474 109.156C470.138 111.052 469.144 112.768 467.667 114.003C466.19 115.238 464.325 115.913 462.4 115.908C460.045 115.908 457.818 114.882 455.661 113.95C446.888 110.16 437.707 107.395 428.3 105.709"/><path fill="#49AAAA" d="M464.721 158.439C469.248 153.282 471.817 146.696 471.978 139.836C472.116 133.045 470.891 124.58 466.594 119.317C469.476 116.09 468.199 112.578 466.042 108.833C463.884 105.088 460.096 102.56 456.188 100.705C450.348 97.9448 443.998 96.4314 437.541 96.261C432.295 96.1316 425.323 97.1239 424.676 100.92C423.994 104.872 426.583 106.59 426.583 106.59C422.957 107.864 419.659 109.927 416.927 112.63C410.473 119.015 408.022 125.409 409.006 132.476C409.99 139.542 411.595 145.022 415.909 149.44"/><path fill="#455A64" d="M420.266 157.645C419.523 156.918 418.614 156.383 417.617 156.084H417.816C417.631 156.046 417.443 156.026 417.255 156.023C416.915 155.94 416.562 155.929 416.217 155.99C415.872 156.051 415.544 156.183 415.253 156.377C414.147 156.842 413.255 157.704 412.751 158.793C412.365 159.755 412.25 160.805 412.421 161.828C412.591 162.85 413.04 163.807 413.717 164.591C414.208 165.324 414.911 165.889 415.732 166.21C416.553 166.531 417.453 166.593 418.31 166.387C419.167 166.181 419.941 165.717 420.527 165.058C421.112 164.4 421.482 163.577 421.587 162.702C421.814 161.816 421.812 160.887 421.581 160.003C421.35 159.118 420.898 158.307 420.266 157.645Z"/><path fill="#AB6E65" d="M462.607 181.435L464.281 127.074C464.277 125.75 463.777 124.476 462.879 123.503C461.981 122.53 460.751 121.929 459.432 121.819L431.225 115.365C422.225 114.623 416.496 125.814 416.133 134.84C415.728 144.866 415.633 157.128 416.996 164.574C419.723 179.545 431.285 181.193 431.285 181.193C431.285 181.193 431.596 191.616 431.786 197.078L433.839 218.918L462.607 181.435Z"/><path fill="#263238" d="M419.628 147.274C419.637 147.776 419.841 148.255 420.197 148.609C420.553 148.964 421.033 149.165 421.535 149.172C421.78 149.187 422.026 149.153 422.257 149.071C422.489 148.989 422.702 148.861 422.883 148.695C423.064 148.53 423.21 148.329 423.312 148.105C423.414 147.882 423.47 147.64 423.476 147.395C423.472 146.892 423.271 146.41 422.916 146.054C422.561 145.698 422.081 145.494 421.578 145.488C421.332 145.475 421.086 145.511 420.855 145.594C420.623 145.678 420.41 145.806 420.229 145.972C420.047 146.138 419.901 146.339 419.798 146.563C419.694 146.786 419.637 147.028 419.628 147.274Z"/><path fill="#263238" d="M418.938 141.121C419.179 141.363 420.663 140.259 422.691 140.207C424.719 140.155 426.306 141.173 426.531 140.914C426.634 140.794 426.384 140.345 425.668 139.879C424.755 139.28 423.679 138.979 422.588 139.016C421.51 139.035 420.467 139.397 419.611 140.052C419.024 140.552 418.817 141.009 418.938 141.121Z"/><path fill="#263238" d="M439.06 147.282C439.066 147.784 439.268 148.263 439.623 148.617C439.978 148.972 440.457 149.174 440.958 149.181C441.204 149.193 441.45 149.157 441.681 149.074C441.913 148.991 442.126 148.862 442.307 148.696C442.489 148.53 442.635 148.329 442.738 148.106C442.842 147.882 442.899 147.64 442.908 147.395C442.901 146.893 442.699 146.414 442.345 146.06C441.99 145.705 441.511 145.503 441.01 145.496C440.763 145.481 440.517 145.516 440.284 145.598C440.051 145.68 439.838 145.809 439.656 145.975C439.474 146.142 439.327 146.344 439.225 146.568C439.122 146.793 439.066 147.036 439.06 147.282Z"/><path fill="#263238" d="M439.327 141.044C439.577 141.294 441.053 140.181 443.081 140.181C445.108 140.181 446.696 141.139 446.92 140.88C447.024 140.768 446.774 140.319 446.058 139.853C445.144 139.254 444.068 138.953 442.977 138.99C441.9 139.017 440.858 139.382 440 140.034C439.413 140.474 439.189 140.932 439.327 141.044Z"/><path fill="#263238" d="M432.148 156.593C432.148 156.472 430.862 156.282 428.774 156.058C428.239 156.015 427.739 155.928 427.635 155.566C427.581 155.019 427.693 154.469 427.955 153.987C428.429 152.693 428.912 151.338 429.43 149.923C431.475 144.133 432.942 139.378 432.709 139.292C432.476 139.206 430.629 143.839 428.584 149.647L427.178 153.737C426.858 154.384 426.776 155.123 426.945 155.825C427.024 156.006 427.143 156.167 427.292 156.297C427.441 156.427 427.617 156.522 427.808 156.575C428.09 156.645 428.38 156.679 428.671 156.679C430.845 156.731 432.148 156.713 432.148 156.593Z"/><path fill="#7C4B43" d="M431.277 181.159C438.351 181.104 445.272 179.088 451.269 175.334C451.269 175.334 446.618 185.766 431.553 184.705L431.277 181.159Z"/><path fill="#7C4B43" d="M432.571 161.52C433.021 160.823 433.634 160.246 434.357 159.84C435.08 159.434 435.892 159.211 436.721 159.19C437.263 159.185 437.797 159.312 438.278 159.56C438.759 159.808 439.173 160.17 439.483 160.614C439.828 161.128 440.009 161.736 440 162.356C439.992 162.976 439.794 163.578 439.434 164.083C439.074 164.587 438.568 164.97 437.985 165.179C437.401 165.389 436.768 165.416 436.169 165.256C435.006 164.904 433.944 164.28 433.071 163.435C432.797 163.231 432.568 162.973 432.398 162.676C432.317 162.51 432.279 162.326 432.29 162.142C432.3 161.957 432.359 161.779 432.459 161.623"/><path fill="#263238" d="M438.326 157.887C437.99 157.887 438.041 160.13 436.152 161.77C434.262 163.409 431.837 163.219 431.837 163.496C431.837 163.642 432.381 163.918 433.399 163.927C434.716 163.912 435.986 163.435 436.989 162.581C437.969 161.766 438.589 160.597 438.715 159.328C438.706 158.422 438.438 157.87 438.326 157.887Z"/><path fill="#263238" d="M438.369 135.444C438.585 135.996 440.647 135.685 443.089 135.927C445.531 136.169 447.507 136.79 447.826 136.264C447.964 136.022 447.611 135.496 446.8 134.969C445.732 134.311 444.521 133.917 443.27 133.822C442.022 133.704 440.762 133.881 439.595 134.339C438.715 134.719 438.274 135.176 438.369 135.444Z"/><path fill="#263238" d="M419.567 135.099C419.939 135.565 421.354 135.038 423.071 134.978C424.788 134.917 426.255 135.228 426.574 134.728C426.721 134.486 426.479 134.011 425.832 133.58C424.97 133.055 423.966 132.81 422.959 132.881C421.949 132.918 420.977 133.271 420.18 133.891C419.585 134.382 419.395 134.874 419.567 135.099Z"/><path fill="#49AAAA" d="M429.309 119.671C429.309 119.671 443.4 119.041 454.539 134.641C461.882 144.927 463.755 158.051 463.755 158.051L468.458 132.829L464.04 121.569L454.134 116.34L435.617 115.848L428.714 119.507"/><path fill="#49AAAA" d="M456.973 120.162C434.357 115.417 416.625 123.381 413.829 141.078L408.989 129.628L420.206 115.218L432.89 111.516L458.776 114.666L456.973 120.162Z"/><path fill="#455A64" d="M467.137 156.317C466.332 155.515 465.342 154.923 464.255 154.591H464.471C464.272 154.547 464.07 154.521 463.867 154.513C463.5 154.428 463.12 154.418 462.75 154.483C462.379 154.548 462.025 154.688 461.71 154.893C460.522 155.391 459.562 156.314 459.018 157.481C458.603 158.519 458.481 159.65 458.666 160.751C458.85 161.853 459.333 162.883 460.062 163.729C460.595 164.507 461.353 165.105 462.234 165.444C463.115 165.783 464.078 165.846 464.995 165.625C465.913 165.404 466.742 164.91 467.373 164.208C468.003 163.505 468.406 162.628 468.527 161.692C468.763 160.752 468.76 159.766 468.517 158.827C468.274 157.888 467.8 157.025 467.137 156.317Z"/><path fill="#fff" d="M461.624 148.456C461.98 148.4 462.319 148.264 462.616 148.059C463.455 147.539 464.143 146.807 464.609 145.936C465.352 144.626 465.544 143.074 465.144 141.622C464.937 140.828 464.618 140.052 464.462 139.24C464.359 138.851 464.354 138.443 464.447 138.051C464.541 137.66 464.73 137.297 464.997 136.997C465.632 136.411 466.354 135.928 467.137 135.565C467.912 135.153 468.596 134.59 469.148 133.908C470.055 132.743 470.579 131.327 470.649 129.852C470.704 128.869 470.523 127.887 470.123 126.988C469.998 126.662 469.804 126.367 469.553 126.125C470.061 127.302 470.285 128.582 470.209 129.861C470.089 131.225 469.567 132.522 468.708 133.589C468.193 134.204 467.559 134.709 466.844 135.073C466 135.463 465.222 135.984 464.54 136.617C464.211 136.989 463.979 137.437 463.863 137.919C463.747 138.402 463.752 138.906 463.876 139.387C464.057 140.25 464.393 141.061 464.601 141.812C464.969 143.12 464.83 144.519 464.212 145.729C463.81 146.562 463.219 147.289 462.487 147.852C461.908 148.249 461.563 148.404 461.624 148.456Z"/><path fill="#fff" d="M464.609 117.772C465.083 118.878 465.343 120.064 465.377 121.267C465.374 122.556 465.016 123.819 464.342 124.917C463.617 126.177 462.236 127.048 460.89 128.144C460.179 128.678 459.591 129.357 459.164 130.137C458.792 130.897 458.651 131.749 458.759 132.588C458.931 134.132 459.441 135.401 459.38 136.488C459.398 137.354 459.09 138.194 458.517 138.843C458.095 139.284 457.715 139.335 457.741 139.396C457.767 139.456 457.836 139.396 458.008 139.396C458.254 139.326 458.481 139.202 458.673 139.033C459.015 138.71 459.29 138.321 459.479 137.89C459.669 137.459 459.77 136.994 459.777 136.522C459.898 135.314 459.406 133.986 459.285 132.553C459.209 131.821 459.341 131.083 459.665 130.422C460.061 129.726 460.595 129.118 461.235 128.636C462.538 127.592 464.04 126.625 464.808 125.227C465.509 124.032 465.853 122.661 465.8 121.276C465.773 120.354 465.552 119.449 465.153 118.618C465.036 118.3 464.85 118.011 464.609 117.772Z"/><path fill="#fff" d="M449.121 128.921C449.121 128.921 449.302 129.145 449.733 129.041C449.988 128.971 450.212 128.82 450.372 128.61C450.586 128.331 450.696 127.986 450.682 127.635C450.682 126.876 450.26 126.099 450.199 125.314C450.139 124.529 450.795 123.812 451.658 123.346C452.588 122.931 453.405 122.297 454.039 121.5C454.536 120.827 454.859 120.041 454.98 119.213C455.157 118.461 455.056 117.67 454.695 116.987C454.706 117.703 454.659 118.418 454.557 119.127C454.382 119.866 454.053 120.56 453.59 121.163C452.981 121.876 452.217 122.44 451.356 122.811C450.872 123.067 450.443 123.416 450.096 123.838C449.752 124.262 449.588 124.804 449.638 125.348C449.768 126.358 450.234 127.074 450.251 127.652C450.286 127.884 450.248 128.121 450.141 128.33C450.034 128.539 449.864 128.709 449.656 128.817C449.354 128.964 449.138 128.869 449.121 128.921Z"/><path fill="#fff" d="M444.478 116.823C444.478 116.823 444.332 116.823 444.168 116.953C444.067 117.07 443.992 117.208 443.949 117.357C443.905 117.506 443.895 117.662 443.918 117.815C444.016 118.212 444.149 118.598 444.315 118.972C444.445 119.382 444.463 119.82 444.366 120.24C444.144 121.043 443.736 121.782 443.176 122.397C442.753 122.906 442.485 123.26 442.546 123.312C442.606 123.364 442.968 123.148 443.486 122.699C444.216 122.1 444.736 121.284 444.97 120.37C445.089 119.837 445.047 119.282 444.85 118.773C444.665 118.434 444.498 118.085 444.349 117.729C444.274 117.422 444.32 117.097 444.478 116.823Z"/><path fill="#fff" d="M421.776 109.282C421.776 109.282 421.828 109.523 422.044 109.886C422.26 110.248 422.622 110.749 422.959 111.344C423.342 112.058 423.432 112.894 423.209 113.674C422.865 114.698 422.656 115.762 422.588 116.84C422.606 117.961 422.958 119.052 423.597 119.973C424.126 120.711 424.832 121.305 425.651 121.698C426.363 122.126 427.205 122.282 428.024 122.138C427.273 121.92 426.545 121.631 425.849 121.276C425.135 120.867 424.526 120.297 424.072 119.61C423.524 118.77 423.225 117.792 423.209 116.789C423.276 115.758 423.465 114.738 423.77 113.751C423.881 113.301 423.9 112.832 423.826 112.374C423.751 111.916 423.586 111.478 423.338 111.085C423.011 110.596 422.645 110.134 422.242 109.704C421.932 109.437 421.82 109.264 421.776 109.282Z"/><path fill="#fff" d="M411.396 120.102C411.31 120.206 412.078 120.533 412.388 121.629C412.535 122.199 412.837 122.88 413.061 123.597C413.273 124.438 413.562 125.259 413.924 126.047C414.335 126.762 414.92 127.36 415.625 127.787C416.329 128.214 417.131 128.456 417.954 128.489C418.628 128.581 419.312 128.414 419.869 128.023C419.243 128.057 418.615 128.057 417.988 128.023C417.262 127.937 416.566 127.684 415.955 127.282C415.344 126.881 414.835 126.343 414.468 125.711C414.117 124.959 413.829 124.18 413.605 123.381C413.32 122.613 413.001 122.009 412.794 121.448C412.633 120.978 412.332 120.568 411.931 120.275C411.577 120.128 411.413 120.076 411.396 120.102Z"/><path fill="#fff" d="M409.852 135.202C409.783 135.202 409.852 135.582 410.171 136.065C410.625 136.665 411.275 137.087 412.008 137.257C412.741 137.427 413.511 137.335 414.183 136.997C414.684 136.729 414.899 136.445 414.848 136.384C414.796 136.324 413.614 136.997 412.147 136.66C410.68 136.324 409.947 135.107 409.852 135.202Z"/><path fill="#fff" d="M435.065 106.65C435.004 106.745 435.703 107.09 436.359 108.056C436.781 108.67 437.048 109.377 437.137 110.116C437.225 110.856 437.133 111.606 436.868 112.302C436.406 113.09 436.14 113.978 436.091 114.89C436.153 115.652 436.455 116.374 436.954 116.953C437.774 117.91 438.482 118.238 438.516 118.186C438.551 118.135 437.972 117.643 437.299 116.694C436.9 116.167 436.666 115.533 436.626 114.873C436.715 114.047 436.98 113.25 437.403 112.535C437.756 111.67 437.834 110.718 437.627 109.808C437.465 109.078 437.141 108.394 436.678 107.806C436.302 107.235 435.727 106.823 435.065 106.65Z"/><path fill="#fff" d="M449.543 117.065C449.707 116.996 449.207 115.667 449.155 113.967C449.103 112.267 449.466 110.904 449.293 110.852C449.121 110.8 448.43 112.146 448.543 113.993C448.655 115.839 449.388 117.151 449.543 117.065Z"/><path fill="#fff" d="M459.898 115.322C459.898 115.322 459.768 115.166 459.63 114.873C459.442 114.451 459.388 113.981 459.475 113.527C459.656 112.353 460.787 111.007 461.727 109.299C462.189 108.48 462.483 107.576 462.59 106.641C462.671 105.86 462.525 105.072 462.167 104.372C461.933 103.889 461.544 103.497 461.063 103.259C460.709 103.121 460.493 103.164 460.493 103.198C460.493 103.233 460.674 103.285 460.951 103.475C461.335 103.749 461.634 104.125 461.813 104.562C462.331 105.64 462.133 107.392 461.227 109.014C460.321 110.636 459.199 112.077 459.087 113.475C459.021 114.011 459.157 114.552 459.466 114.994C459.682 115.304 459.898 115.348 459.898 115.322Z"/><path fill="#fff" d="M445.428 108.971C445.428 108.971 445.333 108.781 445.091 108.522C444.747 108.221 444.506 107.82 444.401 107.375C444.521 106.712 444.854 106.106 445.35 105.649C445.885 105.045 446.601 104.484 447.326 103.802C448.093 103.19 448.629 102.335 448.845 101.378C448.875 100.578 448.658 99.7886 448.223 99.1171C447.913 98.4876 447.471 97.9317 446.929 97.4863C447.179 98.1219 447.485 98.7341 447.844 99.3156C448.168 99.9281 448.32 100.617 448.284 101.309C448.044 102.12 447.558 102.838 446.894 103.362C445.54 104.622 443.961 105.856 443.969 107.435C444.111 107.969 444.455 108.427 444.927 108.712C445.229 108.902 445.393 109.006 445.428 108.971Z"/><path fill="#fff" d="M431.423 106.9C431.012 106.551 430.712 106.089 430.56 105.571C430.441 105.013 430.495 104.432 430.716 103.906C431.005 103.226 431.355 102.574 431.76 101.956C432.2 101.292 432.494 100.542 432.623 99.7556C432.689 99.0788 432.521 98.3998 432.148 97.8314C431.57 96.8305 430.742 96.6752 430.75 96.7787C431.177 97.1174 431.522 97.548 431.76 98.0385C432.03 98.5368 432.135 99.1075 432.062 99.6693C431.898 100.375 431.605 101.045 431.199 101.645C430.772 102.294 430.419 102.989 430.146 103.716C429.927 104.357 429.927 105.052 430.146 105.692C430.285 106.127 430.564 106.503 430.94 106.762C431.242 106.9 431.423 106.943 431.423 106.9Z"/><path fill="#263238" d="M426.6 106.59C427.174 106.645 427.752 106.645 428.326 106.59C429.43 106.538 431.026 106.59 432.985 106.633C438.102 106.862 443.155 107.863 447.973 109.601C452.763 111.442 457.359 113.755 461.693 116.504L465.645 118.989C466.111 119.323 466.608 119.612 467.129 119.852C466.715 119.454 466.264 119.096 465.783 118.782C464.92 118.126 463.574 117.211 461.926 116.133C457.628 113.26 453.016 110.886 448.18 109.057C443.31 107.288 438.183 106.329 433.002 106.218C431.439 106.189 429.875 106.241 428.317 106.374C427.739 106.394 427.165 106.467 426.6 106.59Z"/><path fill="#263238" d="M462.487 119.412C462.433 119.401 462.381 119.384 462.331 119.36L461.908 119.196L461.227 118.92L460.269 118.592C458.239 117.909 456.137 117.466 454.005 117.272C450.839 116.988 447.651 117.098 444.513 117.6C442.735 117.859 440.898 118.247 438.991 118.696C437.084 119.144 435.142 119.679 433.184 120.352C425.28 122.898 419.283 128.118 416.651 132.812C415.6 134.674 414.827 136.68 414.356 138.766C414.183 139.508 414.08 140.086 414.011 140.492C414.011 140.673 413.95 140.819 413.924 140.94C413.93 140.989 413.93 141.038 413.924 141.087C413.924 141.087 413.924 141.035 413.924 140.932C413.924 140.828 413.924 140.664 413.976 140.483C414.04 139.903 414.135 139.327 414.261 138.757C414.682 136.642 415.427 134.605 416.47 132.717C419.058 127.911 425.098 122.622 433.106 120.05C435.073 119.377 437.041 118.851 438.947 118.402C440.854 117.953 442.71 117.539 444.496 117.315C447.662 116.823 450.878 116.739 454.065 117.065C456.213 117.277 458.327 117.758 460.355 118.497L461.296 118.859L461.969 119.17L462.383 119.369C462.409 119.377 462.487 119.403 462.487 119.412Z"/><path fill="#263238" d="M433.071 120.309C433.232 120.292 433.394 120.292 433.555 120.309C434.023 120.333 434.489 120.382 434.952 120.456C436.655 120.733 438.315 121.232 439.888 121.94C445.048 124.39 449.543 128.045 452.995 132.596C454.882 135.089 456.55 137.739 457.982 140.517C459.195 142.754 460.278 145.059 461.227 147.42C461.877 149.012 462.408 150.651 462.814 152.321C462.944 152.917 463.039 153.383 463.082 153.702C463.116 153.861 463.136 154.023 463.142 154.185C463.085 154.031 463.041 153.873 463.013 153.711C462.952 153.4 462.832 152.943 462.676 152.356C462.223 150.708 461.664 149.091 461.002 147.515C460.028 145.155 458.925 142.851 457.698 140.612C456.256 137.861 454.59 135.231 452.719 132.752C449.296 128.24 444.863 124.593 439.776 122.104C438.228 121.386 436.6 120.856 434.927 120.525C434.331 120.421 433.865 120.352 433.546 120.318C433.388 120.327 433.229 120.324 433.071 120.309Z"/><path fill="#AB6E65" d="M309.759 236.123L320.605 229.315L338.769 232.715L352.393 244.7L374.828 252.958L373.784 272.26C373.784 272.26 338.501 252.587 335.723 250.783C332.944 248.98 327.655 243.44 327.655 243.44L320.588 241.611H312.261C311.542 240.523 310.696 239.523 309.742 238.634C308.767 237.892 309.759 236.123 309.759 236.123Z"/><path fill="#7C4B43" d="M333.419 240.481C332.978 240.305 332.556 240.085 332.159 239.825C331.374 239.376 330.252 238.72 328.906 237.909H328.984L321.917 237.141L321.313 237.072H321.373C318.146 237.555 315.256 237.935 313.167 238.246L310.691 238.556C310.389 238.608 310.082 238.626 309.776 238.608C310.055 238.503 310.344 238.428 310.639 238.384L313.09 237.944C315.169 237.581 318.06 237.081 321.278 236.624H321.339L321.943 236.693L328.992 237.556H329.035C330.364 238.418 331.451 239.1 332.211 239.601C332.642 239.853 333.046 240.148 333.419 240.481Z"/><path fill="#7C4B43" d="M334.195 236.123C333.684 235.947 333.19 235.725 332.72 235.459C331.797 235.001 330.485 234.328 328.915 233.5H328.984L321.986 232.715L320.139 232.49H320.234C317.292 233.56 314.686 234.492 312.814 235.148L310.596 235.89C310.319 235.999 310.029 236.071 309.733 236.106C309.973 235.951 310.231 235.826 310.501 235.735L312.667 234.872C314.513 234.156 317.102 233.146 320.044 232.076H320.105L321.951 232.292L328.941 233.155C330.502 234.018 331.788 234.734 332.677 235.243C333.211 235.484 333.72 235.779 334.195 236.123Z"/><path fill="#E0E0E0" d="M267.375 175.869L290.949 237.4C291.038 237.633 291.175 237.846 291.35 238.024C291.525 238.202 291.735 238.342 291.967 238.436L353.317 262.976C353.595 263.087 353.897 263.127 354.196 263.093C354.494 263.059 354.779 262.952 355.026 262.781C355.273 262.61 355.474 262.381 355.61 262.114C355.747 261.847 355.816 261.55 355.81 261.25C355.807 260.894 355.7 260.547 355.502 260.251C355.304 259.956 355.025 259.724 354.697 259.585L295.013 234.518L271.482 174.204C271.392 173.977 271.257 173.77 271.084 173.597C270.912 173.424 270.706 173.287 270.479 173.196C270.252 173.105 270.009 173.061 269.765 173.067C269.521 173.072 269.28 173.127 269.058 173.229L268.333 173.548C267.904 173.736 267.565 174.083 267.387 174.516C267.208 174.948 267.204 175.433 267.375 175.869Z"/><path fill="#263238" d="M205.223 311.4C205.223 311.4 277.212 252.569 280.862 249.334C284.512 246.098 290.577 242.431 299.896 241.637C309.215 240.843 410.473 291.036 410.473 291.036L431.139 335.56C431.139 335.56 417.825 352.817 393.466 347.304C369.668 341.911 354.697 330.909 343.238 320.555C332.806 311.158 300.802 286.04 300.802 286.04L228.201 337.545L205.223 311.4Z"/><path fill="#455A64" d="M300.794 272.26C301.014 274.554 301.089 276.86 301.018 279.163C301.095 281.466 301.023 283.772 300.802 286.066C300.57 283.773 300.493 281.467 300.569 279.163C300.498 276.86 300.573 274.554 300.794 272.26Z"/><path fill="#49AAAA" d="M401.223 260.793C401.511 253.262 402.832 245.806 405.149 238.634C408.937 227.279 429.059 201.272 429.059 201.272L430.008 196.509C430.008 196.509 452.227 181.331 457.275 178.803C462.323 176.275 465.852 176.335 465.852 176.335L466.516 181.262C466.516 181.262 478.596 193.282 479.364 205.975C479.977 216.113 479.304 246.469 479.304 246.469L476.292 353.24C476.292 353.24 406.547 353.421 400.049 352.921C393.552 352.42 394.061 350.142 394.061 350.142L402.086 284.478L401.223 260.793Z"/><path fill="#49AAAA" d="M459.199 189.106C453.709 193.098 448.615 197.609 443.987 202.575C435.574 211.402 412.449 249.429 412.449 249.429L373.456 247.245C372.786 247.158 372.109 247.329 371.561 247.723C371.013 248.118 370.635 248.706 370.505 249.368C369.323 255.313 366.769 270.534 370.453 276.557C375.087 284.133 380.549 282.873 380.549 282.873C380.549 282.873 419.662 286.817 425.133 282.951C430.604 279.085 462.357 239.902 467.819 226.45C473.281 212.998 479.804 188.7 459.199 189.106Z"/><path fill="#263238" d="M467.819 226.45C467.819 226.45 467.75 226.632 467.595 226.985C467.439 227.339 467.189 227.848 466.879 228.556C466.568 229.263 466.102 230.074 465.576 231.049L464.713 232.62L463.643 234.346C460.623 239.281 455.877 246.21 449.561 254.519C446.403 258.678 442.874 263.148 438.973 267.946C437.015 270.327 434.97 272.778 432.812 275.254C431.725 276.488 430.629 277.748 429.465 278.99C428.895 279.612 428.317 280.242 427.696 280.846C427.098 281.48 426.461 282.077 425.789 282.632L425.288 283.063C425.098 283.184 424.883 283.296 424.684 283.408C424.274 283.591 423.85 283.741 423.416 283.857C422.549 284.088 421.667 284.256 420.775 284.357C418.998 284.59 417.186 284.703 415.357 284.763C411.698 284.892 407.953 284.823 404.139 284.685C396.52 284.409 388.608 283.822 380.531 283.063H380.6C378.728 283.293 376.834 282.866 375.242 281.855C373.609 280.847 372.205 279.51 371.117 277.929C370.251 276.76 369.594 275.449 369.176 274.055C368.802 272.669 368.562 271.25 368.46 269.818C368.26 267.016 368.288 264.202 368.546 261.405C368.771 258.644 369.124 255.917 369.573 253.251C369.797 251.914 370.039 250.593 370.298 249.273C370.448 248.563 370.86 247.936 371.451 247.515C372.043 247.095 372.771 246.912 373.49 247.004L412.44 249.273L412.268 249.368C420.801 235.139 428.162 223.577 433.58 215.716C436.307 211.782 438.499 208.744 440.121 206.777C440.898 205.767 441.571 205.051 442.002 204.559C442.433 204.068 442.684 203.835 442.684 203.835C442.684 203.835 442.477 204.102 442.045 204.603C441.614 205.103 440.967 205.828 440.207 206.846C438.611 208.831 436.454 211.894 433.762 215.837C428.395 223.75 421.086 235.347 412.587 249.575L412.535 249.679H412.44L373.447 247.522C372.838 247.444 372.221 247.598 371.72 247.955C371.22 248.312 370.872 248.844 370.746 249.446C370.488 250.757 370.246 252.078 370.022 253.406C369.582 256.073 369.228 258.782 369.003 261.535C368.753 264.306 368.727 267.094 368.926 269.87C369.025 271.27 369.259 272.657 369.625 274.012C370.026 275.359 370.66 276.627 371.497 277.756C372.548 279.285 373.906 280.578 375.484 281.553C376.978 282.505 378.754 282.914 380.514 282.709H380.592C388.677 283.486 396.572 284.055 404.174 284.34C407.979 284.478 411.707 284.547 415.391 284.435C417.212 284.366 419.015 284.271 420.775 284.038C421.649 283.937 422.514 283.773 423.364 283.546C424.201 283.382 424.975 282.988 425.599 282.407C426.259 281.872 426.884 281.296 427.471 280.682C428.084 280.086 428.671 279.465 429.197 278.844C430.353 277.61 431.449 276.359 432.536 275.125C434.699 272.645 436.759 270.218 438.715 267.842C442.623 263.088 446.17 258.601 449.328 254.459C455.661 246.176 460.459 239.281 463.513 234.38L464.601 232.654L465.463 231.093C466.007 230.126 466.499 229.324 466.801 228.625L467.552 227.072C467.724 226.623 467.819 226.45 467.819 226.45Z"/><path fill="#263238" d="M420.206 265.84C419.869 265.01 419.581 264.16 419.343 263.295C418.039 259.205 416.205 255.304 413.89 251.689C413.376 250.958 412.901 250.201 412.466 249.42C413.119 250.051 413.698 250.755 414.192 251.517C415.428 253.292 416.514 255.168 417.436 257.125C418.357 259.071 419.111 261.092 419.688 263.165C419.96 264.035 420.134 264.932 420.206 265.84Z"/><path fill="#263238" d="M413.907 265.987C413.797 265.172 413.751 264.35 413.769 263.528C413.769 262.009 413.64 259.912 413.45 257.609C413.26 255.305 413.001 253.225 412.794 251.724C412.64 250.918 412.548 250.102 412.518 249.282C412.801 250.055 412.997 250.856 413.105 251.672C413.467 253.625 413.73 255.595 413.89 257.574C414.06 259.551 414.126 261.535 414.088 263.519C414.11 264.346 414.049 265.172 413.907 265.987Z"/><path fill="#263238" d="M382.507 283.408C382.343 282.969 382.218 282.515 382.136 282.054C381.912 281.191 381.644 279.905 381.36 278.317C380.615 274.18 380.151 269.997 379.971 265.797C379.798 261.598 379.905 257.393 380.29 253.208C380.445 251.603 380.6 250.309 380.747 249.42C380.794 248.953 380.88 248.491 381.006 248.039C381.014 248.507 380.986 248.974 380.92 249.437C380.833 250.3 380.721 251.629 380.609 253.234C380.002 261.588 380.358 269.984 381.67 278.257C381.921 279.845 382.136 281.122 382.3 282.01C382.407 282.47 382.476 282.938 382.507 283.408Z"/><path fill="#263238" d="M466.542 181.262C466.412 181.356 466.27 181.432 466.119 181.486L464.885 182.047C463.815 182.53 462.297 183.264 460.433 184.248C455.636 186.893 451.024 189.86 446.627 193.126C441.45 196.863 436.877 200.34 433.408 202.704L433.27 202.799L433.184 202.661C432.053 200.815 431.406 199.21 430.854 198.157C430.586 197.622 430.371 197.208 430.215 196.94C430.124 196.807 430.051 196.662 430 196.509C430.111 196.624 430.21 196.751 430.293 196.889C430.474 197.147 430.716 197.553 431.009 198.071C431.613 199.106 432.312 200.659 433.451 202.48H433.227C436.678 200.064 441.208 196.543 446.36 192.799C450.763 189.526 455.407 186.59 460.252 184.015C462.133 183.057 463.703 182.367 464.782 181.926L466.05 181.443C466.204 181.358 466.37 181.297 466.542 181.262Z"/><g opacity=".3"><path fill="#000" d="M430.56 277.653L430.491 277.739C428.809 279.755 426.71 281.383 424.339 282.51C421.967 283.638 419.38 284.238 416.755 284.271L402.086 284.478C406.4 286.394 410.991 288.793 415.659 289.604C420.327 290.415 425.392 290.035 429.465 287.559C433.02 285.376 435.505 281.812 437.809 278.361C445.704 266.703 453.634 254.977 459.423 242.12C449.595 253.89 440.371 265.909 430.56 277.653Z"/></g><g opacity=".3"><path fill="#000" d="M430.336 196.992L433.132 205.923L457.629 185.611L433.356 202.575L430.336 196.992Z"/></g><path fill="#263238" d="M470.925 219.789C470.925 219.789 471.063 219.228 471.314 218.227C471.666 216.812 471.892 215.368 471.987 213.913C472.13 211.758 471.932 209.595 471.4 207.502C470.734 204.955 469.495 202.593 467.776 200.599C466.068 198.584 463.855 197.06 461.365 196.181C459.321 195.499 457.148 195.298 455.014 195.594C453.573 195.799 452.176 196.243 450.881 196.906C449.966 197.38 449.509 197.769 449.483 197.7C449.577 197.594 449.684 197.501 449.802 197.424C450.118 197.178 450.45 196.953 450.795 196.751C452.083 196.011 453.495 195.514 454.962 195.284C457.152 194.933 459.394 195.107 461.503 195.793C464.076 196.671 466.364 198.231 468.121 200.306C469.885 202.362 471.144 204.803 471.797 207.433C472.319 209.571 472.491 211.78 472.306 213.973C472.162 215.436 471.873 216.882 471.443 218.288C471.288 218.788 471.158 219.168 471.055 219.427C471.027 219.552 470.983 219.674 470.925 219.789Z"/><path fill="#263238" d="M407.03 284.504C407.051 284.737 407.051 284.971 407.03 285.203C407.03 285.704 406.944 286.368 406.883 287.205C406.754 288.931 406.53 291.442 406.236 294.539C405.649 300.726 404.726 309.268 403.648 318.7C402.569 328.131 401.637 336.613 400.938 342.86C400.602 345.914 400.334 348.399 400.144 350.177C400.049 351.04 399.972 351.67 399.911 352.162C399.893 352.394 399.859 352.625 399.808 352.852C399.787 352.619 399.787 352.385 399.808 352.153C399.808 351.661 399.894 350.997 399.955 350.16C400.084 348.434 400.308 345.923 400.602 342.825C401.188 336.639 402.112 328.096 403.19 318.665C404.269 309.234 405.201 300.743 405.9 294.505C406.236 291.45 406.504 288.957 406.694 287.188C406.788 286.325 406.866 285.695 406.918 285.194C406.936 284.962 406.974 284.731 407.03 284.504Z"/><path fill="#263238" d="M433.149 202.1C433.051 202.254 432.938 202.399 432.812 202.532L431.803 203.722C430.94 204.758 429.698 206.311 428.239 208.209C424.468 213.265 421.01 218.547 417.885 224.026C414.687 229.46 411.918 235.134 409.601 240.998C408.9 242.772 408.363 244.606 407.996 246.478C407.883 247.165 407.82 247.86 407.807 248.557C407.764 248.382 407.741 248.202 407.738 248.022C407.718 247.497 407.747 246.971 407.824 246.452C408.125 244.551 408.619 242.686 409.299 240.886C411.535 234.967 414.275 229.252 417.488 223.801C420.62 218.308 424.122 213.036 427.972 208.02C429.473 206.104 430.75 204.611 431.665 203.61C432.114 203.101 432.528 202.747 432.735 202.471C432.854 202.328 432.994 202.203 433.149 202.1Z"/><g opacity=".3"><path fill="#000" d="M479.347 247.185C479.399 245.399 479.071 242.137 477.336 241.749C474.67 241.145 468.216 250.145 466.879 252.526C459.268 266.065 457.171 276.54 456.386 289.992C455.601 303.444 453.573 316.594 448.845 329.209C444.116 341.824 432.951 351.954 419.585 353.085L476.292 353.24C477.155 319.64 478.45 280.785 479.347 247.185Z"/></g><path fill="#263238" d="M7.21191 353.309C7.21191 353.188 131.051 353.085 283.769 353.085C436.488 353.085 560.353 353.188 560.353 353.309C560.353 353.43 436.54 353.533 283.769 353.533C130.999 353.533 7.21191 353.43 7.21191 353.309Z"/><path fill="#455A64" d="M536.529 238.142C536.529 238.142 499.598 237.417 489.753 238.142C479.399 238.902 473.531 244.277 473.255 252.811C473.126 256.659 468.647 341.781 470.054 346.423C472.573 354.776 482.074 353.326 488.226 353.326H547.764C552.466 350.151 553.735 343.516 553.424 332.126C553.113 320.736 555.038 262.234 555.271 253.95C555.814 236.373 536.529 238.142 536.529 238.142Z"/><path fill="#263238" d="M484.679 349.107H485.309H487.156L494.257 349.055L520.394 348.848C525.916 348.796 531.965 348.736 538.453 348.589C540.067 348.529 541.732 348.529 543.38 348.339C544.203 348.25 545.008 348.04 545.771 347.718C546.537 347.406 547.203 346.89 547.695 346.225C548.178 345.529 548.475 344.721 548.558 343.878C548.635 343.015 548.558 342.152 548.627 341.246C548.678 339.469 548.736 337.665 548.799 335.836C549.041 328.536 549.291 320.874 549.429 312.918C549.489 308.949 549.576 304.894 549.429 300.838C549.429 300.329 549.429 299.811 549.334 299.311L549.256 298.552L549.084 297.827C548.792 296.863 548.284 295.978 547.6 295.238C546.157 293.763 544.331 292.72 542.328 292.227H499.098C497.217 292.227 495.353 292.227 493.507 292.14C489.839 292.002 486.224 291.692 482.833 292.391C481.165 292.663 479.625 293.454 478.432 294.651C477.369 295.894 476.734 297.446 476.62 299.078C476.12 305.593 475.852 311.693 475.628 317.25C475.404 322.807 475.326 327.846 475.395 332.264C475.455 334.473 475.499 336.535 475.732 338.407C475.773 338.866 475.842 339.321 475.939 339.771C475.99 339.986 476.025 340.211 476.068 340.418L476.275 341.039C476.539 341.809 476.892 342.544 477.328 343.231C478.066 344.39 478.98 345.426 480.037 346.303C480.805 346.948 481.628 347.526 482.496 348.028C483.028 348.344 483.575 348.632 484.136 348.891L484.714 349.159C484.511 349.096 484.312 349.021 484.119 348.934C483.546 348.676 482.988 348.388 482.445 348.072C481.567 347.566 480.733 346.989 479.951 346.346C478.874 345.469 477.939 344.429 477.181 343.265C476.732 342.569 476.367 341.822 476.094 341.039C476.025 340.832 475.956 340.625 475.878 340.409C475.801 340.194 475.792 339.969 475.74 339.754C475.642 339.297 475.567 338.837 475.516 338.373C475.274 336.483 475.214 334.421 475.145 332.212C475.05 327.786 475.145 322.721 475.317 317.181C475.49 311.641 475.757 305.524 476.249 298.983C476.365 297.269 477.031 295.638 478.148 294.332C479.398 293.077 481.009 292.242 482.755 291.942C486.207 291.226 489.865 291.536 493.524 291.666C495.362 291.761 497.226 291.744 499.107 291.744H542.431C544.522 292.259 546.426 293.35 547.928 294.893C548.66 295.682 549.201 296.63 549.507 297.663L549.697 298.439L549.774 299.225C549.843 299.742 549.852 300.26 549.869 300.778C550.016 304.894 549.93 308.941 549.869 312.918C549.722 320.874 549.464 328.545 549.213 335.845C549.15 337.668 549.087 339.469 549.023 341.246C549.023 342.109 549.024 342.972 548.954 343.913C548.89 344.816 548.593 345.687 548.092 346.441C547.561 347.166 546.838 347.728 546.003 348.063C545.206 348.4 544.362 348.618 543.501 348.71C541.775 348.909 540.162 348.891 538.54 348.952C532.042 349.09 525.994 349.124 520.48 349.159L494.335 349.219H487.234H485.387C484.921 349.124 484.679 349.107 484.679 349.107Z"/><path fill="#263238" d="M549.179 350.565C549.179 350.565 549.248 350.324 549.395 349.875C549.622 349.204 549.8 348.518 549.93 347.821C550.376 345.134 550.664 342.423 550.792 339.702C551.008 336.164 551.129 331.824 551.138 326.759C551.138 325.499 551.138 324.17 551.138 322.85C551.138 321.53 551.086 320.115 551.138 318.682C551.138 315.826 551.224 312.798 551.276 309.622C551.465 296.929 551.698 281.812 551.957 265.021C551.957 262.927 551.989 260.804 552.052 258.653C552.097 256.495 551.806 254.344 551.189 252.276C550.547 250.182 549.355 248.299 547.738 246.823C546.928 246.068 546.026 245.419 545.054 244.89C544.044 244.41 542.973 244.07 541.87 243.88C539.617 243.452 537.336 243.181 535.045 243.069C532.733 242.923 530.403 242.871 528.039 242.871L513.698 242.603C508.848 242.534 504.068 242.482 499.348 242.482C496.993 242.482 494.646 242.482 492.333 242.552C491.168 242.552 490.012 242.603 488.882 242.69C488.304 242.69 487.751 242.784 487.156 242.854C486.602 242.965 486.055 243.106 485.516 243.276C483.368 243.919 481.424 245.108 479.873 246.728C478.363 248.318 477.368 250.327 477.017 252.492C476.569 256.806 476.422 261.12 476.154 265.34C475.766 273.727 475.404 281.691 475.067 289.155C474.731 296.619 474.351 303.556 474.04 309.864C473.73 316.171 473.436 321.944 473.177 326.974C473.048 329.494 472.936 331.841 472.824 333.998C472.712 336.155 472.548 338.131 472.634 339.892C472.76 342.614 473.262 345.306 474.127 347.89C474.411 348.753 474.679 349.435 474.86 349.875C475.041 350.315 475.145 350.548 475.145 350.548C475.024 350.335 474.915 350.116 474.817 349.892C474.618 349.461 474.342 348.796 474.04 347.916C473.138 345.332 472.607 342.633 472.461 339.9C472.358 338.114 472.53 336.147 472.608 333.99C472.686 331.832 472.815 329.485 472.927 326.966C473.16 321.927 473.419 316.189 473.712 309.847C474.291 297.162 474.972 282.054 475.732 265.279C475.956 261.086 476.103 256.797 476.594 252.397C476.955 250.145 477.986 248.055 479.554 246.4C481.159 244.734 483.169 243.512 485.387 242.854C485.953 242.674 486.529 242.53 487.113 242.422C487.7 242.344 488.286 242.267 488.838 242.249C489.995 242.163 491.151 242.146 492.29 242.103C494.62 242.103 496.958 242.034 499.322 242.034C504.042 242.034 508.814 242.086 513.68 242.155L528.021 242.422C530.377 242.422 532.733 242.482 535.054 242.629C537.371 242.74 539.678 243.014 541.957 243.449C543.1 243.642 544.209 243.996 545.253 244.502C546.258 245.052 547.191 245.724 548.031 246.503C549.706 248.032 550.942 249.98 551.612 252.147C552.235 254.257 552.526 256.452 552.475 258.653C552.44 260.804 552.406 262.93 552.371 265.029C552.078 281.812 551.811 296.955 551.586 309.622C551.534 312.798 551.474 315.818 551.422 318.682C551.422 320.115 551.422 321.495 551.422 322.85V326.759C551.422 331.806 551.241 336.155 550.999 339.702C550.845 342.426 550.522 345.137 550.033 347.821C549.896 348.518 549.703 349.202 549.455 349.866C549.274 350.341 549.179 350.565 549.179 350.565Z"/><path fill="#263238" d="M482.272 300.018C482.364 300.01 482.456 300.01 482.548 300.018H483.411H486.75L499.314 299.967L543.018 299.863H543.199V300.044C544.235 307.81 545.356 316.163 546.521 324.878V325.128H543.838L480.503 325.059H480.339V324.895C480.909 317.19 481.366 310.968 481.685 306.663C481.841 304.549 481.97 302.9 482.056 301.761C482.056 301.218 482.143 300.795 482.16 300.493C482.177 300.191 482.212 300.079 482.212 300.079C482.212 300.079 482.212 300.234 482.212 300.528C482.212 300.821 482.212 301.27 482.143 301.822C482.074 302.969 481.97 304.626 481.841 306.766C481.565 311.08 481.159 317.241 480.667 324.886L480.512 324.722L543.846 324.653H546.271L546.047 324.904C544.89 316.197 543.777 307.802 542.75 300.079L542.966 300.26L499.4 300.165L486.785 300.105H483.411H482.548L482.272 300.018Z"/><path fill="#263238" d="M501.126 306.637H492.765V344.974H501.126V306.637Z"/><path fill="#263238" d="M536.305 306.637H528.108V346.26H536.305V306.637Z"/><path fill="#455A64" d="M502.455 239.782C501.704 237.124 502.851 232.879 504.819 231.041C506.04 230.045 507.558 229.484 509.133 229.445C513.732 228.953 518.409 228.668 523.034 228.582C524.672 228.46 526.314 228.757 527.806 229.445C528.694 229.962 529.461 230.663 530.056 231.5C530.652 232.338 531.061 233.294 531.257 234.303C531.562 235.991 531.626 237.713 531.447 239.419L527.995 239.204C528.145 237.824 528.107 236.431 527.883 235.062C527.79 234.535 527.589 234.032 527.292 233.587C526.995 233.141 526.608 232.762 526.157 232.473C525.178 232.083 524.117 231.938 523.068 232.05C518.556 232.111 513.991 232.387 509.496 232.87C508.656 232.868 507.833 233.104 507.123 233.552C506.548 234.293 506.128 235.143 505.89 236.051C505.651 236.958 505.598 237.904 505.733 238.833L502.455 239.782Z"/><path fill="#fff" d="M535.244 262.311H493.507V274.46H535.244V262.311Z"/><path fill="#263238" d="M334.782 326.612C334.523 326.966 333.859 344.732 332.194 345.888C330.528 347.045 321.088 350.833 320.976 352.489V352.981L356.043 353.145V349.435L334.023 350.298C334.023 350.298 336.862 349.055 336.862 347.062C336.862 345.069 336.508 331.289 336.629 330.823C336.75 330.357 334.782 326.612 334.782 326.612Z"/><path fill="#455A64" d="M346.043 311.736C346.043 311.736 339.036 314.903 336.611 320.365C334.187 325.827 334.342 330.771 334.454 335.31C334.566 339.848 338.449 354.043 353.196 353.111H354.74V307.292H347.259V311.141L346.043 311.736Z"/><path fill="#455A64" d="M361.229 311.736C361.229 311.736 368.244 314.903 370.66 320.365C373.076 325.827 372.93 330.771 372.826 335.31C372.722 339.848 368.822 354.043 354.076 353.111H352.54V307.292H360.021V311.141L361.229 311.736Z"/><path fill="#E0E0E0" d="M348.778 298.457H358.08C358.464 298.457 358.833 298.609 359.105 298.881C359.376 299.153 359.529 299.522 359.529 299.906V306.015H347.328V299.906C347.328 299.522 347.481 299.153 347.753 298.881C348.025 298.609 348.393 298.457 348.778 298.457Z"/><path fill="#E0E0E0" d="M360.435 305.472H346.742C346.303 305.472 345.948 305.827 345.948 306.266V306.939C345.948 307.377 346.303 307.733 346.742 307.733H360.435C360.874 307.733 361.229 307.377 361.229 306.939V306.266C361.229 305.827 360.874 305.472 360.435 305.472Z"/><path fill="#455A64" d="M360.383 305.472C355.979 305.771 351.56 305.771 347.156 305.472C351.56 305.173 355.979 305.173 360.383 305.472Z"/><path fill="#F5F5F5" d="M172.839 312.099L139.558 293.133L81.1251 314.42L33.9867 353.145H206.526L172.839 312.099Z"/><path fill="#E0E0E0" d="M33.9867 353.145L93.8006 318.372L172.839 312.099L138.23 291.606L81.1251 314.42L33.9867 353.145Z"/><path fill="#E0E0E0" d="M120.541 353.24L149.861 333.403L177.136 331.461L154.322 336.526L142.932 353.145L120.541 353.24Z"/><path fill="#263238" d="M178.068 331.047C177.359 331.206 176.637 331.301 175.911 331.332L169.949 331.867L149.887 333.42L150.06 333.36L146.781 335.612C139.429 340.651 132.75 345.172 127.893 348.425L122.129 352.239L120.541 353.24C120.17 353.464 119.971 353.577 119.954 353.551C119.937 353.525 120.109 353.387 120.455 353.119L121.965 352.006L127.608 348.003C132.388 344.646 139.015 340.056 146.367 335.016L149.654 332.764L149.74 332.713H149.835L169.923 331.401L175.894 331.082C176.617 331.013 177.344 331.002 178.068 331.047Z"/><path fill="#263238" d="M172.736 311.969C172.736 311.969 172.951 312.202 173.348 312.668L175.126 314.773L181.96 322.919L207.207 353.119L207.423 353.37H207.078H66.1285H33.9694H33.3568L33.8314 352.973L80.8662 314.446L137.815 291.511H137.876H137.936L163.546 306.585L170.32 310.597L172.045 311.633C172.434 311.866 172.624 311.995 172.624 311.995L172.02 311.659L170.294 310.649L163.477 306.697L137.902 291.726H138.048L81.0992 314.773H81.151C66.8188 326.526 50.9506 339.529 34.1506 353.344L34.0039 352.947H66.163L207.112 353.119L206.992 353.37L181.856 323.048L175.091 314.851L173.366 312.711C172.926 312.263 172.736 311.969 172.736 311.969Z"/><path fill="#263238" d="M257.806 83.1713C257.806 83.2317 256.848 82.8434 255.079 82.4551C252.577 81.9081 249.997 81.8087 247.46 82.1617C243.693 82.6547 240.137 84.1875 237.192 86.5882C233.586 89.5286 231.04 93.5681 229.944 98.0903V98.2197L229.737 99.0394L229.417 98.2628C227.66 93.9699 224.635 90.3154 220.746 87.7876C217.574 85.7232 213.926 84.5052 210.15 84.2499C207.606 84.0671 205.05 84.3032 202.582 84.9488C200.857 85.4061 199.907 85.8117 199.89 85.7599C200.096 85.6294 200.316 85.5223 200.546 85.4406C201.189 85.1645 201.849 84.9311 202.522 84.7417C205.612 83.8295 208.861 83.5886 212.052 84.035C215.243 84.4815 218.301 85.605 221.022 87.3303C225.021 89.8975 228.133 93.6331 229.935 98.0299L229.409 98.073V97.9436C230.53 93.3089 233.154 89.1762 236.873 86.1913C239.898 83.7559 243.55 82.2245 247.408 81.7734C249.989 81.447 252.608 81.605 255.131 82.2394C255.812 82.4055 256.481 82.6188 257.133 82.8779C257.365 82.9558 257.59 83.054 257.806 83.1713Z"/><path fill="#263238" d="M320.709 23.1071C320.331 23.6044 319.922 24.0771 319.484 24.5222C318.371 25.7969 317.367 27.1621 316.481 28.6036C313.535 33.3603 311.989 38.8508 312.02 44.4458C312.02 44.5148 312.02 44.5839 312.02 44.6443L311.476 44.696C310.623 39.2055 308.07 34.1206 304.176 30.1567C302.543 28.5519 300.761 27.1072 298.852 25.8424C299.008 25.8865 299.156 25.9533 299.292 26.0409C299.56 26.1962 299.983 26.3946 300.483 26.7311C301.915 27.6394 303.246 28.6981 304.452 29.8892C308.504 33.8493 311.16 39.0184 312.02 44.6184L311.468 44.6702V44.4631C311.42 38.7585 313.049 33.1657 316.153 28.3792C317.077 26.938 318.14 25.5912 319.328 24.3583C319.734 23.9182 320.096 23.6162 320.329 23.4005C320.443 23.2875 320.571 23.189 320.709 23.1071Z"/><path fill="#263238" d="M156.117 52.7897C156.117 52.8415 155.582 52.6431 154.607 52.4446C153.235 52.1652 151.826 52.1214 150.439 52.3152C148.39 52.6049 146.46 53.4493 144.856 54.7571C142.894 56.3597 141.51 58.5594 140.913 61.0215V61.0905L140.706 61.9534L140.387 61.1682C139.429 58.8298 137.783 56.8378 135.667 55.456C133.942 54.3282 131.958 53.6572 129.903 53.5059C128.51 53.4009 127.11 53.5144 125.753 53.8424C124.795 54.084 124.277 54.2911 124.26 54.248C124.243 54.2048 124.372 54.1617 124.614 54.0495C124.967 53.8897 125.33 53.7514 125.701 53.6353C127.066 53.2156 128.494 53.0403 129.92 53.1176C132.066 53.2195 134.148 53.8798 135.96 55.0332C138.183 56.4518 139.912 58.5221 140.913 60.9611H140.387V60.8921C141.007 58.3121 142.467 56.0113 144.537 54.3515C146.223 53.0056 148.253 52.1622 150.396 51.9182C151.826 51.7467 153.276 51.8492 154.667 52.2202C155.043 52.3197 155.412 52.4437 155.772 52.5913C156.005 52.7121 156.169 52.7725 156.117 52.7897Z"/></svg>