<svg xmlns="http://www.w3.org/2000/svg" width="515" height="326" fill="none" viewBox="0 0 515 326"><path fill="#E0E0E0" d="M99.452 20.0349H27.5437V124.268H99.452V20.0349Z"/><path fill="#F5F5F5" d="M95.8465 20.0349H23.9381V124.268H95.8465V20.0349Z"/><path fill="#fff" d="M86.9186 31.322H32.8737V112.973H86.9186V31.322Z"/><path fill="#E0E0E0" d="M86.9187 112.981C86.9187 112.981 86.9187 112.84 86.9187 112.581C86.9187 112.323 86.9187 111.923 86.9187 111.421C86.9187 110.395 86.9187 108.89 86.9187 106.946C86.9187 103.027 86.9186 97.3282 86.8638 90.1248C86.8638 75.7259 86.8168 55.3307 86.7776 31.3377L86.9578 31.518H32.9208L33.1167 31.322C33.1167 62.1265 33.1167 90.5245 33.1167 112.981L32.96 112.824L72.3003 112.903L83.1641 112.942H86.0173H87.0049H86.0486H83.2268H72.3943L32.96 113.02H32.8032V112.864C32.8032 90.407 32.8032 62.0089 32.8032 31.2045V31.0085H33.007H87.0441H87.2243V31.3299C87.2243 55.3934 87.1538 75.8199 87.1381 90.2502C87.1381 97.4379 87.0989 103.121 87.0833 107.024C87.0833 108.96 87.0833 110.449 87.0833 111.468C87.0833 111.962 87.0833 112.346 87.0833 112.605C87.0833 112.864 86.9187 112.981 86.9187 112.981Z"/><path fill="#E0E0E0" d="M96.0581 20.0349C95.6864 20.7014 95.2562 21.3336 94.7726 21.9239C93.9417 23.037 92.7503 24.5576 91.4021 26.2036C90.054 27.8497 88.7842 29.2998 87.8436 30.3344C87.3709 30.9189 86.8462 31.4593 86.2759 31.9491C86.6819 31.3133 87.1407 30.7128 87.6476 30.1541L91.1121 25.9528L94.561 21.728C95.0112 21.1222 95.512 20.5559 96.0581 20.0349Z"/><path fill="#fff" d="M87.193 112.715C89.8766 116.975 93.0319 120.919 96.5989 124.472Z"/><path fill="#E0E0E0" d="M96.6224 124.503C96.0193 124.068 95.4672 123.566 94.9764 123.006C93.7232 121.732 92.5355 120.395 91.4178 119.001C90.1167 117.363 89.0271 115.803 88.2825 114.651C87.8542 114.043 87.4867 113.394 87.1851 112.715C87.6699 113.274 88.1127 113.869 88.5098 114.494C89.2936 115.607 90.4223 117.128 91.7157 118.75C93.009 120.373 94.2631 121.799 95.1723 122.818C95.6954 123.345 96.18 123.908 96.6224 124.503Z"/><path fill="#fff" d="M23.9303 124.182L33.3362 112.566Z"/><path fill="#E0E0E0" d="M33.3519 112.566C31.9331 114.62 30.4105 116.6 28.79 118.499C27.2735 120.48 25.6512 122.377 23.9303 124.182C25.349 122.128 26.8716 120.147 28.4921 118.249C30.0086 116.268 31.6309 114.371 33.3519 112.566Z"/><path fill="#E0E0E0" d="M23.9381 20.0349C25.563 21.7789 27.0911 23.6106 28.5157 25.5217C30.0412 27.3464 31.4648 29.254 32.7797 31.2358C31.1576 29.4915 29.6321 27.6599 28.21 25.749C26.6823 23.9241 25.2562 22.0165 23.9381 20.0349Z"/><path fill="#E0E0E0" d="M70.082 47.9H51.9834V99.2799H70.082V47.9Z"/><path fill="#E0E0E0" d="M196.404 4.84431V50.4944H130.844L128.485 5.16568L196.404 4.84431Z"/><path fill="#fff" d="M128.477 5.16568V50.3925L194.037 50.3925V5.16568L128.477 5.16568Z"/><path fill="#E0E0E0" d="M194.35 50.7061H128.171V4.85217H194.35V50.7061ZM128.799 50.0869H193.731V5.46356H128.799V50.0869Z"/><path fill="#fff" d="M186.943 10.7857H135.586V44.7725H186.943V10.7857Z"/><path fill="#E0E0E0" d="M186.943 10.7857H185.955H183.133H172.552L135.586 10.9503L135.735 10.8014C135.735 21.1871 135.735 32.6937 135.735 44.7882L135.579 44.6314H186.935L186.802 44.7568C186.802 34.4181 186.857 25.945 186.872 20.0271C186.872 17.0799 186.872 14.7754 186.872 13.1921C186.872 12.4082 186.872 11.8125 186.872 11.3971C186.872 10.9817 186.872 10.77 186.872 10.77C186.872 10.77 186.872 10.966 186.872 11.3658C186.872 11.7655 186.872 12.3691 186.872 13.1372C186.872 14.7049 186.872 17.0093 186.912 19.9487C186.912 25.8744 186.951 34.3868 186.974 44.7568V44.8901H186.849H135.492H135.328V44.7255C135.328 32.631 135.328 21.1244 135.328 10.7387V10.6368H135.477L172.544 10.7073L183.094 10.7544H185.885H186.833L186.943 10.7857Z"/><path fill="#E0E0E0" d="M128.485 5.04027C128.89 5.23511 129.269 5.48 129.614 5.76923C130.28 6.2552 131.181 6.94497 132.185 7.7288C133.188 8.51262 134.035 9.29645 134.646 9.82162C134.996 10.1055 135.311 10.4291 135.586 10.7857C134.338 9.9124 133.134 8.97581 131.981 7.97962C130.754 7.07495 129.587 6.09318 128.485 5.04027Z"/><path fill="#E0E0E0" d="M194.044 5.1657C192.966 6.2264 191.814 7.20869 190.596 8.10505C189.443 9.08343 188.222 9.97922 186.943 10.7857C188.021 9.72503 189.174 8.74274 190.392 7.84639C191.543 6.86591 192.764 5.97 194.044 5.1657Z"/><path fill="#fff" d="M193.99 50.4004L186.676 44.4746Z"/><path fill="#E0E0E0" d="M186.676 44.4746C187.991 45.3369 189.248 46.2848 190.439 47.3121C191.69 48.2607 192.877 49.2925 193.99 50.4004C192.673 49.5432 191.419 48.5951 190.235 47.5629C188.978 46.6182 187.789 45.5862 186.676 44.4746Z"/><path fill="#E0E0E0" d="M128.485 50.3925C129.55 49.3448 130.69 48.3755 131.895 47.4924C133.035 46.5225 134.242 45.6346 135.508 44.8352C134.446 45.889 133.307 46.8611 132.098 47.7432C130.959 48.7122 129.752 49.5976 128.485 50.3925Z"/><path fill="#E0E0E0" d="M146.011 21.3752V32.7564H178.329V21.3752H146.011Z"/><path fill="#EBEBEB" d="M463.501 209.392C463.501 209.392 457.614 206.649 452.997 220.444C448.381 234.239 447.009 242.007 447.009 242.007C447.009 242.007 445.684 244.954 443.576 243.473C441.467 241.991 438.199 237.39 435.197 238.77C432.195 240.149 431.552 243.974 432.971 249.218C434.389 254.462 437.078 266.055 437.313 267.105C437.548 268.156 437.18 269.762 435.589 268.986C433.997 268.21 424.262 260.176 420.696 265.012C417.13 269.849 423.51 283.824 424.176 285.345C424.842 286.866 424.631 287.618 423.925 288.127C423.22 288.637 420.218 285.627 417.357 283.425C414.496 281.222 410.804 279.239 408.993 282.202C407.183 285.165 408.123 296.209 421.19 312.418L427.735 319.528L437.243 317.56C457.332 312.113 464.575 303.726 464.849 300.261C465.123 296.797 460.93 296.264 457.363 296.342C453.797 296.42 449.572 297.087 449.306 296.256C449.039 295.425 449.306 294.688 450.732 293.904C452.159 293.12 465.507 285.478 465.492 279.482C465.476 273.486 452.88 274.285 451.132 273.995C449.384 273.705 450.042 272.153 450.834 271.455C451.626 270.758 460.624 262.935 464.849 259.526C469.074 256.116 470.877 252.738 469.183 249.767C467.49 246.796 462.207 248.701 459.636 248.662C457.066 248.623 457.716 245.456 457.716 245.456C457.716 245.456 461.165 238.401 465.554 224.489C469.944 210.576 463.375 209.376 463.375 209.376"/><path fill="#E0E0E0" d="M426.496 321.495C429.741 311.305 435.808 293.316 440.942 277.836C446.076 262.355 450.709 248.348 454.009 238.19C455.647 233.111 456.971 229.003 457.928 226.15C458.39 224.739 458.712 223.634 458.994 222.874C459.114 222.513 459.208 222.231 459.276 222.027C459.339 221.831 459.378 221.737 459.378 221.737C459.378 221.737 459.378 221.839 459.299 222.035C459.221 222.231 459.158 222.521 459.049 222.89C458.813 223.673 458.476 224.763 458.037 226.182C457.16 229.043 455.866 233.165 454.236 238.253C450.991 248.442 446.398 262.457 441.264 277.93C436.129 293.403 430.023 311.399 426.724 321.558"/><path fill="#E0E0E0" d="M439.516 245.378C439.646 245.571 439.759 245.775 439.853 245.989C440.057 246.389 440.331 246.984 440.637 247.713C441.303 249.179 442.204 251.225 443.074 253.498C443.944 255.771 444.767 257.77 445.426 259.322C445.7 260.019 445.943 260.615 446.131 261.085C446.238 261.294 446.317 261.515 446.366 261.744C446.236 261.55 446.123 261.346 446.029 261.132C445.825 260.733 445.551 260.145 445.245 259.408C444.595 257.934 443.756 255.881 442.847 253.608C441.938 251.335 441.123 249.344 440.495 247.8L439.774 246.036C439.661 245.828 439.574 245.607 439.516 245.378Z"/><path fill="#E0E0E0" d="M447.283 261.775C447.244 261.697 451.383 259.737 456.525 257.386C461.667 255.034 465.852 253.2 465.931 253.278C466.009 253.357 461.823 255.316 456.681 257.66C451.54 260.004 447.283 261.861 447.283 261.775Z"/><path fill="#E0E0E0" d="M438.301 285.196C438.53 285.122 438.766 285.075 439.006 285.055L440.927 284.773C442.541 284.538 444.783 284.2 447.236 283.73C449.69 283.26 451.892 282.782 453.507 282.406L455.396 281.974C455.625 281.903 455.862 281.861 456.101 281.849C455.884 281.948 455.659 282.026 455.427 282.084C454.988 282.217 454.354 282.406 453.562 282.617C451.994 283.04 449.768 283.566 447.291 284.028C444.814 284.491 442.588 284.812 440.95 284.984C440.166 285.078 439.476 285.141 439.014 285.172C438.777 285.201 438.539 285.209 438.301 285.196Z"/><path fill="#E0E0E0" d="M428.033 271.894C428.202 272.036 428.355 272.196 428.487 272.373L429.639 273.752C430.604 274.92 431.912 276.55 433.347 278.361C434.781 280.172 436.075 281.818 436.992 283.025L438.066 284.459C438.206 284.629 438.33 284.813 438.434 285.008C438.262 284.869 438.109 284.708 437.979 284.53L436.827 283.158C435.863 281.982 434.554 280.36 433.112 278.549C431.67 276.738 430.392 275.085 429.475 273.885L428.401 272.451C428.257 272.28 428.133 272.094 428.033 271.894Z"/><path fill="#E0E0E0" d="M417.498 291.561C417.71 291.746 417.901 291.954 418.07 292.18C418.462 292.634 418.956 293.23 419.552 293.936C420.798 295.425 422.491 297.502 424.356 299.806C426.222 302.111 427.891 304.204 429.059 305.732L430.47 307.543C430.65 307.761 430.81 307.994 430.948 308.24C430.742 308.049 430.55 307.842 430.376 307.621L428.895 305.865C427.656 304.368 425.955 302.299 424.09 299.995C422.224 297.69 420.555 295.597 419.387 294.069C418.823 293.34 418.344 292.729 417.984 292.25C417.8 292.037 417.637 291.806 417.498 291.561Z"/><path fill="#E0E0E0" d="M430.823 307.747C431.11 307.659 431.404 307.594 431.701 307.551L434.123 307.112C436.169 306.736 438.99 306.203 442.087 305.544C445.183 304.886 447.973 304.196 449.988 303.686L452.378 303.091C452.668 303.004 452.964 302.941 453.264 302.903C452.989 303.028 452.703 303.127 452.41 303.2C451.853 303.373 451.046 303.616 450.058 303.89C448.051 304.455 445.269 305.168 442.165 305.834C439.061 306.5 436.231 307.01 434.178 307.331C433.151 307.496 432.312 307.613 431.74 307.684C431.437 307.734 431.13 307.755 430.823 307.747Z"/><path fill="#263238" d="M480.988 321.213C480.988 321.323 373.298 321.417 240.494 321.417C107.69 321.417 0 321.346 0 321.213C0 321.08 107.667 321.009 240.525 321.009C373.384 321.009 480.988 321.103 480.988 321.213Z"/><path fill="#263238" d="M333.908 48.4364L326.45 54.8152L336.405 66.4554L343.863 60.0766L333.908 48.4364Z"/><path fill="#455A64" d="M340.354 47.5316L325.006 60.7156L314.244 48.1743C318.477 42.2329 323.525 37.7494 329.568 34.9903L340.354 47.5316Z"/><path fill="#263238" d="M327.593 58.5052C327.507 58.5835 324.912 55.7304 321.793 52.1483C318.673 48.5662 316.212 45.6034 316.306 45.525C316.4 45.4466 318.986 48.2997 322.106 51.8818C325.226 55.4639 327.679 58.4346 327.593 58.5052Z"/><path fill="#263238" d="M330.493 55.9969C329.873 55.3935 329.297 54.7465 328.769 54.0609C327.734 52.8459 326.331 51.1607 324.787 49.2795L320.868 44.4511L319.692 42.9854C319.41 42.6248 319.261 42.4602 319.261 42.4367C319.418 42.2956 322.028 45.2663 325.116 49.0208C326.684 50.902 328.032 52.6186 329.035 53.8806C329.583 54.5417 330.07 55.2499 330.493 55.9969Z"/><path fill="#263238" d="M334.412 52.65C333.783 52.0485 333.198 51.4014 332.664 50.7139C331.622 49.4833 330.211 47.7667 328.659 45.862L324.74 40.9553L323.564 39.4582C323.412 39.2797 323.275 39.0882 323.156 38.886C323.83 39.4423 324.435 40.0764 324.959 40.775C326.017 41.9899 327.444 43.6987 328.988 45.6034C330.532 47.5081 331.92 49.256 332.907 50.5336C333.467 51.1956 333.971 51.9035 334.412 52.65Z"/><path fill="#263238" d="M337.947 49.5147C337.861 49.5852 335.282 46.7086 332.186 43.0873C329.09 39.466 326.66 36.4639 326.746 36.3855C326.833 36.3072 329.404 39.1917 332.5 42.8208C335.596 46.4499 338.034 49.4441 337.947 49.5147Z"/><path fill="#263238" d="M465.246 56.3599L458.466 49.265L447.393 59.8465L454.173 66.9414L465.246 56.3599Z"/><path fill="#455A64" d="M465.57 63.3414L451.602 48.723L463.54 37.3183C469.685 41.2375 474.435 46.0423 477.5 51.9367L465.57 63.3414Z"/><path fill="#263238" d="M453.938 51.1764C453.86 51.0902 456.564 48.3468 459.981 45.0469C463.399 41.7469 466.252 39.1368 466.307 39.2152C466.362 39.2936 463.681 42.037 460.264 45.3447C456.846 48.6525 454.016 51.2548 453.938 51.1764Z"/><path fill="#263238" d="M456.603 53.959C457.16 53.3008 457.768 52.6875 458.422 52.1248C459.574 51.0275 461.189 49.5304 462.983 47.8843L467.6 43.7065L469.003 42.4524C469.34 42.1545 469.505 42.0056 469.528 41.9978C469.677 42.1467 466.848 44.9136 463.258 48.19C461.463 49.8282 459.817 51.3253 458.61 52.3365C457.985 52.9292 457.314 53.4717 456.603 53.959Z"/><path fill="#263238" d="M460.146 57.6665C460.71 57.0021 461.326 56.3835 461.988 55.8167C463.156 54.7115 464.794 53.2065 466.62 51.5605L471.323 47.3748L472.758 46.1207C472.933 45.9648 473.116 45.8183 473.306 45.6818C472.788 46.3851 472.188 47.0245 471.519 47.5865C470.359 48.7073 468.721 50.2201 466.903 51.8662C465.084 53.5122 463.407 55.0015 462.2 56.0361C461.558 56.6315 460.871 57.1766 460.146 57.6665Z"/><path fill="#263238" d="M463.462 61.0448C463.383 60.9585 466.127 58.2387 469.583 54.9544C473.04 51.6702 475.909 49.0836 475.987 49.1698C476.066 49.256 473.322 51.9759 469.865 55.2523C466.409 58.5287 463.54 61.1153 463.462 61.0448Z"/><path fill="#263238" d="M402.668 22.4883H391.052V40.6182H402.668V22.4883Z"/><path fill="#49AAAA" d="M408.876 27.9124H384.969V8.37156C393.348 6.30225 401.343 6.17684 408.899 8.37156L408.876 27.9124Z"/><path fill="#263238" d="M409.182 8.44995C408.902 8.62515 408.605 8.77219 408.296 8.88889C407.477 9.24934 406.637 9.55825 405.78 9.81381C404.495 10.2093 403.186 10.5183 401.861 10.7387C400.25 10.9943 398.623 11.1305 396.993 11.1463C395.364 11.1487 393.737 11.0282 392.125 10.7858C390.8 10.5802 389.491 10.2843 388.206 9.90003C387.348 9.64893 386.505 9.34795 385.682 8.99862C385.371 8.8907 385.074 8.74597 384.797 8.56752C384.797 8.49697 386.113 9.03782 388.285 9.61785C389.559 9.95461 390.852 10.2163 392.157 10.4017C393.752 10.6175 395.36 10.7275 396.97 10.7309C398.58 10.7126 400.188 10.5869 401.782 10.3546C403.082 10.1667 404.369 9.90502 405.639 9.57082C407.865 8.93592 409.15 8.3794 409.182 8.44995Z"/><path fill="#263238" d="M392.87 27.8575C392.76 27.8575 392.666 24.103 392.666 19.4784C392.666 14.8538 392.76 11.0993 392.87 11.0993C392.98 11.0993 393.074 14.846 393.074 19.4784C393.074 24.1108 392.988 27.8575 392.87 27.8575Z"/><path fill="#263238" d="M397.424 27.9672C397.314 27.9672 397.22 24.197 397.22 19.5489C397.22 14.9008 397.314 11.1385 397.424 11.1385C397.534 11.1385 397.628 14.9008 397.628 19.5489C397.628 24.197 397.542 27.9672 397.424 27.9672Z"/><path fill="#263238" d="M401.978 27.8967C401.868 27.8967 401.774 24.1265 401.774 19.4784C401.774 14.8303 401.868 11.0601 401.978 11.0601C402.088 11.0601 402.182 14.8303 402.182 19.4784C402.182 24.1265 402.096 27.8967 401.978 27.8967Z"/><path fill="#263238" d="M405.741 27.8967C405.623 27.8967 405.537 23.8208 405.537 18.7965C405.537 13.7721 405.623 9.69621 405.741 9.69621C405.858 9.69621 405.944 13.7721 405.944 18.7965C405.944 23.8208 405.882 27.8967 405.741 27.8967Z"/><path fill="#263238" d="M388.567 27.7791C388.457 27.7791 388.363 23.7032 388.363 18.6789C388.363 13.6545 388.457 9.57864 388.567 9.57864C388.677 9.57864 388.771 13.6545 388.771 18.6789C388.771 23.7032 388.684 27.7791 388.567 27.7791Z"/><path fill="#49AAAA" d="M455.221 179.294C488.228 146.287 488.228 92.7719 455.221 59.7648C422.214 26.7576 368.699 26.7576 335.692 59.7648C302.684 92.772 302.684 146.287 335.692 179.294C368.699 212.301 422.214 212.301 455.221 179.294Z"/><path fill="#FAFAFA" d="M395.457 189.843C434.66 189.843 466.44 158.063 466.44 118.86C466.44 79.6568 434.66 47.8765 395.457 47.8765C356.254 47.8765 324.473 79.6568 324.473 118.86C324.473 158.063 356.254 189.843 395.457 189.843Z"/><path fill="#263238" d="M466.44 118.86C466.44 118.86 466.44 118.476 466.385 117.716C466.33 116.955 466.385 115.819 466.236 114.337C465.957 110.015 465.28 105.728 464.214 101.529C463.446 98.4994 462.474 95.5245 461.306 92.6252C459.933 89.1684 458.281 85.8288 456.368 82.6392C451.687 74.8469 445.569 68.0138 438.34 62.5027C429.566 55.8273 419.352 51.2964 408.515 49.2717C399.33 47.5816 389.904 47.6907 380.76 49.593C377.549 50.2901 374.386 51.1933 371.291 52.2973C358.122 57.0946 346.667 65.683 338.371 76.98C336.206 79.9219 334.277 83.0303 332.602 86.2762C331.732 87.8987 330.987 89.5839 330.25 91.277C329.513 92.9701 328.855 94.7258 328.298 96.513C327.095 100.089 326.193 103.76 325.602 107.487C325.007 111.254 324.695 115.061 324.669 118.876C324.697 122.692 325.006 126.501 325.594 130.272C326.194 133.997 327.096 137.667 328.291 141.246C328.855 143.025 329.56 144.75 330.242 146.474C330.924 148.199 331.747 149.86 332.594 151.483C334.269 154.73 336.2 157.839 338.371 160.779C346.665 172.08 358.12 180.671 371.291 185.47C374.386 186.573 377.549 187.477 380.76 188.174C383.891 188.828 387.062 189.271 390.252 189.498C396.358 189.96 402.497 189.623 408.515 188.495C419.352 186.47 429.566 181.939 438.34 175.264C445.571 169.755 451.689 162.922 456.368 155.128C458.28 151.937 459.931 148.598 461.306 145.142C464.09 138.211 465.754 130.883 466.236 123.43C466.37 121.948 466.346 120.812 466.385 120.051C466.424 119.291 466.44 118.899 466.44 118.899C466.44 118.899 466.44 119.291 466.44 120.051C466.44 120.812 466.44 121.948 466.33 123.43C465.901 130.903 464.268 138.259 461.494 145.212C460.129 148.685 458.483 152.04 456.572 155.245C451.902 163.077 445.783 169.948 438.544 175.491C429.739 182.207 419.485 186.771 408.602 188.817C402.556 189.959 396.388 190.307 390.252 189.851C387.046 189.624 383.859 189.181 380.713 188.526C377.483 187.832 374.301 186.926 371.189 185.814C357.942 180.999 346.418 172.366 338.073 161.006C335.895 158.051 333.955 154.926 332.272 151.663C331.394 150.033 330.642 148.324 329.874 146.623C329.106 144.922 328.479 143.159 327.914 141.364C326.712 137.77 325.805 134.084 325.202 130.343C323.959 122.754 323.959 115.013 325.202 107.424C325.808 103.699 326.715 100.029 327.914 96.4503C328.486 94.6553 329.192 92.923 329.882 91.1908C330.571 89.4585 331.394 87.789 332.272 86.1586C333.961 82.8968 335.903 79.7728 338.081 76.8154C346.422 65.4569 357.944 56.8265 371.189 52.0151C374.299 50.9049 377.478 49.999 380.705 49.303C383.854 48.6488 387.044 48.2062 390.252 47.9784C396.385 47.5228 402.551 47.8707 408.594 49.013C419.48 51.0499 429.736 55.614 438.536 62.3381C445.775 67.8851 451.893 74.7586 456.564 82.5922C460.075 88.5054 462.715 94.894 464.402 101.561C465.448 105.774 466.101 110.074 466.354 114.408C466.472 115.889 466.432 117.026 466.464 117.786C466.495 118.546 466.44 118.86 466.44 118.86Z"/><path fill="#263238" d="M456.023 116.289C453.774 116.383 451.939 116.289 451.931 116.093C451.924 115.897 453.734 115.631 455.984 115.505C458.233 115.38 460.068 115.458 460.083 115.693C460.099 115.928 458.257 116.195 456.023 116.289Z"/><path fill="#263238" d="M454.51 132.632C452.316 132.114 450.591 131.542 450.591 131.346C450.591 131.15 452.457 131.385 454.659 131.864C456.862 132.342 458.578 132.922 458.578 133.149C458.578 133.376 456.689 133.141 454.51 132.632Z"/><path fill="#263238" d="M448.655 147.956C446.672 146.874 445.151 145.847 445.245 145.675C445.339 145.502 447.032 146.215 449.023 147.242C451.014 148.269 452.543 149.327 452.433 149.531C452.323 149.735 450.63 149.045 448.655 147.956Z"/><path fill="#263238" d="M438.896 161.155C437.282 159.588 436.082 158.192 436.224 158.02C436.365 157.847 437.791 159.015 439.437 160.567C441.083 162.119 442.267 163.507 442.11 163.703C441.953 163.899 440.503 162.731 438.896 161.155Z"/><path fill="#263238" d="M425.963 171.267C424.835 169.315 424.051 167.653 424.223 167.551C424.396 167.449 425.477 168.939 426.637 170.867C427.797 172.795 428.581 174.457 428.385 174.582C428.189 174.708 427.1 173.203 425.963 171.267Z"/><path fill="#263238" d="M410.796 177.529C410.232 175.343 409.926 173.532 410.122 173.485C410.318 173.438 410.953 175.154 411.557 177.326C412.16 179.497 412.458 181.307 412.231 181.37C412.003 181.433 411.361 179.708 410.796 177.529Z"/><path fill="#263238" d="M394.5 179.473C394.5 177.216 394.728 175.39 394.924 175.39C395.12 175.39 395.284 177.224 395.284 179.473C395.284 181.723 395.088 183.557 394.861 183.557C394.634 183.557 394.461 181.739 394.5 179.473Z"/><path fill="#263238" d="M378.307 177.02C378.949 174.857 379.623 173.156 379.819 173.211C380.015 173.265 379.67 175.068 379.036 177.239C378.401 179.411 377.75 181.159 377.523 181.049C377.295 180.939 377.625 179.183 378.307 177.02Z"/><path fill="#263238" d="M363.312 170.271C364.511 168.366 365.616 166.901 365.789 167.003C365.961 167.104 365.146 168.758 363.978 170.687C362.81 172.615 361.697 174.073 361.501 173.955C361.305 173.838 362.113 172.184 363.312 170.271Z"/><path fill="#263238" d="M350.7 159.768C352.37 158.247 353.835 157.134 353.961 157.283C354.086 157.432 352.879 158.796 351.233 160.34C349.587 161.884 348.137 162.997 347.972 162.833C347.808 162.668 349.038 161.288 350.7 159.768Z"/><path fill="#263238" d="M341.357 146.27C343.371 145.259 345.08 144.577 345.166 144.75C345.253 144.922 343.716 145.918 341.718 146.968C339.719 148.018 338.018 148.7 337.908 148.489C337.798 148.277 339.35 147.289 341.357 146.27Z"/><path fill="#263238" d="M335.98 130.766C338.198 130.327 340.024 130.131 340.064 130.327C340.103 130.523 338.347 131.064 336.144 131.534C333.942 132.005 332.108 132.201 332.061 131.973C332.014 131.746 333.785 131.205 335.98 130.766Z"/><path fill="#263238" d="M334.984 114.416C337.234 114.58 339.045 114.878 339.037 115.074C339.029 115.27 337.187 115.325 334.937 115.192C332.688 115.058 330.869 114.768 330.885 114.533C330.901 114.298 332.735 114.212 334.984 114.416Z"/><path fill="#263238" d="M338.394 98.3236C340.518 99.1074 342.18 99.8912 342.117 100.056C342.055 100.22 340.267 99.7972 338.135 99.0604C336.003 98.3236 334.342 97.5554 334.412 97.336C334.483 97.1165 336.278 97.5554 338.394 98.3236Z"/><path fill="#263238" d="M346.005 83.7836C347.839 85.0926 349.234 86.284 349.14 86.4486C349.046 86.6132 347.432 85.704 345.574 84.4263C343.716 83.1487 342.321 81.9573 342.439 81.7613C342.556 81.5654 344.163 82.4746 346.005 83.7836Z"/><path fill="#263238" d="M357.222 71.8067C358.64 73.5546 359.667 75.0753 359.518 75.2085C359.369 75.3418 358.06 74.0328 356.618 72.3005C355.176 70.5683 354.141 69.0555 354.321 68.9066C354.502 68.7576 355.803 70.0588 357.222 71.8067Z"/><path fill="#263238" d="M371.252 63.263C372.146 65.3323 372.734 67.0724 372.545 67.1821C372.357 67.2919 371.464 65.6615 370.539 63.6079C369.614 61.5542 369.026 59.8141 369.238 59.6887C369.449 59.5633 370.335 61.2015 371.252 63.263Z"/><path fill="#263238" d="M387.038 58.8187C387.344 61.0526 387.438 62.8868 387.234 62.9181C387.031 62.9495 386.6 61.1623 386.262 58.9363C385.925 56.7102 385.831 54.8682 386.059 54.8368C386.286 54.8055 386.733 56.5848 387.038 58.8187Z"/><path fill="#263238" d="M403.452 58.7638C403.154 60.9977 402.754 62.7927 402.558 62.7692C402.362 62.7457 402.409 60.9037 402.676 58.6698C402.942 56.4359 403.342 54.6331 403.569 54.6644C403.797 54.6958 403.75 56.5221 403.452 58.7638Z"/><path fill="#263238" d="M419.277 63.0984C418.392 65.1755 417.521 66.7902 417.333 66.7118C417.145 66.6334 417.702 64.8855 418.556 62.7927C419.41 60.6999 420.288 59.093 420.5 59.1871C420.712 59.2811 420.171 61.0291 419.277 63.0984Z"/><path fill="#263238" d="M433.355 71.5402C431.944 73.3038 430.674 74.6285 430.517 74.5031C430.361 74.3777 431.356 72.8335 432.743 71.0542C434.131 69.2749 435.393 67.9189 435.581 68.0992C435.769 68.2795 434.742 69.7844 433.355 71.5402Z"/><path fill="#263238" d="M444.665 83.4387C442.831 84.7555 441.256 85.6961 441.138 85.5315C441.021 85.3669 442.392 84.152 444.203 82.8038C446.014 81.4556 447.589 80.5229 447.73 80.711C447.871 80.8991 446.5 82.1219 444.665 83.4387Z"/><path fill="#263238" d="M452.37 97.9552C450.254 98.739 448.451 99.2015 448.404 99.0212C448.357 98.8409 449.972 98.0257 452.096 97.2184C454.22 96.411 455.968 95.9329 456.054 96.1524C456.141 96.3719 454.487 97.1714 452.37 97.9552Z"/><path fill="#263238" d="M455.905 113.961C453.656 114.141 451.822 114.126 451.806 113.961C451.79 113.796 453.593 113.436 455.835 113.177C458.077 112.918 459.919 112.981 459.934 113.216C459.95 113.451 458.132 113.781 455.905 113.961Z"/><path fill="#fff" d="M367.89 42.0683L367.647 42.178L366.925 42.4681C366.298 42.7346 365.358 43.0559 364.159 43.5811C360.779 44.9937 357.498 46.6303 354.337 48.48C352.331 49.6401 350.206 51.0275 347.972 52.5873C345.739 54.1471 343.458 55.9656 341.177 58.0114C331.162 66.8383 323.513 78.0282 318.924 90.5637C317.85 93.4325 317.043 96.2386 316.345 98.8645C315.647 101.49 315.177 103.999 314.824 106.287C314.252 109.904 313.919 113.554 313.829 117.214C313.766 118.515 313.829 119.518 313.829 120.2C313.829 120.529 313.829 120.78 313.829 120.984C313.836 121.073 313.836 121.162 313.829 121.251C313.819 121.165 313.819 121.078 313.829 120.992C313.829 120.796 313.829 120.537 313.829 120.208C313.829 119.526 313.743 118.523 313.782 117.222C313.81 113.548 314.101 109.881 314.652 106.248C314.981 103.944 315.491 101.443 316.126 98.7861C316.834 95.9616 317.687 93.1754 318.681 90.4383C323.247 77.8188 330.942 66.5645 341.043 57.7292C343.34 55.6834 345.676 53.9198 347.886 52.3129C350.097 50.7061 352.276 49.3736 354.306 48.2292C357.488 46.3986 360.797 44.7956 364.206 43.4322C365.405 42.9305 366.369 42.6483 367.012 42.3897L367.748 42.1389C367.794 42.1119 367.841 42.0883 367.89 42.0683Z"/><path fill="#fff" d="M391.483 37.4907C390.677 37.6581 389.859 37.7655 389.037 37.8121C387.517 37.9689 385.432 38.1962 383.127 38.494C380.823 38.7919 378.746 39.1054 377.241 39.3406C376.434 39.5063 375.617 39.6111 374.795 39.6541C375.575 39.3824 376.377 39.183 377.194 39.0584C378.691 38.7527 380.768 38.3921 383.072 38.0943C385.377 37.7964 387.485 37.6083 389.014 37.5221C389.834 37.4344 390.661 37.4239 391.483 37.4907Z"/><g opacity=".4"><path fill="#000" d="M338.723 161.531C338.723 161.531 375.508 219.582 432.571 189.851C492.142 158.812 459.221 87.6635 459.221 87.6635C459.221 87.6635 487.251 144.366 429.185 181.331C414.723 190.541 398.976 190.549 386.968 189.342C356.281 186.269 338.723 161.531 338.723 161.531Z"/></g><path fill="#E0E0E0" d="M415.241 81.1343C415.594 91.5451 415.279 101.968 414.3 112.338C413.939 116.093 413.516 119.887 412.066 123.375C410.616 126.863 408.147 130.061 404.667 131.534C401.187 133.008 396.734 132.397 394.312 129.512L415.241 81.1343Z"/><path fill="#49AAAA" d="M393.913 113.263L419.708 69.8236L404.142 118.868L396.186 121.243L393.913 113.263Z"/><g opacity=".4"><path fill="#000" d="M419.708 69.8236L400.575 114.212L404.142 118.868L419.708 69.8236Z"/></g><path fill="#FAFAFA" d="M396.186 129.543C400.77 129.543 404.486 125.827 404.486 121.243C404.486 116.658 400.77 112.942 396.186 112.942C391.601 112.942 387.885 116.658 387.885 121.243C387.885 125.827 391.601 129.543 396.186 129.543Z"/><path fill="#263238" d="M404.486 121.243C404.412 120.568 404.299 119.898 404.149 119.236C403.669 117.448 402.604 115.873 401.124 114.76C400.037 113.943 398.762 113.41 397.416 113.211C396.07 113.013 394.696 113.155 393.419 113.624C392.684 113.884 391.994 114.257 391.373 114.729C390.712 115.208 390.133 115.791 389.656 116.454C388.638 117.842 388.088 119.52 388.088 121.243C388.088 122.965 388.638 124.643 389.656 126.032C390.608 127.323 391.916 128.309 393.419 128.869C394.491 129.263 395.634 129.428 396.774 129.353C397.915 129.279 399.026 128.967 400.039 128.438C401.052 127.909 401.942 127.174 402.654 126.281C403.366 125.387 403.883 124.355 404.173 123.249C404.324 122.588 404.437 121.918 404.51 121.243C404.558 121.93 404.498 122.62 404.33 123.289C403.901 125.157 402.837 126.82 401.32 127.991C400.279 128.799 399.063 129.35 397.769 129.598C396.281 129.883 394.744 129.764 393.317 129.253C392.542 128.986 391.814 128.597 391.161 128.101C390.468 127.6 389.86 126.992 389.359 126.298C388.279 124.846 387.697 123.084 387.697 121.274C387.697 119.464 388.279 117.703 389.359 116.25C389.862 115.558 390.47 114.95 391.161 114.447C391.818 113.958 392.544 113.572 393.317 113.303C394.743 112.789 396.281 112.669 397.769 112.958C399.35 113.262 400.809 114.015 401.973 115.127C403.136 116.239 403.955 117.663 404.33 119.228C404.486 119.888 404.539 120.567 404.486 121.243Z"/><path fill="#455A64" d="M402.267 122.487C402.943 119.144 400.78 115.885 397.437 115.209C394.093 114.533 390.835 116.696 390.159 120.039C389.483 123.383 391.645 126.641 394.989 127.317C398.332 127.993 401.591 125.831 402.267 122.487Z"/><path fill="#E0E0E0" d="M330.744 320.476H371.581L352.542 156.39L330.744 320.476Z"/><path fill="#FAFAFA" d="M129.802 156.39L103.214 322.412L330.093 325.367L352.542 156.39H129.802Z"/><path fill="#EBEBEB" d="M342.439 232.444H117.621L122.512 201.875H346.499L342.439 232.444Z"/><path fill="#263238" d="M342.454 232.468H117.598L122.497 201.899H346.522L342.454 232.468ZM117.645 232.429H342.423L346.475 201.859H122.536L117.645 232.429Z"/><path fill="#49AAAA" d="M129.802 156.39L122.512 201.875H346.499L352.542 156.39H129.802Z"/><path fill="#263238" d="M129.833 156.39L352.574 156.201H352.785V156.413C346.224 205.88 338.778 261.979 330.908 321.228V321.409H328.181L103.403 321.346H103.183V321.15L129.833 156.39C129.614 157.753 119.487 221.408 103.598 321.228L103.434 321.033H328.126H330.673L330.477 321.205C338.355 261.955 345.817 205.865 352.425 156.397L352.605 156.601L129.833 156.39Z"/><path fill="#263238" d="M346.499 201.875C346.499 201.985 296.334 202.079 234.513 202.079C172.693 202.079 122.512 201.985 122.512 201.875C122.512 201.765 172.677 201.671 234.513 201.671C296.35 201.671 346.499 201.757 346.499 201.875Z"/><path fill="#263238" d="M342.439 232.444C342.439 232.562 292.007 232.648 229.818 232.648C167.629 232.648 117.19 232.562 117.19 232.444C117.19 232.327 167.606 232.241 229.818 232.241C292.031 232.241 342.439 232.335 342.439 232.444Z"/><path fill="#263238" d="M337.861 260.576C337.861 260.693 287.437 260.78 225.249 260.78C163.06 260.78 112.589 260.693 112.589 260.576C112.589 260.458 163.005 260.372 225.217 260.372C287.43 260.372 337.861 260.466 337.861 260.576Z"/><path fill="#263238" d="M333.291 288.707C333.291 288.817 282.86 288.911 220.671 288.911C158.482 288.911 108.043 288.817 108.043 288.707C108.043 288.598 158.459 288.504 220.671 288.504C282.883 288.504 333.291 288.598 333.291 288.707Z"/><path fill="#263238" d="M135.061 321.456C134.952 321.456 139.067 294.649 144.263 261.634C149.46 228.619 153.748 201.852 153.858 201.875C153.967 201.899 149.852 228.666 144.663 261.697C139.474 294.727 135.179 321.471 135.061 321.456Z"/><path fill="#263238" d="M169.73 321.456C169.612 321.456 173.735 294.649 178.924 261.634C184.113 228.619 188.409 201.852 188.526 201.875C188.644 201.899 184.521 228.666 179.324 261.697C174.127 294.727 169.808 321.471 169.73 321.456Z"/><path fill="#263238" d="M201.945 320.257C201.836 320.257 205.911 293.724 211.046 261.038C216.18 228.353 220.451 201.852 220.553 201.875C220.655 201.899 216.587 228.4 211.453 261.101C206.319 293.802 202.047 320.272 201.945 320.257Z"/><path fill="#263238" d="M233.808 321.205C233.698 321.205 237.805 294.453 242.987 261.509C248.168 228.564 252.455 201.852 252.565 201.875C252.675 201.899 248.567 228.611 243.386 261.571C238.205 294.531 233.918 321.221 233.808 321.205Z"/><path fill="#263238" d="M265.827 321.205C265.718 321.205 269.825 294.453 275.006 261.509C280.187 228.564 284.475 201.852 284.584 201.875C284.694 201.899 280.595 228.611 275.414 261.571C270.232 294.531 265.945 321.221 265.827 321.205Z"/><path fill="#263238" d="M297.823 321.346C297.713 321.346 301.828 294.563 307.017 261.564C312.206 228.564 316.494 201.82 316.611 201.844C316.729 201.867 312.606 228.619 307.417 261.626C302.228 294.633 297.933 321.393 297.823 321.346Z"/><g opacity=".2"><path fill="#000" d="M277.679 204.007C281.535 202.298 283.949 198.285 284.945 194.186C285.94 190.086 285.784 185.807 285.932 181.582C286.081 177.357 286.583 173.007 288.739 169.378C290.016 167.238 291.811 165.458 293.23 163.397C294.649 161.336 295.699 158.827 295.174 156.343L271.048 156.468L277.679 204.007Z"/></g><path fill="#263238" d="M177.647 234.71C177.582 234.814 177.503 234.91 177.412 234.992L176.69 235.776C176.056 236.426 175.123 237.343 173.947 238.488C171.596 240.745 168.327 243.818 164.604 247.11C160.881 250.402 157.432 253.271 154.9 255.309C153.63 256.328 152.596 257.143 151.874 257.66L151.036 258.287C150.942 258.369 150.837 258.435 150.722 258.483C150.722 258.483 150.808 258.381 150.981 258.224L151.765 257.535L154.704 255.05C157.197 252.957 160.614 250.049 164.329 246.773C168.045 243.496 171.384 240.455 173.735 238.252L176.565 235.642L177.349 234.945C177.438 234.854 177.538 234.775 177.647 234.71Z"/><path fill="#263238" d="M175.836 258.797C175.503 258.506 175.191 258.191 174.903 257.856L172.45 255.238C170.334 252.988 167.496 249.963 164.369 246.616L156.201 238.072L153.724 235.478C153.412 235.169 153.121 234.839 152.854 234.49C153.209 234.752 153.54 235.046 153.842 235.368C154.453 235.948 155.331 236.802 156.405 237.868C158.553 240 161.484 242.987 164.659 246.342C167.833 249.696 170.655 252.785 172.662 255.05C173.665 256.179 174.472 257.104 175.013 257.746C175.319 258.07 175.595 258.422 175.836 258.797Z"/><path fill="#49AAAA" d="M184.207 241.913C184.207 241.913 184.286 241.709 184.45 241.309C184.71 240.729 185.025 240.175 185.391 239.656C186.832 237.642 188.865 236.127 191.207 235.321C192.884 234.714 194.673 234.479 196.451 234.631C198.567 234.837 200.606 235.532 202.408 236.661C204.488 237.943 206.244 239.686 207.542 241.756C209.043 244.067 209.79 246.786 209.682 249.54C209.592 251.025 209.131 252.464 208.341 253.725C207.514 255.033 206.412 256.146 205.112 256.986C202.343 258.761 199.084 259.615 195.8 259.424C194.08 259.331 192.387 258.964 190.784 258.334C189.116 257.683 187.616 256.665 186.394 255.356C185.787 254.667 185.276 253.9 184.874 253.075C184.49 252.232 184.227 251.341 184.09 250.425C183.829 248.55 183.993 246.64 184.568 244.837C185.766 241.075 188.365 237.918 191.826 236.019C193.62 235.033 195.617 234.472 197.662 234.378C199.707 234.284 201.746 234.661 203.623 235.478C205.567 236.297 207.27 237.6 208.569 239.264C209.869 240.972 210.682 243.001 210.92 245.134C211.191 247.299 210.841 249.496 209.909 251.468C209.43 252.458 208.801 253.367 208.044 254.164C207.273 254.95 206.403 255.632 205.457 256.194C203.548 257.246 201.443 257.892 199.273 258.095C197.104 258.297 194.915 258.05 192.845 257.37C190.807 256.744 188.933 255.673 187.358 254.235C185.797 252.795 184.73 250.9 184.309 248.818C183.868 246.772 184.159 244.636 185.132 242.783C185.626 241.87 186.304 241.069 187.123 240.432C187.93 239.823 188.83 239.349 189.788 239.028C191.671 238.425 193.645 238.159 195.62 238.245C197.543 238.259 199.456 238.522 201.31 239.028C203.144 239.511 204.839 240.418 206.256 241.678C207.615 242.945 208.541 244.606 208.906 246.428C209.266 248.188 209.16 250.012 208.6 251.719C208.045 253.365 207.108 254.856 205.864 256.069C203.503 258.378 200.376 259.739 197.078 259.894C195.534 259.976 193.989 259.752 192.532 259.236C191.132 258.734 189.874 257.903 188.863 256.814C187.906 255.774 187.182 254.542 186.739 253.2C186.302 251.942 186.108 250.612 186.167 249.281C186.279 246.817 187.262 244.472 188.942 242.665C190.378 241.094 192.194 239.92 194.217 239.256C195.914 238.703 197.713 238.531 199.484 238.754C201.932 239.058 204.258 239.996 206.233 241.474C206.746 241.851 207.23 242.265 207.683 242.712C207.989 243.018 208.138 243.183 208.138 243.183C208.138 243.183 207.965 243.034 207.659 242.744C207.194 242.311 206.702 241.908 206.186 241.537C204.208 240.102 201.895 239.198 199.468 238.911C197.555 238.689 195.616 238.93 193.815 239.612C192.013 240.293 190.401 241.397 189.114 242.83C187.478 244.598 186.525 246.89 186.426 249.297C186.372 250.602 186.567 251.905 186.998 253.137C187.435 254.439 188.143 255.633 189.075 256.641C190.057 257.697 191.277 258.503 192.633 258.993C194.055 259.487 195.559 259.7 197.062 259.62C200.282 259.461 203.331 258.125 205.629 255.865C206.83 254.691 207.736 253.248 208.271 251.656C208.807 250.006 208.905 248.245 208.553 246.545C208.2 244.796 207.309 243.201 206.006 241.984C204.626 240.771 202.984 239.896 201.209 239.428C199.384 238.929 197.503 238.665 195.612 238.644C193.684 238.572 191.758 238.837 189.921 239.428C188.048 240.002 186.462 241.265 185.485 242.963C184.557 244.735 184.28 246.777 184.701 248.732C185.107 250.732 186.136 252.551 187.64 253.929C189.165 255.338 190.987 256.388 192.971 257.002C194.985 257.665 197.115 257.905 199.227 257.708C201.339 257.511 203.388 256.881 205.245 255.857C206.163 255.319 207.004 254.66 207.746 253.898C208.473 253.133 209.079 252.26 209.541 251.311C210.443 249.408 210.783 247.287 210.52 245.197C210.296 243.137 209.519 241.176 208.271 239.522C207.015 237.915 205.369 236.655 203.489 235.862C201.668 235.066 199.689 234.699 197.703 234.789C195.718 234.878 193.78 235.423 192.038 236.379C188.674 238.231 186.149 241.303 184.983 244.962C184.425 246.712 184.261 248.565 184.505 250.386C184.646 251.27 184.91 252.13 185.289 252.941C185.677 253.734 186.167 254.471 186.747 255.136C187.929 256.404 189.381 257.39 190.995 258.021C192.563 258.64 194.219 259.006 195.902 259.102C199.115 259.299 202.308 258.476 205.026 256.751C206.282 255.982 207.34 254.929 208.114 253.676C208.889 252.424 209.359 251.007 209.486 249.54C209.595 246.847 208.87 244.186 207.409 241.921C206.14 239.877 204.418 238.152 202.376 236.881C200.608 235.761 198.604 235.066 196.521 234.851C194.771 234.685 193.005 234.904 191.348 235.493C189.027 236.278 187.003 237.755 185.548 239.726C185.172 240.237 184.847 240.783 184.576 241.356C184.309 241.717 184.207 241.913 184.207 241.913Z"/><path fill="#263238" d="M205.441 263.554C205.512 263.641 199.296 268.955 191.552 275.429C183.808 281.904 177.443 287.069 177.396 286.983C177.349 286.897 183.541 281.582 191.285 275.116C199.03 268.649 205.371 263.468 205.441 263.554Z"/><path fill="#263238" d="M206.797 286.285C206.428 286.069 206.08 285.819 205.755 285.541L202.996 283.393C200.683 281.559 197.509 279.004 194.013 276.166C190.517 273.329 187.374 270.742 185.109 268.853L182.436 266.596C182.097 266.337 181.782 266.048 181.495 265.733C181.863 265.953 182.211 266.202 182.538 266.478L185.289 268.626C187.601 270.46 190.776 273.015 194.272 275.853C197.768 278.69 200.911 281.277 203.184 283.166L205.849 285.415C206.185 285.682 206.502 285.973 206.797 286.285Z"/><path fill="#263238" d="M270.875 263.86C270.938 263.946 264.996 268.5 257.589 274.05C250.182 279.599 244.131 283.981 244.06 283.887C243.99 283.793 249.939 279.247 257.346 273.697C264.753 268.148 270.805 263.766 270.875 263.86Z"/><path fill="#263238" d="M273.18 283.142C273.125 283.236 266.807 279.325 259.071 274.395C251.334 269.465 245.134 265.404 245.189 265.302C245.244 265.201 251.562 269.127 259.298 274.05C267.034 278.972 273.274 283.048 273.18 283.142Z"/><path fill="#49AAAA" d="M206.46 321.213C206.374 321.134 212.551 314.66 220.248 306.767C227.945 298.874 234.255 292.517 234.357 292.595C234.459 292.674 228.266 299.148 220.569 307.049C212.872 314.95 206.539 321.291 206.46 321.213Z"/><path fill="#49AAAA" d="M232.569 321.205C232.569 321.205 232.468 321.119 232.311 320.931L231.652 320.147C231.041 319.363 230.226 318.352 229.23 317.113C227.185 314.558 224.284 311.086 220.922 307.394C217.559 303.702 214.369 300.496 212.018 298.223L209.227 295.48L208.443 294.743C208.353 294.66 208.271 294.568 208.2 294.469C208.2 294.469 208.318 294.531 208.498 294.68L209.282 295.362C209.98 295.958 210.967 296.844 212.174 297.957C214.573 300.183 217.802 303.365 221.18 307.065C224.559 310.764 227.451 314.276 229.411 316.878C230.414 318.179 231.206 319.23 231.762 320.014L232.366 320.876C232.447 320.977 232.515 321.087 232.569 321.205Z"/><path fill="#EBEBEB" d="M168.405 288.237C168.405 288.237 168.656 307.496 163.796 319.026L134.176 313.978C134.176 313.978 143.096 295.731 140.666 285.588L168.405 288.237Z"/><path fill="#49AAAA" d="M168.398 287.516C168.398 287.516 164.682 311.156 162.409 318.211L132.969 312.363C132.969 312.363 139.028 289.507 138.949 283.142L168.398 287.516Z"/><path fill="#fff" d="M141.936 293.74C141.936 293.849 146.309 294.868 151.757 296.013C157.204 297.157 161.633 297.996 161.657 297.894C161.68 297.792 157.283 296.765 151.835 295.621C146.388 294.476 141.959 293.63 141.936 293.74Z"/><path fill="#fff" d="M141.183 298.748C141.183 298.858 145.557 299.869 151.004 301.021C156.452 302.174 160.881 303.005 160.904 302.903C160.928 302.801 156.53 301.774 151.083 300.63C145.635 299.485 141.207 298.615 141.183 298.748Z"/><path fill="#fff" d="M145.51 304.415C146.012 304.634 146.538 304.792 147.077 304.886C148.089 305.129 149.492 305.45 151.036 305.779C152.58 306.108 153.999 306.375 155.025 306.563C155.574 306.701 156.137 306.769 156.703 306.767C156.182 306.547 155.637 306.387 155.08 306.289C154.077 306.038 152.674 305.717 151.122 305.395C149.57 305.074 148.159 304.792 147.14 304.611C146.607 304.481 146.059 304.415 145.51 304.415Z"/><path fill="#EBEBEB" d="M308.546 234.161C308.546 234.161 311.579 252.926 308.507 264.895L278.847 264.26C278.847 264.26 284.913 245.15 281.065 235.595L308.546 234.161Z"/><path fill="#455A64" d="M308.413 233.455C308.413 233.455 308.217 257.057 307.017 264.26L277.412 262.857C277.412 262.857 280.007 239.656 278.98 233.455H308.413Z"/><path fill="#fff" d="M283.181 243.959C283.181 244.068 287.633 244.163 293.128 244.17C298.623 244.178 303.083 244.1 303.083 243.99C303.083 243.88 298.63 243.786 293.128 243.778C287.626 243.771 283.181 243.849 283.181 243.959Z"/><path fill="#fff" d="M283.463 248.952C283.463 249.061 287.916 249.156 293.41 249.163C298.905 249.171 303.365 249.093 303.365 248.983C303.365 248.873 298.913 248.779 293.41 248.771C287.908 248.764 283.463 248.842 283.463 248.952Z"/><path fill="#fff" d="M288.77 253.553C289.316 253.67 289.874 253.72 290.432 253.702C291.458 253.702 292.877 253.757 294.445 253.764C296.013 253.772 297.423 253.764 298.45 253.71C299.007 253.732 299.565 253.687 300.112 253.576C299.566 253.46 299.008 253.412 298.45 253.435C297.423 253.396 296.013 253.373 294.445 253.365C292.877 253.357 291.458 253.365 290.432 253.42C289.874 253.397 289.316 253.442 288.77 253.553Z"/><path fill="#263238" d="M314.817 180.053C309.283 180.053 303.71 176.581 300.778 171.118C297.928 165.677 297.045 159.42 298.278 153.403C299.9 145.565 305.089 139.138 311.501 137.084C316.949 135.336 326.684 136.3 331.277 143.989C333.465 147.749 334.551 152.049 334.412 156.397C334.392 156.706 334.31 157.008 334.173 157.285C334.036 157.563 333.846 157.81 333.613 158.014C333.38 158.218 333.109 158.374 332.816 158.473C332.523 158.572 332.213 158.613 331.904 158.592C331.28 158.551 330.699 158.263 330.287 157.793C329.876 157.322 329.668 156.708 329.709 156.084C329.752 152.689 328.88 149.345 327.185 146.404C323.642 140.486 315.875 140.603 312.88 141.56C307.394 143.315 303.882 149.249 302.824 154.352C301.808 159.292 302.531 164.431 304.87 168.899C307.182 173.211 311.861 175.891 316.008 175.256C316.62 175.171 317.241 175.33 317.737 175.699C318.232 176.068 318.563 176.618 318.656 177.229C318.75 177.839 318.6 178.463 318.238 178.963C317.875 179.464 317.331 179.802 316.721 179.904C316.091 180.002 315.454 180.052 314.817 180.053Z"/><path fill="#263238" d="M163.005 180.053C157.463 180.053 151.898 176.581 148.966 171.118C146.114 165.678 145.228 159.421 146.458 153.403C147.83 146.788 152.47 139.169 159.783 137.068C163.309 136.113 167.048 136.303 170.459 137.609L168.766 141.998C166.311 141.065 163.626 140.92 161.084 141.583C155.692 143.151 152.18 149.123 151.098 154.352C150.082 159.292 150.805 164.431 153.144 168.899C155.457 173.218 160.144 175.891 164.282 175.256L164.996 179.904C164.337 180.006 163.671 180.056 163.005 180.053Z"/><path fill="#49AAAA" d="M312.88 156.515L310.717 168.359H342.548L345.378 156.633L312.88 156.515Z"/><path fill="#263238" d="M171.07 178.18C171.072 179.182 170.776 180.162 170.22 180.996C169.664 181.83 168.874 182.48 167.948 182.864C167.023 183.249 166.004 183.35 165.021 183.154C164.038 182.959 163.135 182.477 162.426 181.768C161.718 181.06 161.235 180.157 161.04 179.174C160.845 178.191 160.946 177.172 161.33 176.246C161.714 175.321 162.365 174.53 163.199 173.974C164.032 173.419 165.013 173.123 166.015 173.124C167.355 173.126 168.64 173.66 169.587 174.607C170.535 175.555 171.068 176.84 171.07 178.18Z"/><path fill="#263238" d="M322.749 178.18C322.75 179.182 322.455 180.162 321.899 180.996C321.343 181.83 320.552 182.48 319.627 182.864C318.701 183.249 317.682 183.35 316.699 183.154C315.716 182.959 314.813 182.477 314.105 181.768C313.396 181.06 312.914 180.157 312.719 179.174C312.524 178.191 312.625 177.172 313.009 176.246C313.393 175.321 314.043 174.53 314.877 173.974C315.711 173.419 316.691 173.123 317.693 173.124C319.033 173.126 320.318 173.66 321.266 174.607C322.213 175.555 322.747 176.84 322.749 178.18Z"/><path fill="#FFBE9D" d="M239.216 80.178L230.892 111.751L202.157 114.839V119.934L242.532 121.352L250.119 85.9313L239.216 80.178Z"/><path fill="#263238" d="M251.326 122.191C251.326 122.191 206.429 120.051 193.645 130.029C180.86 140.008 187.053 156.39 187.053 156.39L259.306 156.201L265.686 119.573L251.326 122.191Z"/><path fill="#455A64" d="M258.969 146.357C258.751 146.362 258.533 146.346 258.318 146.31C257.895 146.262 257.276 146.2 256.476 146.098C254.909 145.902 252.557 145.573 249.735 145.095C242.327 143.835 234.998 142.141 227.788 140.023C223.571 138.777 219.581 137.523 215.897 136.606C212.645 135.764 209.32 135.239 205.966 135.038C203.704 134.911 201.435 135.043 199.202 135.43C198.418 135.524 197.815 135.728 197.391 135.798C197.182 135.85 196.97 135.889 196.756 135.916C196.956 135.83 197.163 135.764 197.376 135.72C197.965 135.536 198.564 135.387 199.171 135.273C201.409 134.821 203.693 134.645 205.974 134.748C209.376 134.91 212.752 135.412 216.054 136.245C219.762 137.139 223.759 138.393 227.961 139.639C235.132 141.739 242.408 143.463 249.759 144.805C252.588 145.322 254.885 145.69 256.476 145.941L258.31 146.231C258.533 146.255 258.753 146.296 258.969 146.357Z"/><path fill="#455A64" d="M217.238 136.363C215.99 135.334 214.661 134.409 213.264 133.596C211.799 132.911 210.281 132.344 208.725 131.903C209.208 131.861 209.695 131.909 210.16 132.044C211.306 132.291 212.413 132.691 213.452 133.235C214.489 133.782 215.448 134.465 216.305 135.265C216.681 135.57 216.997 135.942 217.238 136.363Z"/><path fill="#49AAAA" d="M256.084 219.786L256.688 238.652L252.894 253.717C252.833 253.975 252.825 254.243 252.871 254.504C252.918 254.766 253.018 255.014 253.165 255.235C253.312 255.456 253.503 255.644 253.727 255.787C253.95 255.931 254.2 256.027 254.462 256.069C254.765 256.124 255.077 256.106 255.371 256.016C255.666 255.926 255.934 255.767 256.155 255.552C259.008 252.761 269.48 242.446 269.347 241.074C269.206 239.507 270.029 221.118 270.029 221.118L256.084 219.786Z"/><g opacity=".6"><path fill="#fff" d="M254.391 256.1L269.284 239.828V240.612C269.293 241.304 269.054 241.977 268.61 242.509C267.426 243.927 264.064 247.776 256.155 255.567C255.929 255.791 255.651 255.955 255.346 256.046C255.041 256.136 254.718 256.149 254.407 256.085L254.391 256.1Z"/></g><g opacity=".6"><path fill="#fff" d="M265.333 233.769C265.094 233.944 264.93 234.202 264.874 234.493C264.817 234.784 264.872 235.085 265.028 235.337C265.193 235.571 265.441 235.735 265.722 235.793C266.003 235.851 266.296 235.8 266.541 235.65C266.786 235.468 266.955 235.2 267.013 234.9C267.071 234.6 267.014 234.288 266.854 234.028C266.659 233.798 266.382 233.653 266.082 233.624C265.783 233.595 265.483 233.683 265.247 233.871"/></g><path fill="#263238" d="M258.632 247.807C258.522 247.862 258.083 246.882 256.962 246.357C256.269 246.085 255.528 245.952 254.783 245.965C254.783 245.918 255.003 245.769 255.442 245.699C256.023 245.628 256.613 245.726 257.141 245.98C257.669 246.234 258.113 246.634 258.42 247.133C258.64 247.517 258.671 247.792 258.632 247.807Z"/><path fill="#263238" d="M257.307 250.355C256.765 250.059 256.205 249.797 255.63 249.571C255.018 249.463 254.4 249.39 253.78 249.351C254.068 249.166 254.396 249.053 254.738 249.022C255.079 248.99 255.422 249.042 255.739 249.171C256.852 249.469 257.401 250.3 257.307 250.355Z"/><path fill="#263238" d="M261.101 244.531C260.3 244.003 259.462 243.534 258.593 243.128C257.675 242.847 256.737 242.638 255.786 242.501C256.774 242.294 257.8 242.375 258.742 242.735C259.684 243.095 260.503 243.719 261.101 244.531Z"/><path fill="#263238" d="M261.399 238.793C261.352 238.911 260.301 238.48 258.945 238.448C257.589 238.417 256.515 238.746 256.468 238.629C257.229 238.21 258.088 238.004 258.956 238.033C259.824 238.062 260.668 238.324 261.399 238.793Z"/><path fill="#263238" d="M261.359 233.252C260.534 232.992 259.677 232.847 258.812 232.821C257.955 232.92 257.116 233.139 256.319 233.471C256.319 233.432 256.492 233.189 256.923 232.938C257.5 232.612 258.146 232.427 258.808 232.399C259.47 232.37 260.129 232.499 260.732 232.774C261.164 232.985 261.391 233.205 261.359 233.252Z"/><path fill="#263238" d="M258.836 231.762C258.787 231.527 258.787 231.284 258.836 231.049C258.894 230.394 259.083 229.757 259.392 229.176C259.576 228.728 259.904 228.356 260.325 228.118C260.471 228.052 260.633 228.033 260.79 228.063C260.946 228.092 261.091 228.169 261.203 228.282C261.405 228.518 261.513 228.819 261.508 229.129C261.471 229.761 261.217 230.36 260.788 230.826C260.36 231.291 259.783 231.595 259.157 231.684C258.532 231.754 257.9 231.636 257.341 231.345C256.783 231.055 256.324 230.606 256.022 230.054C255.945 229.914 255.9 229.76 255.89 229.602C255.879 229.444 255.902 229.285 255.959 229.137C256.032 228.996 256.146 228.881 256.286 228.807C256.426 228.733 256.585 228.703 256.743 228.721C257.209 228.821 257.641 229.039 257.997 229.356C258.511 229.763 258.951 230.257 259.298 230.814C259.436 231.011 259.537 231.231 259.596 231.465C259.098 230.756 258.498 230.125 257.817 229.591C257.499 229.33 257.122 229.15 256.719 229.066C256.632 229.051 256.543 229.065 256.464 229.104C256.385 229.144 256.321 229.207 256.28 229.286C256.252 229.386 256.245 229.492 256.258 229.595C256.272 229.699 256.306 229.799 256.359 229.889C256.634 230.356 257.037 230.734 257.52 230.979C258.004 231.223 258.547 231.324 259.086 231.269C259.621 231.2 260.116 230.951 260.488 230.561C260.861 230.171 261.088 229.666 261.132 229.129C261.142 228.914 261.076 228.703 260.944 228.533C260.885 228.466 260.806 228.42 260.718 228.401C260.63 228.383 260.539 228.394 260.458 228.431C260.114 228.641 259.841 228.95 259.674 229.317C259.257 230.078 258.974 230.905 258.836 231.762Z"/><path fill="#263238" d="M265.647 119.573C265.647 119.573 246.232 156.28 245.965 162.684C245.699 169.088 245.965 228.118 245.965 228.118H276.017C276.801 228.118 281.308 201.522 280.391 195.401C279.474 189.279 276.237 156.374 276.237 156.374H293.528C293.528 156.374 298.27 151.302 298.097 144.867C297.996 141.317 295.675 134.058 293.395 130.21C291.913 127.741 282.421 114.815 282.421 114.815L265.647 119.573Z"/><path fill="#455A64" d="M264.346 122.058C264.325 122.131 264.296 122.202 264.26 122.27C264.189 122.426 264.095 122.622 263.977 122.865L262.849 125.154C262.339 126.149 261.736 127.357 261.03 128.76L259.902 131.009L258.718 133.572L252.894 146.184C251.789 148.536 250.629 151.052 249.422 153.63L247.595 157.55C247.005 158.905 246.559 160.318 246.263 161.767C245.965 163.219 245.81 164.697 245.801 166.18C245.753 167.645 245.722 169.095 245.699 170.514C245.699 173.367 245.644 176.111 245.652 178.729C245.652 183.965 245.714 188.683 245.769 192.642C245.824 196.6 245.871 199.774 245.91 202.047C245.91 203.129 245.91 203.984 245.91 204.595C245.91 204.869 245.91 205.089 245.91 205.261C245.91 205.434 245.91 205.489 245.91 205.489C245.897 205.413 245.897 205.336 245.91 205.261C245.91 205.089 245.91 204.869 245.91 204.603C245.91 203.984 245.848 203.137 245.801 202.047C245.722 199.837 245.62 196.631 245.534 192.642C245.448 188.652 245.354 183.972 245.33 178.729C245.33 176.111 245.33 173.359 245.33 170.514C245.33 169.088 245.377 167.637 245.432 166.164C245.44 164.658 245.595 163.156 245.895 161.68C246.198 160.205 246.655 158.765 247.258 157.385L249.093 153.466L252.588 146.035L258.53 133.455L259.737 130.899C260.152 130.116 260.521 129.332 260.897 128.666L262.77 125.091C263.28 124.127 263.687 123.375 263.97 122.834C264.103 122.599 264.213 122.411 264.291 122.254C264.369 122.097 264.338 122.05 264.346 122.058Z"/><path fill="#455A64" d="M258.06 134.56C257.436 133.068 256.913 131.536 256.492 129.975C255.942 128.454 255.494 126.899 255.152 125.319C255.882 126.767 256.46 128.288 256.876 129.857C257.431 131.38 257.828 132.956 258.06 134.56Z"/><path fill="#455A64" d="M280.454 194.248C280.403 194.115 280.372 193.975 280.359 193.833C280.323 193.514 280.268 193.114 280.195 192.634C280.054 191.529 279.873 190.024 279.646 188.197C279.215 184.404 278.635 179.254 277.992 173.563C277.35 167.873 276.824 162.66 276.503 158.906C276.354 157.071 276.229 155.567 276.135 154.461C276.135 153.968 276.072 153.568 276.048 153.246C276.038 153.105 276.038 152.964 276.048 152.823C276.098 152.956 276.127 153.097 276.135 153.239C276.174 153.56 276.229 153.96 276.291 154.446C276.417 155.551 276.589 157.048 276.793 158.882C277.208 162.676 277.773 167.833 278.361 173.524C278.949 179.215 279.505 184.364 279.928 188.166C280.101 190 280.25 191.505 280.352 192.61C280.391 193.096 280.422 193.504 280.446 193.825C280.46 193.966 280.463 194.107 280.454 194.248Z"/><path fill="#263238" d="M272.819 21.2655C272.357 18.1302 275.045 15.1125 278.149 14.7441C281.253 14.3757 284.38 16.3117 285.807 19.1413C286.471 20.5644 286.834 22.109 286.875 23.6787C286.915 25.2485 286.632 26.8097 286.042 28.2651C285.258 30.2482 283.808 32.2548 281.7 32.4115C279.591 32.5683 277.977 30.9615 276.581 29.48"/><path fill="#263238" d="M250.754 36.8166C244.484 23.0761 259.376 16.1706 267.473 18.4594C275.092 20.6149 278.345 24.4086 279.599 29.5035C280.973 34.6151 280.699 40.0297 278.815 44.9763C277.828 47.3748 276.056 49.8047 273.485 50.1025"/><path fill="#FFBE9D" d="M272.333 26.086C272.978 26.1529 273.574 26.4602 274.003 26.9468C274.431 27.4334 274.661 28.0636 274.645 28.7119L273.18 63.6862C273.125 67.817 267.097 70.1528 262.668 70.0588C258.208 69.9647 258.06 67.77 257.966 63.843C257.864 57.2824 257.864 54.8133 257.864 54.8525C257.864 54.8917 252.22 53.9119 251.052 46.5518C250.464 42.8913 250.652 36.8872 250.958 31.9804C251.24 27.5675 254.164 22.1434 258.569 22.5745L272.333 26.086Z"/><path fill="#263238" d="M253.843 36.1661C253.838 36.4129 253.931 36.6515 254.101 36.8304C254.271 37.0093 254.505 37.1142 254.752 37.1223C254.872 37.1319 254.993 37.1173 255.108 37.0792C255.222 37.0412 255.328 36.9805 255.419 36.9008C255.509 36.8211 255.583 36.7241 255.635 36.6154C255.688 36.5066 255.718 36.3885 255.724 36.268C255.726 36.0217 255.632 35.7843 255.463 35.6058C255.293 35.4273 255.061 35.3219 254.815 35.3117C254.694 35.3021 254.573 35.3168 254.459 35.3548C254.344 35.3929 254.238 35.4536 254.148 35.5332C254.057 35.6129 253.983 35.71 253.931 35.8187C253.879 35.9274 253.848 36.0455 253.843 36.1661Z"/><path fill="#263238" d="M252.283 35.1079C252.4 35.2255 253.121 34.7003 254.133 34.7003C255.144 34.7003 255.896 35.2098 256.006 35.0844C256.116 34.959 255.943 34.81 255.614 34.5749C255.174 34.271 254.652 34.1096 254.117 34.1124C253.589 34.1073 253.074 34.2753 252.651 34.5906C252.338 34.8257 252.228 35.053 252.283 35.1079Z"/><path fill="#263238" d="M263.774 36.1661C263.771 36.4072 263.86 36.6403 264.023 36.8179C264.186 36.9956 264.411 37.1044 264.652 37.1223C264.772 37.1319 264.893 37.1173 265.007 37.0792C265.122 37.0411 265.228 36.9805 265.318 36.9008C265.409 36.8211 265.483 36.724 265.535 36.6153C265.588 36.5066 265.618 36.3885 265.624 36.268C265.626 36.0217 265.532 35.7842 265.362 35.6058C265.193 35.4273 264.96 35.3219 264.714 35.3117C264.476 35.301 264.244 35.3849 264.068 35.5449C263.892 35.705 263.786 35.9283 263.774 36.1661Z"/><path fill="#263238" d="M262.3 35.296C262.418 35.4136 263.131 34.8884 264.142 34.8884C265.153 34.8884 265.906 35.3979 266.015 35.2803C266.125 35.1628 265.953 34.9982 265.623 34.763C265.184 34.4578 264.661 34.2962 264.126 34.3006C263.599 34.3005 263.086 34.4679 262.661 34.7787C262.3 35.0138 262.214 35.249 262.3 35.296Z"/><path fill="#263238" d="M258.585 42.8286C258.05 42.6638 257.497 42.5638 256.939 42.5307C256.68 42.5307 256.429 42.4524 256.39 42.2799C256.366 42.0071 256.426 41.7334 256.562 41.4961C256.805 40.869 257.056 40.2106 257.346 39.5208C258.057 37.8474 258.633 36.1201 259.071 34.3554C258.222 35.9664 257.506 37.6442 256.931 39.3719L256.194 41.3628C256.032 41.6765 255.985 42.037 256.061 42.3818C256.1 42.4729 256.159 42.5541 256.233 42.6192C256.308 42.6844 256.396 42.7318 256.492 42.7581C256.635 42.796 256.783 42.817 256.931 42.8208C257.48 42.8917 258.035 42.8944 258.585 42.8286Z"/><path fill="#EB996E" d="M257.887 54.8447C261.367 54.9081 264.796 53.9987 267.787 52.2189C267.787 52.2189 265.388 57.2824 258.02 56.5926L257.887 54.8447Z"/><path fill="#EB996E" d="M259.016 45.2742C259.21 45.0326 259.462 44.8441 259.748 44.7262C260.035 44.6083 260.346 44.5649 260.654 44.6001C260.879 44.6189 261.098 44.6836 261.298 44.79C261.497 44.8965 261.673 45.0426 261.814 45.2193C261.949 45.3884 262.029 45.5947 262.043 45.8105C262.057 46.0263 262.004 46.2413 261.892 46.4264C261.73 46.6096 261.516 46.7397 261.278 46.7998C261.04 46.8599 260.79 46.8473 260.56 46.7634C260.077 46.5935 259.635 46.3268 259.259 45.9796C259.145 45.8986 259.047 45.7977 258.969 45.6817C258.932 45.6258 258.913 45.5604 258.913 45.4936C258.913 45.4268 258.932 45.3615 258.969 45.3055"/><path fill="#263238" d="M261.579 43.5341C261.414 43.5341 261.407 44.6236 260.466 45.4074C259.525 46.1912 258.35 46.0658 258.342 46.1912C258.334 46.3166 258.6 46.4029 259.126 46.4185C259.773 46.426 260.402 46.2069 260.905 45.7993C261.382 45.4065 261.691 44.8454 261.767 44.2317C261.775 43.8006 261.649 43.5262 261.579 43.5341Z"/><path fill="#263238" d="M261.814 33.5167C261.916 33.7911 262.935 33.6578 264.126 33.8067C265.318 33.9557 266.282 34.2692 266.439 34.0262C266.509 33.9086 266.337 33.65 265.953 33.3756C265.436 33.0435 264.848 32.8392 264.236 32.7799C263.627 32.7039 263.008 32.7765 262.433 32.9916C261.994 33.164 261.775 33.3835 261.814 33.5167Z"/><path fill="#263238" d="M252.659 32.1607C252.839 32.3959 253.537 32.1607 254.383 32.1607C255.23 32.1607 255.951 32.3175 256.1 32.0745C256.171 31.9569 256.1 31.7218 255.747 31.5101C255.334 31.2386 254.846 31.1042 254.352 31.1261C253.858 31.1363 253.38 31.2977 252.98 31.5885C252.682 31.8158 252.581 32.051 252.659 32.1607Z"/><path fill="#263238" d="M262.245 20.1603C259.747 20.2877 257.321 21.0425 255.191 22.355C253.997 22.9739 252.936 23.822 252.07 24.8509C251.204 25.8798 250.549 27.0692 250.143 28.3513C250.04 28.618 249.992 28.9029 250.003 29.1886C250.014 29.4743 250.083 29.7549 250.206 30.013C250.439 30.3082 250.767 30.5128 251.135 30.5915C251.503 30.6702 251.887 30.6181 252.22 30.4441C252.885 30.0828 253.45 29.5632 253.866 28.9313C254.032 29.6223 254.427 30.2366 254.988 30.6734C255.548 31.1102 256.241 31.3436 256.951 31.3354C257.662 31.3272 258.348 31.0779 258.899 30.6283C259.449 30.1787 259.83 29.5554 259.98 28.8608C260.036 29.5669 260.362 30.2242 260.891 30.6958C261.419 31.1674 262.109 31.417 262.817 31.3925C263.524 31.3314 264.197 31.0651 264.754 30.6264C265.311 30.1878 265.728 29.5959 265.953 28.9235C266.126 30.198 266.566 31.4215 267.246 32.5134C267.594 33.0554 268.1 33.477 268.696 33.721C269.292 33.9651 269.949 34.0196 270.577 33.8773C270.314 34.9609 270.33 36.0937 270.624 37.1693C271.016 38.204 272.576 55.9107 273.626 55.5501C274.677 55.1895 274.638 37.1302 274.873 36.0798C275.394 34.0651 275.658 31.9922 275.657 29.9111C275.727 27.7671 275.032 25.6682 273.696 23.9895C272.361 22.3108 270.472 21.1619 268.367 20.7482C266.266 20.2662 264.109 20.0684 261.955 20.1603"/><path fill="#263238" d="M276.997 52.407C276.997 52.407 276.926 52.454 276.77 52.5089C276.549 52.5895 276.32 52.6448 276.088 52.6735C274.998 52.8119 273.891 52.6378 272.896 52.1716C271.901 51.7053 271.059 50.966 270.468 50.0398C269.666 48.6444 269.328 47.0305 269.503 45.4309C269.621 43.7457 270.013 42.2094 270.193 40.7985C270.371 39.5459 270.481 38.2848 270.522 37.0204C270.522 35.9388 270.522 35.0687 270.522 34.4573C270.489 34.1447 270.489 33.8293 270.522 33.5167C270.616 33.825 270.671 34.1435 270.687 34.4652C270.773 35.3221 270.815 36.1828 270.812 37.0439C270.811 38.3202 270.73 39.5951 270.569 40.8612C270.397 42.3034 270.029 43.8476 269.911 45.4701C269.743 46.9888 270.05 48.5221 270.789 49.8595C271.433 50.9243 272.424 51.7352 273.595 52.1561C274.382 52.4562 275.224 52.5845 276.064 52.5324C276.668 52.4932 276.989 52.3678 276.997 52.407Z"/><path fill="#455A64" d="M259.651 19.2119C259.936 19.7486 260.069 20.353 260.035 20.9598C260.062 22.4451 259.5 23.8808 258.472 24.953C257.444 26.0252 256.033 26.6468 254.548 26.6817C253.945 26.7396 253.338 26.6311 252.792 26.3682C252.792 26.2977 253.466 26.4858 254.532 26.3682C255.925 26.2736 257.234 25.6644 258.203 24.6591C259.172 23.6538 259.733 22.3241 259.776 20.9285C259.8 19.886 259.58 19.2275 259.651 19.2119Z"/><path fill="#455A64" d="M260.732 27.881C260.772 27.881 260.678 28.3827 260.113 28.9313C259.738 29.2683 259.3 29.526 258.823 29.6889C258.346 29.8519 257.841 29.9168 257.338 29.8798C256.353 29.7918 255.404 29.4664 254.572 28.9313C253.937 28.5316 253.592 28.2259 253.623 28.1475C254.003 28.267 254.366 28.4329 254.705 28.6413C255.532 29.0711 256.434 29.3373 257.362 29.4252C258.283 29.4794 259.192 29.2013 259.925 28.6413C260.497 28.2808 260.685 27.8497 260.732 27.881Z"/><path fill="#455A64" d="M278.486 25.6314C278.538 26.3062 278.491 26.985 278.345 27.6458C278.123 29.283 277.504 30.8411 276.542 32.1842C276.04 32.8502 275.407 33.4066 274.681 33.819C273.956 34.2315 273.154 34.4914 272.325 34.5827C271.821 34.6281 271.313 34.5776 270.828 34.4338C270.491 34.3319 270.326 34.23 270.334 34.2065C270.981 34.3221 271.64 34.3511 272.294 34.2927C273.853 34.0396 275.256 33.1979 276.213 31.9412C277.131 30.6426 277.759 29.1616 278.055 27.5988C278.158 26.9347 278.302 26.2777 278.486 25.6314Z"/><path fill="#455A64" d="M279.834 29.1978C279.906 29.3993 279.946 29.611 279.952 29.8249C280.005 30.3955 280.018 30.9691 279.991 31.5415C279.95 33.4702 279.259 35.3287 278.031 36.8166C277.338 37.6347 276.436 38.2496 275.421 38.5959C274.589 38.8682 273.701 38.9222 272.843 38.7527C272.266 38.6425 271.718 38.4129 271.236 38.0786C270.906 37.8356 270.765 37.6553 270.781 37.6397C271.424 38.0488 272.14 38.3308 272.89 38.4705C273.698 38.5867 274.523 38.5088 275.296 38.2432C276.237 37.8958 277.074 37.3129 277.726 36.5501C278.89 35.1174 279.583 33.3597 279.709 31.518C279.834 30.0992 279.764 29.2057 279.834 29.1978Z"/><path fill="#455A64" d="M176.518 123.939L162.292 156.476H181.879L195.831 123.68L176.518 123.939Z"/><path fill="#E0E0E0" d="M166.171 89.3331L182.216 120.89H232.82L230.775 116.767L216.117 116.328L204.164 89.725C203.8 88.9145 203.211 88.2265 202.465 87.7439C201.72 87.2612 200.85 87.0047 199.962 87.0051H167.598C167.32 86.9952 167.045 87.0591 166.8 87.1905C166.556 87.3219 166.35 87.5159 166.205 87.7527C166.06 87.9895 165.98 88.2606 165.975 88.5383C165.969 88.816 166.037 89.0903 166.171 89.3331Z"/><path fill="#263238" d="M191.513 103.481C191.513 103.864 191.399 104.238 191.186 104.557C190.974 104.875 190.671 105.123 190.317 105.27C189.964 105.416 189.574 105.455 189.199 105.38C188.823 105.305 188.478 105.121 188.208 104.85C187.937 104.579 187.752 104.234 187.678 103.859C187.603 103.483 187.641 103.094 187.788 102.74C187.934 102.386 188.183 102.084 188.501 101.871C188.819 101.659 189.194 101.545 189.577 101.545C190.089 101.547 190.581 101.752 190.943 102.114C191.306 102.477 191.511 102.968 191.513 103.481Z"/><path fill="#455A64" d="M238.213 120.953H176.353V123.97H238.213V120.953Z"/><path fill="#455A64" d="M219.158 122.465L237.978 156.507H246.976L248.936 152.611L250.739 148.512L238.213 123.97L219.158 122.465Z"/><path fill="#49AAAA" d="M251.859 64.1017C251.859 64.1017 240.933 67.9503 238.581 80.178L250.119 85.9313L251.859 64.1017Z"/><path fill="#49AAAA" d="M251.859 64.1017C251.859 64.1017 244.217 81.2362 244.507 90.5951C244.609 93.8479 246.741 102.352 246.741 102.352L250.715 123.406C250.715 123.406 281.135 119.291 281.81 119.291C282.484 119.291 280.791 102.008 280.791 102.008L285.752 68.7968C285.752 68.7968 283.479 64.2741 273.211 62.7065C267.058 61.7424 251.859 64.1017 251.859 64.1017Z"/><path fill="#263238" d="M248.975 74.0485C249.046 74.0877 248.246 75.3653 247.282 77.5757C246.723 78.8699 246.252 80.2001 245.871 81.5575C245.413 83.2208 245.08 84.916 244.876 86.6289C244.695 88.3444 244.64 90.0708 244.711 91.7943C244.782 93.2016 244.947 94.6025 245.205 95.9878C245.644 98.3393 246.145 99.7815 246.067 99.805C245.903 99.493 245.771 99.1646 245.675 98.8253C245.535 98.437 245.415 98.042 245.315 97.6417C245.189 97.1714 245.025 96.6462 244.915 96.074C244.621 94.6788 244.427 93.2643 244.335 91.8413C244.241 90.0952 244.285 88.3445 244.468 86.6054C244.677 84.8687 245.025 83.1518 245.51 81.4713C245.913 80.1051 246.419 78.7714 247.023 77.4816C247.243 76.9807 247.489 76.4914 247.76 76.0159C247.947 75.6473 248.154 75.2888 248.379 74.942C248.547 74.6247 248.747 74.3253 248.975 74.0485Z"/><path fill="#49AAAA" d="M255.559 63.9449L255.998 59.242C256.046 58.7532 256.273 58.2993 256.634 57.9667C256.995 57.6342 257.467 57.4464 257.958 57.4392L272.968 57.2118C273.423 57.2065 273.864 57.3743 274.2 57.6814C274.536 57.9885 274.743 58.4118 274.779 58.8657L275.163 63.9371C273.906 66.6005 271.78 68.7567 269.135 70.0509C264.722 72.1908 257.864 72.2613 257.864 72.2613L255.559 63.9449Z"/><path fill="#263238" d="M259.486 57.4783C259.533 57.4783 259.314 57.784 259.22 58.2622C259.135 58.9546 259.135 59.6547 259.22 60.3471C259.351 61.3566 259.351 62.3789 259.22 63.3884C258.95 62.4051 258.813 61.3902 258.812 60.3707C258.707 59.6448 258.739 58.9057 258.906 58.1916C259.165 57.6508 259.463 57.4392 259.486 57.4783Z"/><path fill="#263238" d="M263.084 63.2943C262.822 62.3343 262.695 61.3423 262.708 60.3471C262.649 59.6429 262.649 58.935 262.708 58.2308C262.786 57.6665 263.013 57.3764 263.06 57.447C263.107 57.5175 262.99 57.7762 262.998 58.2935C263.006 58.8108 263.084 59.5476 263.084 60.3315C263.216 61.3147 263.216 62.3111 263.084 63.2943Z"/><path fill="#263238" d="M267.591 63.1689C267.267 62.2543 267.069 61.2997 267.003 60.3315C266.809 59.3724 266.749 58.3913 266.823 57.4156C267.15 58.3374 267.348 59.3003 267.411 60.2766C267.601 61.2281 267.662 62.2011 267.591 63.1689Z"/><path fill="#263238" d="M271.479 63.4668C271.121 62.4595 270.93 61.4004 270.914 60.3315C270.764 59.2658 270.79 58.1826 270.993 57.1256C271.198 58.1585 271.308 59.208 271.322 60.2609C271.474 61.3223 271.527 62.3956 271.479 63.4668Z"/><g opacity=".3"><path fill="#000" d="M274.457 81.4243C273.854 86.6994 274.253 95.7918 276.119 100.769L284.882 86.2918L274.457 81.4243Z"/></g><path fill="#49AAAA" d="M284.937 67.7073L284.984 67.7543C287.469 70.3628 289.287 73.5332 290.283 76.9956L291.897 84.3558L274.653 87.0208C273.704 83.8989 273.479 80.6017 273.995 77.3797C274.841 71.8302 284.937 67.7073 284.937 67.7073Z"/><path fill="#263238" d="M291.897 84.3558C291.785 84.3953 291.67 84.4242 291.553 84.442L290.565 84.6223L286.873 85.2258L274.379 87.1227H274.159V86.8954C274.12 85.8529 274.089 84.7712 274.065 83.6582C274.026 80.7658 274.065 77.9989 274.238 75.4829C274.357 73.2281 275.048 71.0407 276.244 69.126C277.049 67.8382 278.151 66.7628 279.458 65.9907C279.811 65.7811 280.184 65.6078 280.571 65.4734C280.7 65.414 280.838 65.3743 280.979 65.3558C280.979 65.3558 280.43 65.5674 279.536 66.1396C278.293 66.9365 277.249 68.0094 276.487 69.2749C275.352 71.1777 274.706 73.332 274.606 75.5456C274.426 78.0381 274.434 80.7972 274.481 83.6895C274.481 84.7869 274.536 85.8764 274.559 86.9111L274.332 86.7151L286.873 84.9515L290.581 84.4734L291.584 84.3558C291.688 84.3422 291.793 84.3422 291.897 84.3558Z"/><path fill="#FAFAFA" d="M255.473 73.5468C254.595 73.0357 253.789 72.4111 253.074 71.6891C252.269 71.0677 251.552 70.3399 250.942 69.5257C252.625 70.658 254.149 72.0103 255.473 73.5468Z"/><path fill="#FAFAFA" d="M253.145 82.6157C252.53 83.2472 251.818 83.7764 251.036 84.1833C250.319 84.7034 249.526 85.1105 248.685 85.3904C250.015 84.2471 251.514 83.3164 253.129 82.6314L253.145 82.6157Z"/><path fill="#FAFAFA" d="M262.763 84.8496C262.623 83.7357 262.623 82.6087 262.763 81.4948C262.768 80.3749 262.905 79.2595 263.17 78.1714C263.307 79.2828 263.307 80.4069 263.17 81.5183C263.167 82.641 263.03 83.7593 262.763 84.8496Z"/><path fill="#FAFAFA" d="M272.114 93.9185C271.333 93.1863 270.605 92.4005 269.935 91.567C269.164 90.8327 268.444 90.0471 267.779 89.2155C268.72 89.7614 269.551 90.4762 270.232 91.324C271.008 92.0707 271.645 92.9492 272.114 93.9185Z"/><path fill="#FAFAFA" d="M273.43 74.9577C272.758 75.6574 271.99 76.2591 271.149 76.7448C270.38 77.3373 269.534 77.8225 268.633 78.1871C269.308 77.4861 270.079 76.8844 270.922 76.3999C271.691 75.8106 272.534 75.3256 273.43 74.9577Z"/><path fill="#FAFAFA" d="M264.981 68.0992C264.237 68.8228 263.398 69.4424 262.488 69.9412C261.654 70.559 260.742 71.065 259.776 71.4461C260.521 70.7213 261.359 70.0992 262.269 69.5963C263.107 68.9861 264.018 68.4831 264.981 68.0992Z"/><path fill="#FAFAFA" d="M272.6 70.8269C272.086 70.0682 271.685 69.2392 271.408 68.3657C271.022 67.5352 270.758 66.6535 270.624 65.7477C271.144 66.5057 271.546 67.3382 271.816 68.2168C272.206 69.0427 272.47 69.9226 272.6 70.8269Z"/><path fill="#FAFAFA" d="M283.079 74.2679C281.826 73.3988 280.738 72.3132 279.866 71.0621C280.529 71.4416 281.121 71.9351 281.614 72.52C282.204 73.009 282.701 73.6013 283.079 74.2679Z"/><path fill="#FAFAFA" d="M278.76 81.9102C278.511 81.136 278.397 80.3246 278.423 79.5117C278.307 78.709 278.33 77.892 278.494 77.0975C278.854 78.6752 278.944 80.3025 278.76 81.9102Z"/><path fill="#FAFAFA" d="M287.469 80.3269C286.557 80.4723 285.625 80.4403 284.725 80.2328C283.807 80.1577 282.911 79.9104 282.084 79.5039C282.995 79.5135 283.902 79.6239 284.788 79.8331C285.697 79.9017 286.595 80.0673 287.469 80.3269Z"/><path fill="#FAFAFA" d="M252.353 96.121C251.714 95.2361 251.188 94.275 250.786 93.2601C250.26 92.3022 249.855 91.2834 249.579 90.2266C250.218 91.1116 250.744 92.0726 251.146 93.0876C251.673 94.0447 252.079 95.0637 252.353 96.121Z"/><path fill="#FAFAFA" d="M263.868 108.49C263.131 107.82 262.49 107.053 261.963 106.209C261.333 105.439 260.806 104.591 260.395 103.685C261.134 104.355 261.777 105.122 262.308 105.966C262.941 106.732 263.465 107.581 263.868 108.49Z"/><path fill="#FAFAFA" d="M273.383 103.301C272.577 103.827 271.701 104.238 270.781 104.524C269.909 104.935 268.983 105.218 268.03 105.362C269.706 104.422 271.509 103.728 273.383 103.301Z"/><path fill="#FAFAFA" d="M249.939 113.318C250.316 111.839 250.95 110.438 251.812 109.18C251.68 109.939 251.414 110.668 251.029 111.335C250.785 112.055 250.416 112.726 249.939 113.318Z"/><path fill="#FAFAFA" d="M242.563 77.897C242.11 77.3229 241.837 76.6274 241.779 75.8983C241.595 75.1918 241.628 74.446 241.874 73.7584C242.035 74.4384 242.14 75.1305 242.187 75.8277C242.368 76.5062 242.494 77.1982 242.563 77.897Z"/><path fill="#FAFAFA" d="M255.661 105.386C254.824 105.165 254.03 104.808 253.31 104.328C252.529 103.973 251.809 103.497 251.178 102.917C252.013 103.141 252.807 103.498 253.529 103.975C254.307 104.335 255.025 104.811 255.661 105.386Z"/><path fill="#FAFAFA" d="M263.225 92.3273C261.94 93.8667 260.446 95.22 258.789 96.3484C259.383 95.537 260.085 94.8093 260.873 94.185C261.569 93.4615 262.36 92.8365 263.225 92.3273Z"/><g opacity=".3"><path fill="#000" d="M258.593 92.0843C258.973 94.8167 260.191 97.3637 262.081 99.3739C264.04 101.286 267.074 102.251 269.621 101.255C269.899 101.179 270.155 101.036 270.367 100.839C270.578 100.643 270.739 100.398 270.836 100.126C270.879 99.7921 270.805 99.4532 270.626 99.1674C270.448 98.8816 270.176 98.6665 269.856 98.5587C269.221 98.3546 268.556 98.2592 267.889 98.2766C265.988 98.1519 264.151 97.5434 262.551 96.5091C260.952 95.4747 259.643 94.0487 258.749 92.3665"/></g><path fill="#263238" d="M268.782 98.402C268.782 98.402 268.602 98.4647 268.257 98.496C267.772 98.545 267.284 98.545 266.799 98.496C266.079 98.4115 265.372 98.2431 264.691 97.9944C263.01 97.3901 261.518 96.3548 260.364 94.9923C259.895 94.4401 259.493 93.8351 259.165 93.1895C258.934 92.7594 258.752 92.3045 258.624 91.8335C258.561 91.6654 258.526 91.4879 258.522 91.3083C258.6 91.3083 258.812 92.0138 259.416 93.0484C259.769 93.6521 260.181 94.2192 260.646 94.7415C261.222 95.3768 261.866 95.9472 262.567 96.4424C263.274 96.9218 264.031 97.3239 264.824 97.6417C265.475 97.8975 266.15 98.0866 266.838 98.206C268.022 98.3785 268.782 98.3236 268.782 98.402Z"/><path fill="#FFBE9D" d="M225.633 111.037L236.982 109.713L244.985 114.956L275.555 107.62L276.276 86.6759L289.859 84.8888V110.246C289.783 113.324 288.49 116.247 286.262 118.373C284.035 120.499 281.055 121.655 277.977 121.588L233.173 120.341L231.268 116.532L221.651 116.242L225.633 111.037Z"/><path fill="#EB996E" d="M275.194 107.581C275.006 107.656 274.812 107.716 274.614 107.761L272.952 108.192L266.815 109.713L246.529 114.627L244.64 115.082H244.562H244.499L236.504 109.822H236.614L225.256 111.139L225.335 111.092L222.325 114.909L221.541 115.913C221.454 116.033 221.354 116.143 221.243 116.242C221.316 116.114 221.397 115.991 221.486 115.874L222.27 114.839L225.186 110.967H225.233L236.575 109.548H236.638H236.685L244.695 114.784H244.554L246.443 114.329L266.752 109.517L272.921 108.098L274.598 107.73C274.793 107.664 274.992 107.615 275.194 107.581Z"/><path fill="#EB996E" d="M231.833 114.29C230.368 114.461 228.893 114.519 227.42 114.463H226.636L226.746 114.423C225.859 115.238 224.902 115.973 223.885 116.618C224.693 115.726 225.574 114.903 226.518 114.157L226.565 114.11H227.435C228.904 114.05 230.374 114.11 231.833 114.29Z"/><path fill="#EB996E" d="M280.83 111.006C280.246 110.084 279.487 109.285 278.596 108.654C277.651 108.12 276.609 107.779 275.531 107.651C275.848 107.541 276.188 107.514 276.519 107.573C277.319 107.657 278.089 107.925 278.769 108.356C279.449 108.787 280.02 109.37 280.438 110.057C280.649 110.334 280.785 110.661 280.83 111.006Z"/><path fill="#263238" d="M84.8023 278.447H33.6184V285.478H84.8023V278.447Z"/><path fill="#263238" d="M84.8885 285.572H33.5322V278.361H84.8885V285.572ZM33.7046 285.392H84.7161V278.533H33.7046V285.392Z"/><path fill="#263238" d="M38.3684 283.142L45.7285 319.488H72.99L80.115 285.486L38.3684 283.142Z"/><path fill="#455A64" d="M38.3684 316.047L42.2953 321.456H75.4277L80.115 316.047H38.3684Z"/><path fill="#263238" d="M57.29 284.2C57.1881 284.2 57.0627 267.364 56.9999 246.577C56.9372 225.79 56.9999 208.953 57.0783 208.953C57.1567 208.953 57.3056 225.79 57.3683 246.577C57.4311 267.364 57.3919 284.2 57.29 284.2Z"/><path fill="#263238" d="M68.6946 242.062C68.6605 242.197 68.6133 242.328 68.5536 242.454C68.436 242.744 68.2792 243.104 68.0989 243.543C67.997 243.786 67.8873 244.045 67.7619 244.327C67.6365 244.609 67.5424 244.946 67.4248 245.283L67.0251 246.381C66.8918 246.773 66.7821 247.165 66.6489 247.635C66.0407 249.693 65.5616 251.788 65.2144 253.906C64.8211 256.503 64.5595 259.12 64.4306 261.744C64.2456 266.518 64.3817 271.3 64.8382 276.057C65.0028 277.891 65.1674 279.364 65.2928 280.383C65.3399 280.861 65.3869 281.253 65.4183 281.559C65.4288 281.697 65.4288 281.836 65.4183 281.974C65.3688 281.843 65.3372 281.706 65.3242 281.567C65.2693 281.261 65.2066 280.877 65.1282 280.407C64.9636 279.388 64.752 277.914 64.556 276.088C64.023 271.321 63.8527 266.521 64.0466 261.728C64.1628 259.09 64.4245 256.46 64.8304 253.851C65.1929 251.728 65.701 249.633 66.351 247.58C66.4921 247.141 66.6097 246.718 66.7508 246.334L67.174 245.236L67.5503 244.288C67.6757 243.998 67.8011 243.747 67.9108 243.504L68.436 242.438C68.5017 242.3 68.589 242.173 68.6946 242.062Z"/><path fill="#263238" d="M67.3857 228.447C67.3423 228.636 67.2873 228.821 67.2211 229.003C67.0878 229.387 66.9075 229.913 66.6881 230.571L66.2962 231.7C66.1707 232.123 66.0297 232.578 65.8807 233.064C65.5829 234.036 65.238 235.141 64.9323 236.387L64.415 238.339C64.2582 239.021 64.1014 239.734 63.9368 240.463C63.5763 241.929 63.3176 243.52 62.9884 245.166C62.424 248.505 61.9302 252.22 61.5853 256.1C61.2405 259.98 61.1229 263.735 61.0759 267.129C61.0288 270.523 61.0759 273.58 61.2483 276.143C61.2875 277.428 61.3737 278.58 61.4364 279.599C61.4991 280.618 61.5618 281.496 61.6245 282.21C61.6872 282.923 61.7186 283.448 61.75 283.863C61.7604 284.054 61.7604 284.245 61.75 284.436C61.6996 284.251 61.6681 284.062 61.6559 283.871C61.6089 283.456 61.5462 282.915 61.4599 282.225C61.3737 281.535 61.2875 280.658 61.2091 279.615C61.1307 278.573 61.0288 277.444 60.9661 276.158C60.7937 273.587 60.7231 270.531 60.7153 267.129C60.7075 263.727 60.8721 259.988 61.2013 256.077C61.5305 252.165 62.0557 248.458 62.6357 245.103C62.9727 243.434 63.2471 241.842 63.6155 240.4C63.7879 239.663 63.9604 238.95 64.1171 238.268L64.658 236.324C64.9793 235.078 65.3477 233.973 65.6691 233.001C65.8259 232.515 65.9748 232.068 66.108 231.645C66.2413 231.222 66.3981 230.861 66.5313 230.524L67.127 228.956C67.1938 228.777 67.2806 228.606 67.3857 228.447Z"/><path fill="#263238" d="M54.0528 287.179C54.0446 287.114 54.0446 287.048 54.0528 286.983C54.0528 286.834 54.0528 286.646 54.0057 286.403C53.9665 285.87 53.9195 285.125 53.8568 284.177C53.7314 282.21 53.559 279.419 53.3395 275.97C52.9006 269.049 52.2578 259.51 51.0899 248.967C50.4942 243.7 49.8044 238.707 49.0833 234.177C48.7071 231.919 48.3622 229.771 47.9624 227.765C47.5627 225.758 47.1786 223.901 46.8651 222.2C46.5515 220.499 46.1518 218.978 45.8461 217.638C45.5404 216.297 45.2661 215.137 45.0623 214.197C44.8585 213.256 44.6625 212.551 44.5293 212.026C44.4822 211.798 44.4352 211.61 44.4039 211.461C44.3917 211.397 44.3917 211.33 44.4039 211.265C44.4361 211.324 44.4599 211.388 44.4744 211.453L44.6312 212.01C44.7801 212.527 44.9761 213.248 45.2347 214.165C45.4934 215.083 45.7991 216.243 46.1204 217.591C46.4418 218.939 46.8337 220.452 47.1864 222.153C47.5392 223.854 47.9703 225.703 48.3308 227.71C48.6914 229.717 49.1147 231.864 49.4909 234.13C50.2277 238.66 50.9253 243.661 51.521 248.92C52.6889 259.455 53.2925 269.026 53.6687 275.955C53.8568 279.427 53.9901 282.225 54.0684 284.169C54.0684 285.118 54.1312 285.862 54.1468 286.403C54.1468 286.638 54.1468 286.834 54.1468 286.983C54.1255 287.053 54.0938 287.119 54.0528 287.179Z"/><path fill="#49AAAA" d="M56.8745 217.097C56.6472 214.746 54.2409 212.911 51.8424 212.888C50.6427 212.941 49.4708 213.266 48.4156 213.839C47.3603 214.412 46.4495 215.218 45.752 216.196C44.3724 218.163 43.3752 220.373 42.8127 222.709C41.198 228.329 40.3201 234.231 41.0099 240.04C41.6996 245.848 44.0511 251.562 48.2211 255.661C48.8952 256.335 49.7887 257.002 50.7058 256.798C51.2021 256.653 51.6528 256.383 52.0148 256.014C56.0962 252.277 59.331 247.711 61.5022 242.621C63.6733 237.531 64.7306 232.035 64.6031 226.503C64.5404 224.3 64.2503 221.996 63.0354 220.162C61.8205 218.328 58.9595 216.368 56.8824 217.105"/><path fill="#49AAAA" d="M38.9797 197.972L35.6093 204.085C35.5309 204.227 35.429 204.391 35.2644 204.399C35.0998 204.407 34.9509 204.25 34.8568 204.101L25.9368 190.447L27.9905 189.279L38.9797 197.972Z"/><g opacity=".2"><path fill="#000" d="M38.9797 197.972L35.6093 204.085C35.5309 204.227 35.429 204.391 35.2644 204.399C35.0998 204.407 34.9509 204.25 34.8568 204.101L25.9368 190.447L27.9905 189.279L38.9797 197.972Z"/></g><path fill="#49AAAA" d="M57.0783 208.984L26.6501 191.027C26.477 190.96 26.3186 190.86 26.1841 190.733C26.0496 190.605 25.9416 190.452 25.8663 190.282C25.7487 189.835 26.0858 189.397 26.4072 189.059C28.5009 186.89 31.0372 185.196 33.8436 184.094C36.6501 182.992 39.6609 182.506 42.6716 182.671C45.681 182.888 48.5925 183.834 51.1544 185.427C53.7164 187.021 55.8518 189.215 57.3762 191.819C60.3077 197.062 60.4096 204.007 57.0391 208.984"/><path fill="#263238" d="M31.0709 185.297C31.201 185.261 31.3358 185.245 31.4707 185.25C31.7294 185.25 32.1213 185.187 32.6229 185.195C34.0357 185.176 35.4472 185.286 36.8399 185.524C38.9147 185.88 40.937 186.494 42.8597 187.351C46.1781 188.844 49.1253 191.052 51.4899 193.818C53.8546 196.584 55.5783 199.838 56.5375 203.349C56.9302 204.711 57.1926 206.107 57.3213 207.519C57.384 208.012 57.3684 208.404 57.384 208.671C57.3976 208.804 57.3976 208.938 57.384 209.071C57.384 209.071 57.3135 208.522 57.1881 207.503C57.0145 206.11 56.7288 204.734 56.3337 203.388C55.0577 198.92 52.5548 194.899 49.1091 191.782C45.6634 188.664 41.4129 186.575 36.8399 185.752C35.4617 185.49 34.0645 185.34 32.6621 185.305C31.5883 185.313 31.0709 185.328 31.0709 185.297Z"/><path fill="#263238" d="M52.9554 196.592C52.4649 196.891 51.9381 197.125 51.3877 197.29C50.4158 197.674 49.0363 198.16 47.547 198.646C46.0577 199.132 44.6468 199.508 43.6279 199.759C43.0871 199.924 42.5299 200.029 41.9661 200.072C42.4675 199.83 42.9929 199.641 43.5338 199.508L47.4059 198.293L51.2702 197.047C51.8155 196.84 52.38 196.687 52.9554 196.592Z"/><path fill="#263238" d="M48.1662 183.722C48.4386 184.832 48.5599 185.973 48.5268 187.116C48.6163 188.255 48.553 189.402 48.3387 190.525C48.1917 189.398 48.1341 188.26 48.1662 187.123C48.0766 185.991 48.0766 184.854 48.1662 183.722Z"/><path fill="#263238" d="M26.368 190.69C27.0799 190.363 27.8196 190.101 28.5784 189.906C29.9579 189.475 31.8861 188.934 34.0652 188.417C36.2442 187.899 38.1724 187.508 39.552 187.257C40.3252 187.084 41.112 186.979 41.9034 186.943C41.1593 187.182 40.3999 187.371 39.6303 187.508C38.2195 187.821 36.2756 188.291 34.1435 188.777C32.0115 189.263 30.0755 189.788 28.6568 190.149C27.9066 190.38 27.142 190.56 26.368 190.69Z"/><path fill="#49AAAA" d="M43.0478 211.438C40.4298 209.455 37.6629 209.086 34.3787 209.188C31.0939 209.397 27.8772 210.219 24.8944 211.61C19.7603 213.852 14.9398 217.168 11.875 221.855C8.81023 226.542 7.73639 232.75 10.033 237.861C10.2137 238.395 10.5848 238.844 11.0755 239.123C11.6455 239.281 12.2534 239.234 12.7921 238.989C18.6316 237.085 24.5025 235.164 29.8717 232.186C35.2409 229.207 40.1241 225.061 43.0008 219.644C43.7374 218.38 44.212 216.981 44.396 215.529C44.4745 214.795 44.3956 214.052 44.1644 213.351C43.9333 212.649 43.5553 212.005 43.0557 211.461"/><path fill="#263238" d="M43.0948 210.826C42.9641 210.901 42.8245 210.959 42.6794 210.999L41.4566 211.422L40.5709 211.712C40.2496 211.83 39.9047 211.971 39.5363 212.12C38.7995 212.418 37.9686 212.715 37.0359 213.154L35.6093 213.805C35.1076 214.032 34.6138 214.314 34.0887 214.589C33.0305 215.106 31.9645 215.772 30.8201 216.446C25.9322 219.477 21.5827 223.299 17.9497 227.757C17.1658 228.8 16.3428 229.779 15.6922 230.767C15.3552 231.253 15.0181 231.708 14.7203 232.17L13.9365 233.503C13.3878 234.341 12.9802 235.156 12.5883 235.854C12.4002 236.199 12.212 236.52 12.0553 236.826C11.8985 237.132 11.7731 237.406 11.6555 237.665L11.0755 238.825C11.0209 238.965 10.947 239.097 10.856 239.217C10.8942 239.071 10.9467 238.929 11.0128 238.793L11.5223 237.602C11.6398 237.343 11.7653 237.061 11.8985 236.748C12.0318 236.434 12.2277 236.113 12.408 235.76C12.7842 235.047 13.1918 234.192 13.7092 233.369C13.9757 232.938 14.2422 232.484 14.493 232.013C14.7438 231.543 15.12 231.088 15.4492 230.595C16.092 229.591 16.8837 228.604 17.691 227.545C19.5178 225.3 21.5203 223.203 23.6794 221.275C25.8626 219.378 28.1956 217.661 30.6555 216.141C31.8077 215.467 32.8894 214.808 33.9554 214.299C34.4884 214.032 34.9901 213.758 35.5231 213.515L36.9732 212.888C37.8902 212.457 38.7524 212.175 39.5049 211.892C39.8812 211.759 40.226 211.626 40.5552 211.516L41.4488 211.25L42.6951 210.897C42.8264 210.864 42.96 210.84 43.0948 210.826Z"/><path fill="#263238" d="M22.6526 221.894C20.5687 222.688 18.4441 223.371 16.2879 223.94C14.1642 224.63 12.0025 225.198 9.81352 225.641C11.8975 224.847 14.022 224.164 16.1782 223.595C18.3033 222.909 20.4647 222.341 22.6526 221.894Z"/><path fill="#263238" d="M22.3861 235.909C22.2792 235.253 22.232 234.59 22.245 233.926C22.245 232.703 22.245 231.002 22.245 229.137C22.245 227.271 22.4018 225.57 22.5037 224.347C22.5196 223.682 22.6037 223.02 22.7545 222.372C22.8073 223.035 22.8073 223.7 22.7545 224.363C22.7075 225.703 22.6605 227.334 22.6056 229.144C22.5507 230.955 22.5194 232.585 22.4802 233.926C22.5095 234.588 22.478 235.252 22.3861 235.909Z"/><path fill="#263238" d="M34.4257 229.811C34.3238 229.811 34.0024 226.37 33.7124 222.113C33.4224 217.857 33.2578 214.401 33.3597 214.401C33.4616 214.401 33.7751 217.834 34.073 222.09C34.3708 226.346 34.5276 229.803 34.4257 229.811Z"/><path fill="#263238" d="M19.4468 214.064C20.1226 213.978 20.8049 213.957 21.4847 214.001C22.7388 214.001 24.4789 214.048 26.3993 214.111C28.3197 214.173 30.052 214.252 31.3061 214.322C31.987 214.331 32.6661 214.397 33.3362 214.518C32.6604 214.604 31.978 214.625 31.2982 214.581C30.0441 214.581 28.304 214.542 26.3836 214.471C24.4633 214.401 22.731 214.33 21.469 214.26C20.7906 214.252 20.1141 214.186 19.4468 214.064Z"/><path fill="#263238" d="M49.5301 257.292C49.4952 257.153 49.4794 257.011 49.483 256.868C49.483 256.563 49.483 256.163 49.4282 255.677C49.3811 254.635 49.3733 253.137 49.4282 251.272C49.483 249.406 49.5849 247.204 49.8044 244.758C50.0239 242.313 50.3844 239.624 50.8783 236.826C51.3721 234.028 51.9835 231.402 52.6027 228.988C53.2219 226.573 53.896 224.496 54.5074 222.717C55.1188 220.938 55.6361 219.582 56.075 218.594C56.2631 218.139 56.4121 217.81 56.5375 217.489C56.5856 217.358 56.6459 217.232 56.7178 217.113C56.7006 217.251 56.6609 217.386 56.6002 217.512L56.1534 218.665C55.7929 219.637 55.299 221.016 54.7268 222.819C54.1547 224.622 53.5276 226.738 52.9084 229.09C52.2891 231.441 51.7091 234.09 51.2075 236.881C50.7058 239.671 50.3688 242.368 50.1179 244.774C49.8671 247.18 49.726 249.414 49.6633 251.264C49.6006 253.114 49.5614 254.619 49.5614 255.661C49.5614 256.147 49.5614 256.539 49.5614 256.853C49.5613 257 49.5508 257.146 49.5301 257.292Z"/><path fill="#263238" d="M51.1291 236.528C50.7732 237.015 50.3659 237.461 49.9141 237.861C49.1303 238.644 48.0094 239.695 46.7396 240.816C45.4698 241.937 44.2706 242.901 43.3848 243.583C42.9318 243.977 42.4378 244.321 41.9113 244.609C42.3102 244.158 42.7511 243.746 43.2281 243.379L46.4966 240.541L49.7417 237.672C50.1667 237.248 50.6313 236.865 51.1291 236.528Z"/><path fill="#263238" d="M60.7623 244.28C60.2856 243.719 59.8532 243.121 59.469 242.493L56.4669 238.104L53.3943 233.761C52.9386 233.182 52.5273 232.568 52.1637 231.927C52.6942 232.439 53.1745 233.001 53.5981 233.604C54.4447 234.678 55.5734 236.183 56.7335 237.9C57.8935 239.616 58.9438 241.192 59.6571 242.352C60.085 242.959 60.4551 243.604 60.7623 244.28Z"/><path fill="#263238" d="M55.7145 219.88C55.7693 219.966 52.5792 222.121 48.5738 224.692C44.5684 227.263 41.2842 229.286 41.2293 229.199C41.1745 229.113 44.3646 226.958 48.3778 224.387C52.391 221.816 55.6674 219.801 55.7145 219.88Z"/><path fill="#263238" d="M64.7755 229.638C63.0864 228.232 61.4721 226.738 59.9393 225.163C58.3253 223.681 56.7945 222.111 55.3539 220.46C57.049 221.862 58.6662 223.356 60.198 224.935C61.813 226.414 63.3413 227.984 64.7755 229.638Z"/><path fill="#49AAAA" d="M67.0094 229.427L69.7528 229.199C71.7038 229.04 73.5969 228.459 75.3023 227.498C76.137 227.012 77.0008 226.577 77.889 226.197C81.2829 224.841 85.0767 225.084 88.7293 224.896C94.714 224.595 100.577 223.097 105.974 220.491C106.298 220.348 106.571 220.11 106.757 219.809C107.322 218.782 106.271 217.865 105.37 217.309C100.738 214.455 96.0267 211.571 90.7829 210.152C85.5391 208.734 79.5742 208.977 75.1064 212.057C69.8547 215.678 67.9343 223.109 67.0486 229.427"/><path fill="#263238" d="M106.781 219.448C106.623 219.384 106.468 219.31 106.318 219.229L105.017 218.547C103.889 217.951 102.266 217.073 100.205 216.094C97.8169 214.914 95.3272 213.954 92.766 213.225C89.6339 212.324 86.3535 212.058 83.1171 212.441C79.8761 212.801 76.8151 214.116 74.3225 216.219C72.3757 218.028 70.8181 220.215 69.745 222.646C68.7809 224.708 68.1773 226.464 67.7541 227.655L67.2603 229.043C67.2117 229.207 67.1487 229.367 67.0721 229.521C67.0947 229.35 67.1341 229.182 67.1897 229.019C67.2995 228.666 67.4405 228.196 67.613 227.616C68.1361 225.904 68.759 224.223 69.4785 222.584C70.5347 220.096 72.0992 217.856 74.0717 216.007C76.5993 213.83 79.724 212.465 83.0387 212.088C86.319 211.692 89.6456 211.958 92.8209 212.872C95.3966 213.628 97.8971 214.62 100.291 215.835C102.337 216.854 103.943 217.763 105.056 218.398L106.326 219.143C106.49 219.225 106.643 219.328 106.781 219.448Z"/><path fill="#263238" d="M100.189 223.015C100.134 223.093 96.5362 220.773 92.1625 217.826C87.7887 214.879 84.285 212.418 84.3242 212.339C84.3634 212.261 87.969 214.581 92.3427 217.528C96.7165 220.475 100.244 222.929 100.189 223.015Z"/><path fill="#263238" d="M96.74 211.986C94.9097 212.562 92.9778 212.741 91.0729 212.512C92.0044 212.318 92.9514 212.208 93.9025 212.182C94.8409 212.035 95.7903 211.97 96.74 211.986Z"/><path fill="#263238" d="M80.6324 209.102C79.9469 210.724 79.048 212.248 77.9595 213.632C78.2401 212.798 78.6358 212.006 79.1353 211.281C79.5284 210.487 80.0325 209.754 80.6324 209.102Z"/><path fill="#263238" d="M83.846 225.131C83.24 224.879 82.662 224.563 82.1216 224.191C81.0791 223.564 79.6761 222.623 78.2025 221.549C76.7289 220.475 75.3885 219.433 74.4323 218.68C73.897 218.302 73.3984 217.874 72.943 217.403C73.5254 217.706 74.0767 218.066 74.589 218.477L78.422 221.259C79.9112 222.341 81.2829 223.289 82.2862 223.979C82.8388 224.317 83.3607 224.702 83.846 225.131Z"/><path fill="#49AAAA" d="M71.0461 241.098C68.4281 240.4 65.3007 242.948 64.7755 245.605C64.2503 248.262 65.238 250.974 66.398 253.443C68.8944 258.925 72.5975 263.773 77.2305 267.623C81.9036 271.455 87.7345 273.595 93.7771 273.697C92.6719 268.555 94.0671 263.178 93.4558 257.95C92.9096 253.345 90.8175 249.062 87.5215 245.8C84.2255 242.538 79.9205 240.491 75.3102 239.993C73.6406 239.812 71.7045 239.554 71.0383 241.098"/><path fill="#263238" d="M93.7771 273.697C93.6458 273.654 93.5196 273.596 93.4009 273.525C93.0577 273.331 92.7301 273.111 92.4211 272.866C91.3233 271.911 90.4416 270.732 89.8345 269.41C89.4191 268.626 88.9488 267.717 88.4941 266.737C88.0395 265.757 87.5849 264.722 87.0833 263.601C86.5804 262.454 86.0017 261.341 85.351 260.27C84.6531 259.129 83.8668 258.044 82.9995 257.025C81.2124 254.925 79.2842 253.106 77.6146 251.358C76.1052 249.837 74.7309 248.187 73.5074 246.428C72.6877 245.235 72.014 243.948 71.5008 242.595C71.3362 242.117 71.2108 241.733 71.148 241.474C71.1046 241.345 71.0783 241.21 71.0697 241.074C71.0697 241.074 71.2499 241.607 71.634 242.548C72.193 243.865 72.892 245.119 73.719 246.287C74.9659 248.008 76.35 249.625 77.8576 251.123C79.535 252.847 81.4711 254.666 83.2817 256.79C84.169 257.822 84.9736 258.923 85.688 260.082C86.3361 261.171 86.9147 262.299 87.4203 263.46L88.7998 266.596C89.2388 267.568 89.6934 268.461 90.101 269.269C90.6731 270.579 91.5051 271.761 92.5465 272.741C93.299 273.415 93.8163 273.666 93.7771 273.697Z"/><path fill="#263238" d="M80.2404 269.425C80.2562 268.83 80.3377 268.239 80.4834 267.662C80.6872 266.58 81.0243 265.099 81.4789 263.484C81.9335 261.869 82.4195 260.435 82.8114 259.408C82.983 258.838 83.2225 258.291 83.5247 257.778C83.4188 258.36 83.2614 258.932 83.0544 259.486C82.7252 260.537 82.2705 261.979 81.8316 263.586C81.3927 265.193 81.0478 266.651 80.7342 267.717C80.6262 268.301 80.4608 268.873 80.2404 269.425Z"/><path fill="#263238" d="M93.299 256.798C92.6715 256.706 92.0528 256.562 91.4492 256.367C90.3205 256.077 88.7606 255.669 87.0284 255.277C85.2961 254.885 83.7128 254.587 82.5684 254.368C81.9409 254.288 81.3218 254.151 80.7186 253.96C81.3521 253.944 81.9854 253.997 82.6076 254.117C83.7677 254.266 85.3667 254.533 87.1068 254.901C88.8469 255.269 90.4067 255.74 91.5197 256.1C92.1354 256.271 92.7317 256.504 93.299 256.798Z"/><path fill="#263238" d="M70.521 260.466C70.5505 259.777 70.645 259.092 70.8031 258.42C71.0383 257.174 71.3989 255.45 71.8927 253.576C72.3865 251.703 72.9038 250.018 73.3114 248.811C73.5126 248.148 73.775 247.505 74.0952 246.89C73.9814 247.569 73.8136 248.237 73.5936 248.889C73.2487 250.112 72.7627 251.797 72.2767 253.663C71.7908 255.528 71.3832 257.245 71.0932 258.475C70.9595 259.154 70.768 259.82 70.521 260.466Z"/><path fill="#263238" d="M87.287 245.793C87.287 245.887 84.0028 245.628 79.9818 245.197C75.9607 244.766 72.7 244.343 72.7157 244.249C75.1593 244.319 77.5976 244.515 80.021 244.837C82.4577 245.031 84.8829 245.351 87.287 245.793Z"/><path fill="#455A64" d="M84.8885 285.455C84.8885 285.556 73.3898 285.635 59.2103 285.635C45.0309 285.635 33.5322 285.556 33.5322 285.455C33.5322 285.353 45.0309 285.274 59.2103 285.274C73.3898 285.274 84.8885 285.353 84.8885 285.455Z"/><path fill="#455A64" d="M76.8935 300.245C76.8935 300.347 69.1414 300.434 59.5866 300.434C50.0317 300.434 42.2875 300.347 42.2875 300.245C42.2875 300.144 50.0317 300.065 59.5866 300.065C69.1414 300.065 76.8935 300.183 76.8935 300.245Z"/><path fill="#455A64" d="M77.1913 302.362C77.1913 302.464 69.4471 302.542 59.8923 302.542C50.3374 302.542 42.5932 302.464 42.5932 302.362C42.5932 302.26 50.3374 302.181 59.8923 302.181C69.4471 302.181 77.1913 302.26 77.1913 302.362Z"/><path fill="#455A64" d="M77.1913 298.505C77.1913 298.607 69.1806 298.686 59.2966 298.686C49.4125 298.686 41.4018 298.607 41.4018 298.505C41.4018 298.403 49.4125 298.325 59.2966 298.325C69.1806 298.325 77.1913 298.403 77.1913 298.505Z"/></svg>